<svg class="main-svg" xmlns="http://www.w3.org/2000/svg" xmlns:xlink="http://www.w3.org/1999/xlink" width="600" height="700" style="" viewBox="0 0 600 700"><rect x="0" y="0" width="600" height="700" style="fill: rgb(255, 255, 255); fill-opacity: 1;"/><defs id="defs-88d89b"><g class="clips"><clipPath id="clip88d89bxyplot" class="plotclip"><rect width="590" height="624"/></clipPath><clipPath class="axesclip" id="clip88d89bx"><rect x="5" y="0" width="590" height="700"/></clipPath><clipPath class="axesclip" id="clip88d89by"><rect x="0" y="40" width="600" height="624"/></clipPath><clipPath class="axesclip" id="clip88d89bxy"><rect x="5" y="40" width="590" height="624"/></clipPath></g><g class="gradients"/><g class="patterns"/></defs><g class="bglayer"/><g class="layer-below"><g class="imagelayer"/><g class="shapelayer"/></g><g class="cartesianlayer"><g class="subplot xy"><g class="layer-subplot"><g class="shapelayer"/><g class="imagelayer"/></g><g class="minor-gridlayer"><g class="x"/><g class="y"/></g><g class="gridlayer"><g class="x"/><g class="y"/></g><g class="zerolinelayer"/><g class="layer-between"><g class="shapelayer"/><g class="imagelayer"/></g><path class="xlines-below"/><path class="ylines-below"/><g class="overlines-below"/><g class="xaxislayer-below"/><g class="yaxislayer-below"/><g class="overaxes-below"/><g class="overplot"><g class="xy" transform="translate(5,40)" clip-path="url(#clip88d89bxyplot)"><g class="scatterlayer mlayer"><g class="trace scatter tracee3721f" style="stroke-miterlimit: 2; opacity: 1;"><g class="fills"/><g class="errorbars"/><g class="lines"><path class="js-line" d="M541.75,312L430.29725166085444,75.2826008893411" style="vector-effect: none; fill: none; stroke: rgb(128, 22, 80); stroke-opacity: 1; stroke-width: 2px; opacity: 1;"/><path class="js-line" d="M171.62,49.95L390.37,49.95" style="vector-effect: none; fill: none; stroke: rgb(128, 22, 80); stroke-opacity: 1; stroke-width: 2px; opacity: 1;"/><path class="js-line" d="M48.25,312L395.51786888815167,66.12962000934795" style="vector-effect: none; fill: none; stroke: rgb(128, 22, 80); stroke-opacity: 1; stroke-width: 2px; opacity: 1;"/><path class="js-line" d="M171.63,574.05L390.37,574.05" style="vector-effect: none; fill: none; stroke: rgb(128, 22, 80); stroke-opacity: 1; stroke-width: 2px; opacity: 1;"/></g><g class="points"><path class="point" transform="translate(541.75,312)" d="M0,0Z" style="opacity: 1; stroke-width: 0px; fill: rgb(128, 22, 80); fill-opacity: 1;"/><path class="point" transform="translate(418.37,49.95)" d="M4.259732736019441,9.047357460478961L6.770651469607652,28.889113610409737L17.953800307499517,23.62379438270854Z" style="opacity: 1; stroke-width: 0px; fill: rgb(128, 22, 80); fill-opacity: 1;"/><path class="point" transform="translate(171.62,49.95)" d="M0,0Z" style="opacity: 1; stroke-width: 0px; fill: rgb(128, 22, 80); fill-opacity: 1;"/><path class="point" transform="translate(418.37,49.95)" d="M-10,6.123233995736766e-16L-29.02113032590307,-6.180339887498947L-29.02113032590307,6.180339887498951Z" style="opacity: 1; stroke-width: 0px; fill: rgb(128, 22, 80); fill-opacity: 1;"/><path class="point" transform="translate(48.25,312)" d="M0,0Z" style="opacity: 1; stroke-width: 0px; fill: rgb(128, 22, 80); fill-opacity: 1;"/><path class="point" transform="translate(418.37,49.95)" d="M-8.161475397088699,5.778435717624266L-27.25679379035445,11.725604410355846L-20.114254439758078,21.813742797849567Z" style="opacity: 1; stroke-width: 0px; fill: rgb(128, 22, 80); fill-opacity: 1;"/><path class="point" transform="translate(171.63,574.05)" d="M0,0Z" style="opacity: 1; stroke-width: 0px; fill: rgb(128, 22, 80); fill-opacity: 1;"/><path class="point" transform="translate(418.37,574.05)" d="M-10,6.123233995736766e-16L-29.02113032590307,-6.180339887498947L-29.02113032590307,6.180339887498951Z" style="opacity: 1; stroke-width: 0px; fill: rgb(128, 22, 80); fill-opacity: 1;"/></g><g class="text"/></g><g class="trace scatter traceb961b4" style="stroke-miterlimit: 2; opacity: 0;"><g class="fills"/><g class="errorbars"/><g class="lines"><path class="js-line" d="M480.06,180.98L295,49.95L233.31,180.98L295,574.05" style="vector-effect: none; fill: none; stroke: rgb(128, 128, 128); stroke-opacity: 1; stroke-width: 2px; opacity: 1;"/></g><g class="points"><path class="point" transform="translate(480.06,180.98)" d="M10,0A10,10 0 1,1 0,-10A10,10 0 0,1 10,0Z" style="opacity: 1; stroke-width: 0px; fill: rgb(128, 128, 128); fill-opacity: 1;"/><path class="point" transform="translate(295,49.95)" d="M10,0A10,10 0 1,1 0,-10A10,10 0 0,1 10,0Z" style="opacity: 1; stroke-width: 0px; fill: rgb(128, 128, 128); fill-opacity: 1;"/><path class="point" transform="translate(233.31,180.98)" d="M10,0A10,10 0 1,1 0,-10A10,10 0 0,1 10,0Z" style="opacity: 1; stroke-width: 0px; fill: rgb(128, 128, 128); fill-opacity: 1;"/><path class="point" transform="translate(295,574.05)" d="M10,0A10,10 0 1,1 0,-10A10,10 0 0,1 10,0Z" style="opacity: 1; stroke-width: 0px; fill: rgb(128, 128, 128); fill-opacity: 1;"/></g><g class="text"/></g><g class="trace scatter trace327a95" style="stroke-miterlimit: 2; opacity: 1;"><g class="fills"/><g class="errorbars"/><g class="lines"/><g class="points"><path class="point" transform="translate(541.75,312)" d="M15,0A15,15 0 1,1 0,-15A15,15 0 0,1 15,0Z" style="opacity: 1; stroke-width: 2px; fill: rgb(211, 211, 211); fill-opacity: 1; stroke: rgb(68, 68, 68); stroke-opacity: 1;"/><path class="point" transform="translate(418.37,49.95)" d="M15,0A15,15 0 1,1 0,-15A15,15 0 0,1 15,0Z" style="opacity: 1; stroke-width: 2px; fill: rgb(211, 211, 211); fill-opacity: 1; stroke: rgb(68, 68, 68); stroke-opacity: 1;"/><path class="point" transform="translate(171.62,49.95)" d="M15,0A15,15 0 1,1 0,-15A15,15 0 0,1 15,0Z" style="opacity: 1; stroke-width: 2px; fill: rgb(211, 211, 211); fill-opacity: 1; stroke: rgb(68, 68, 68); stroke-opacity: 1;"/><path class="point" transform="translate(48.25,312)" d="M15,0A15,15 0 1,1 0,-15A15,15 0 0,1 15,0Z" style="opacity: 1; stroke-width: 2px; fill: rgb(211, 211, 211); fill-opacity: 1; stroke: rgb(68, 68, 68); stroke-opacity: 1;"/><path class="point" transform="translate(171.63,574.05)" d="M15,0A15,15 0 1,1 0,-15A15,15 0 0,1 15,0Z" style="opacity: 1; stroke-width: 2px; fill: rgb(211, 211, 211); fill-opacity: 1; stroke: rgb(68, 68, 68); stroke-opacity: 1;"/><path class="point" transform="translate(418.37,574.05)" d="M15,0A15,15 0 1,1 0,-15A15,15 0 0,1 15,0Z" style="opacity: 1; stroke-width: 2px; fill: rgb(211, 211, 211); fill-opacity: 1; stroke: rgb(68, 68, 68); stroke-opacity: 1;"/></g><g class="text"><g class="textpoint" transform="translate(0,3)"><text x="541.75" y="312" text-anchor="middle" style="font-family: 'Open Sans', verdana, arial, sans-serif; font-size: 12px; fill: rgb(42, 63, 95); fill-opacity: 1; white-space: pre;">F2</text></g><g class="textpoint" transform="translate(0,3)"><text x="418.37" y="49.95" text-anchor="middle" style="font-family: 'Open Sans', verdana, arial, sans-serif; font-size: 12px; fill: rgb(42, 63, 95); fill-opacity: 1; white-space: pre;">F1</text></g><g class="textpoint" transform="translate(0,3)"><text x="171.62" y="49.95" text-anchor="middle" style="font-family: 'Open Sans', verdana, arial, sans-serif; font-size: 12px; fill: rgb(42, 63, 95); fill-opacity: 1; white-space: pre;">B6</text></g><g class="textpoint" transform="translate(0,3)"><text x="48.25" y="312" text-anchor="middle" style="font-family: 'Open Sans', verdana, arial, sans-serif; font-size: 12px; fill: rgb(42, 63, 95); fill-opacity: 1; white-space: pre;">E7</text></g><g class="textpoint" transform="translate(0,3)"><text x="171.63" y="574.05" text-anchor="middle" style="font-family: 'Open Sans', verdana, arial, sans-serif; font-size: 12px; fill: rgb(42, 63, 95); fill-opacity: 1; white-space: pre;">E8</text></g><g class="textpoint" transform="translate(0,3)"><text x="418.37" y="574.05" text-anchor="middle" style="font-family: 'Open Sans', verdana, arial, sans-serif; font-size: 12px; fill: rgb(42, 63, 95); fill-opacity: 1; white-space: pre;">F3</text></g></g></g><g class="trace scatter traced62895" style="stroke-miterlimit: 2; opacity: 0;"><g class="fills"/><g class="errorbars"/><g class="lines"><path class="js-line" d="M510.91,246.49L233.31,49.95L140.78,246.49L233.31,574.05" style="vector-effect: none; fill: none; stroke: rgb(128, 128, 128); stroke-opacity: 1; stroke-width: 2px; opacity: 1;"/></g><g class="points"><path class="point" transform="translate(510.91,246.49)" d="M10,0A10,10 0 1,1 0,-10A10,10 0 0,1 10,0Z" style="opacity: 1; stroke-width: 0px; fill: rgb(128, 128, 128); fill-opacity: 1;"/><path class="point" transform="translate(233.31,49.95)" d="M10,0A10,10 0 1,1 0,-10A10,10 0 0,1 10,0Z" style="opacity: 1; stroke-width: 0px; fill: rgb(128, 128, 128); fill-opacity: 1;"/><path class="point" transform="translate(140.78,246.49)" d="M10,0A10,10 0 1,1 0,-10A10,10 0 0,1 10,0Z" style="opacity: 1; stroke-width: 0px; fill: rgb(128, 128, 128); fill-opacity: 1;"/><path class="point" transform="translate(233.31,574.05)" d="M10,0A10,10 0 1,1 0,-10A10,10 0 0,1 10,0Z" style="opacity: 1; stroke-width: 0px; fill: rgb(128, 128, 128); fill-opacity: 1;"/></g><g class="text"/></g></g></g></g><path class="xlines-above crisp" d="M0,0" style="fill: none;"/><path class="ylines-above crisp" d="M0,0" style="fill: none;"/><g class="overlines-above"/><g class="xaxislayer-above"/><g class="yaxislayer-above"/><g class="overaxes-above"/></g></g><g class="polarlayer"/><g class="smithlayer"/><g class="ternarylayer"/><g class="geolayer"/><g class="funnelarealayer"/><g class="pielayer"/><g class="iciclelayer"/><g class="treemaplayer"/><g class="sunburstlayer"/><g class="glimages"/><defs id="topdefs-88d89b"><g class="clips"/><clipPath id="legend88d89b"><rect width="99" height="29" x="0" y="0"/></clipPath></defs><g class="layer-above"><g class="imagelayer"/><g class="shapelayer"/></g><g class="infolayer"><g class="legend" pointer-events="all" transform="translate(250.5,666.2)"><rect class="bg" shape-rendering="crispEdges" width="99" height="29" x="0" y="0" style="stroke: rgb(68, 68, 68); stroke-opacity: 1; fill: rgb(255, 255, 255); fill-opacity: 1; stroke-width: 0px;"/><g class="scrollbox" transform="" clip-path="url(#legend88d89b)"><g class="groups"><g class="traces" transform="translate(0,14.5)" style="opacity: 1;"><text class="legendtext" text-anchor="start" x="40" y="4.680000000000001" style="font-family: 'Open Sans', verdana, arial, sans-serif; font-size: 12px; fill: rgb(42, 63, 95); fill-opacity: 1; white-space: pre;">Negative</text><g class="layers" style="opacity: 1;"><g class="legendfill"/><g class="legendlines"><path class="js-line" d="M5,0h30" style="fill: none; stroke: rgb(128, 22, 80); stroke-opacity: 1; stroke-width: 2px;"/></g><g class="legendsymbols"><g class="legendpoints"><path class="scatterpts" transform="translate(20,0)" d="M10,-6.123233995736766e-16L-5.2169042607224565,-4.944271909999159L-5.2169042607224565,4.944271909999159Z" style="opacity: 1; stroke-width: 0px; fill: rgb(128, 22, 80); fill-opacity: 1;"/></g></g></g><rect class="legendtoggle" x="0" y="-9.5" width="96.359375" height="19" style="fill: rgb(0, 0, 0); fill-opacity: 0;"/></g></g></g><rect class="scrollbar" rx="20" ry="3" width="0" height="0" x="0" y="0" style="fill: rgb(128, 139, 164); fill-opacity: 1;"/></g><g class="g-gtitle"/><g class="g-xtitle"/><g class="g-ytitle"/></g></svg>