<svg class="main-svg" xmlns="http://www.w3.org/2000/svg" xmlns:xlink="http://www.w3.org/1999/xlink" width="700" height="500" style="" viewBox="0 0 700 500"><rect x="0" y="0" width="700" height="500" style="fill: rgb(255, 255, 255); fill-opacity: 1;"/><defs id="defs-73931e"><g class="clips"><clipPath id="clip73931exyplot" class="plotclip"><rect width="526" height="116.16"/></clipPath><clipPath id="clip73931ex2y2plot" class="plotclip"><rect width="526" height="116.16"/></clipPath><clipPath class="axesclip" id="clip73931ex"><rect x="94" y="0" width="526" height="500"/></clipPath><clipPath class="axesclip" id="clip73931ey"><rect x="0" y="100" width="700" height="116.16"/></clipPath><clipPath class="axesclip" id="clip73931exy"><rect x="94" y="100" width="526" height="116.16"/></clipPath><clipPath class="axesclip" id="clip73931ey2"><rect x="0" y="225.84" width="700" height="116.16"/></clipPath><clipPath class="axesclip" id="clip73931exy2"><rect x="94" y="225.84" width="526" height="116.16"/></clipPath><clipPath class="axesclip" id="clip73931ex2"><rect x="94" y="0" width="526" height="500"/></clipPath><clipPath class="axesclip" id="clip73931ex2y"><rect x="94" y="100" width="526" height="116.16"/></clipPath><clipPath class="axesclip" id="clip73931ex2y2"><rect x="94" y="225.84" width="526" height="116.16"/></clipPath></g><g class="gradients"/><g class="patterns"/></defs><g class="bglayer"/><g class="layer-below"><g class="imagelayer"/><g class="shapelayer"/></g><g class="cartesianlayer"><g class="subplot xy"><g class="layer-subplot"><g class="shapelayer"/><g class="imagelayer"/></g><g class="minor-gridlayer"><g class="x"/><g class="y"/></g><g class="gridlayer"><g class="x"/><g class="y"><path class="ygrid crisp" transform="translate(0,182)" d="M94,0h526" style="stroke: rgb(232, 232, 232); stroke-opacity: 1; stroke-width: 1px;"/><path class="ygrid crisp" transform="translate(0,147.82999999999998)" d="M94,0h526" style="stroke: rgb(232, 232, 232); stroke-opacity: 1; stroke-width: 1px;"/><path class="ygrid crisp" transform="translate(0,113.67)" d="M94,0h526" style="stroke: rgb(232, 232, 232); stroke-opacity: 1; stroke-width: 1px;"/></g></g><g class="zerolinelayer"/><g class="layer-between"><g class="shapelayer"/><g class="imagelayer"/></g><path class="xlines-below"/><path class="ylines-below"/><g class="overlines-below"/><g class="xaxislayer-below"/><g class="yaxislayer-below"/><g class="overaxes-below"/><g class="overplot"><g class="xy" transform="translate(94,100)" clip-path="url(#clip73931exyplot)"><g class="scatterlayer mlayer"><g class="trace scatter tracef2050d" style="stroke-miterlimit: 2; opacity: 1;"><g class="fills"/><g class="errorbars"/><g class="lines"><path class="js-line" d="M10.96,110.94L54.79,110.58L76.71,106.94L98.63,98.89L120.54,94.12L142.46,84.62L164.38,82.5L186.29,76.27L208.21,74.99L230.13,68.99L252.04,68.32L273.96,61.94L295.88,61.36L317.79,54.19L339.71,53.49L361.63,45.93L383.54,45.14L405.46,37.57L427.38,36.94L449.29,29.68L471.21,29.48L493.13,20.28L515.04,21.38" style="vector-effect: none; fill: none; stroke: rgb(18, 67, 109); stroke-opacity: 1; stroke-width: 2px; opacity: 1;"/></g><g class="points"><path class="point" transform="translate(10.96,110.94)" d="M3,0A3,3 0 1,1 0,-3A3,3 0 0,1 3,0Z" style="opacity: 1; stroke-width: 0px; fill: rgb(18, 67, 109); fill-opacity: 1;"/><path class="point" transform="translate(32.88,110.82)" d="M3,0A3,3 0 1,1 0,-3A3,3 0 0,1 3,0Z" style="opacity: 1; stroke-width: 0px; fill: rgb(18, 67, 109); fill-opacity: 1;"/><path class="point" transform="translate(54.79,110.58)" d="M3,0A3,3 0 1,1 0,-3A3,3 0 0,1 3,0Z" style="opacity: 1; stroke-width: 0px; fill: rgb(18, 67, 109); fill-opacity: 1;"/><path class="point" transform="translate(76.71,106.94)" d="M3,0A3,3 0 1,1 0,-3A3,3 0 0,1 3,0Z" style="opacity: 1; stroke-width: 0px; fill: rgb(18, 67, 109); fill-opacity: 1;"/><path class="point" transform="translate(98.63,98.89)" d="M3,0A3,3 0 1,1 0,-3A3,3 0 0,1 3,0Z" style="opacity: 1; stroke-width: 0px; fill: rgb(18, 67, 109); fill-opacity: 1;"/><path class="point" transform="translate(120.54,94.12)" d="M3,0A3,3 0 1,1 0,-3A3,3 0 0,1 3,0Z" style="opacity: 1; stroke-width: 0px; fill: rgb(18, 67, 109); fill-opacity: 1;"/><path class="point" transform="translate(142.46,84.62)" d="M3,0A3,3 0 1,1 0,-3A3,3 0 0,1 3,0Z" style="opacity: 1; stroke-width: 0px; fill: rgb(18, 67, 109); fill-opacity: 1;"/><path class="point" transform="translate(164.38,82.5)" d="M3,0A3,3 0 1,1 0,-3A3,3 0 0,1 3,0Z" style="opacity: 1; stroke-width: 0px; fill: rgb(18, 67, 109); fill-opacity: 1;"/><path class="point" transform="translate(186.29,76.27)" d="M3,0A3,3 0 1,1 0,-3A3,3 0 0,1 3,0Z" style="opacity: 1; stroke-width: 0px; fill: rgb(18, 67, 109); fill-opacity: 1;"/><path class="point" transform="translate(208.21,74.99)" d="M3,0A3,3 0 1,1 0,-3A3,3 0 0,1 3,0Z" style="opacity: 1; stroke-width: 0px; fill: rgb(18, 67, 109); fill-opacity: 1;"/><path class="point" transform="translate(230.13,68.99)" d="M3,0A3,3 0 1,1 0,-3A3,3 0 0,1 3,0Z" style="opacity: 1; stroke-width: 0px; fill: rgb(18, 67, 109); fill-opacity: 1;"/><path class="point" transform="translate(252.04,68.32)" d="M3,0A3,3 0 1,1 0,-3A3,3 0 0,1 3,0Z" style="opacity: 1; stroke-width: 0px; fill: rgb(18, 67, 109); fill-opacity: 1;"/><path class="point" transform="translate(273.96,61.94)" d="M3,0A3,3 0 1,1 0,-3A3,3 0 0,1 3,0Z" style="opacity: 1; stroke-width: 0px; fill: rgb(18, 67, 109); fill-opacity: 1;"/><path class="point" transform="translate(295.88,61.36)" d="M3,0A3,3 0 1,1 0,-3A3,3 0 0,1 3,0Z" style="opacity: 1; stroke-width: 0px; fill: rgb(18, 67, 109); fill-opacity: 1;"/><path class="point" transform="translate(317.79,54.19)" d="M3,0A3,3 0 1,1 0,-3A3,3 0 0,1 3,0Z" style="opacity: 1; stroke-width: 0px; fill: rgb(18, 67, 109); fill-opacity: 1;"/><path class="point" transform="translate(339.71,53.49)" d="M3,0A3,3 0 1,1 0,-3A3,3 0 0,1 3,0Z" style="opacity: 1; stroke-width: 0px; fill: rgb(18, 67, 109); fill-opacity: 1;"/><path class="point" transform="translate(361.63,45.93)" d="M3,0A3,3 0 1,1 0,-3A3,3 0 0,1 3,0Z" style="opacity: 1; stroke-width: 0px; fill: rgb(18, 67, 109); fill-opacity: 1;"/><path class="point" transform="translate(383.54,45.14)" d="M3,0A3,3 0 1,1 0,-3A3,3 0 0,1 3,0Z" style="opacity: 1; stroke-width: 0px; fill: rgb(18, 67, 109); fill-opacity: 1;"/><path class="point" transform="translate(405.46,37.57)" d="M3,0A3,3 0 1,1 0,-3A3,3 0 0,1 3,0Z" style="opacity: 1; stroke-width: 0px; fill: rgb(18, 67, 109); fill-opacity: 1;"/><path class="point" transform="translate(427.38,36.94)" d="M3,0A3,3 0 1,1 0,-3A3,3 0 0,1 3,0Z" style="opacity: 1; stroke-width: 0px; fill: rgb(18, 67, 109); fill-opacity: 1;"/><path class="point" transform="translate(449.29,29.68)" d="M3,0A3,3 0 1,1 0,-3A3,3 0 0,1 3,0Z" style="opacity: 1; stroke-width: 0px; fill: rgb(18, 67, 109); fill-opacity: 1;"/><path class="point" transform="translate(471.21,29.48)" d="M3,0A3,3 0 1,1 0,-3A3,3 0 0,1 3,0Z" style="opacity: 1; stroke-width: 0px; fill: rgb(18, 67, 109); fill-opacity: 1;"/><path class="point" transform="translate(493.13,20.28)" d="M3,0A3,3 0 1,1 0,-3A3,3 0 0,1 3,0Z" style="opacity: 1; stroke-width: 0px; fill: rgb(18, 67, 109); fill-opacity: 1;"/><path class="point" transform="translate(515.04,21.38)" d="M3,0A3,3 0 1,1 0,-3A3,3 0 0,1 3,0Z" style="opacity: 1; stroke-width: 0px; fill: rgb(18, 67, 109); fill-opacity: 1;"/></g><g class="text"/></g></g></g></g><path class="xlines-above crisp" d="M93,216.66H620" style="fill: none; stroke-width: 1px; stroke: rgb(36, 36, 36); stroke-opacity: 1;"/><path class="ylines-above crisp" d="M93.5,100V216.16" style="fill: none; stroke-width: 1px; stroke: rgb(36, 36, 36); stroke-opacity: 1;"/><g class="overlines-above"/><g class="xaxislayer-above"><path class="xtick ticks crisp" d="M0,217.16v5" transform="translate(104.96000000000001,0)" style="stroke: rgb(68, 68, 68); stroke-opacity: 1; stroke-width: 1px;"/><path class="xtick ticks crisp" d="M0,217.16v5" transform="translate(148.79,0)" style="stroke: rgb(68, 68, 68); stroke-opacity: 1; stroke-width: 1px;"/><path class="xtick ticks crisp" d="M0,217.16v5" transform="translate(192.63,0)" style="stroke: rgb(68, 68, 68); stroke-opacity: 1; stroke-width: 1px;"/><path class="xtick ticks crisp" d="M0,217.16v5" transform="translate(236.46,0)" style="stroke: rgb(68, 68, 68); stroke-opacity: 1; stroke-width: 1px;"/><path class="xtick ticks crisp" d="M0,217.16v5" transform="translate(280.28999999999996,0)" style="stroke: rgb(68, 68, 68); stroke-opacity: 1; stroke-width: 1px;"/><path class="xtick ticks crisp" d="M0,217.16v5" transform="translate(324.13,0)" style="stroke: rgb(68, 68, 68); stroke-opacity: 1; stroke-width: 1px;"/><path class="xtick ticks crisp" d="M0,217.16v5" transform="translate(367.96,0)" style="stroke: rgb(68, 68, 68); stroke-opacity: 1; stroke-width: 1px;"/><path class="xtick ticks crisp" d="M0,217.16v5" transform="translate(411.79,0)" style="stroke: rgb(68, 68, 68); stroke-opacity: 1; stroke-width: 1px;"/><path class="xtick ticks crisp" d="M0,217.16v5" transform="translate(455.63,0)" style="stroke: rgb(68, 68, 68); stroke-opacity: 1; stroke-width: 1px;"/><path class="xtick ticks crisp" d="M0,217.16v5" transform="translate(499.46,0)" style="stroke: rgb(68, 68, 68); stroke-opacity: 1; stroke-width: 1px;"/><path class="xtick ticks crisp" d="M0,217.16v5" transform="translate(543.29,0)" style="stroke: rgb(68, 68, 68); stroke-opacity: 1; stroke-width: 1px;"/><path class="xtick ticks crisp" d="M0,217.16v5" transform="translate(587.13,0)" style="stroke: rgb(68, 68, 68); stroke-opacity: 1; stroke-width: 1px;"/></g><g class="yaxislayer-above"><path class="ytick ticks crisp" d="M93,0h-5" transform="translate(0,216.16)" style="stroke: rgb(68, 68, 68); stroke-opacity: 1; stroke-width: 1px;"/><path class="ytick ticks crisp" d="M93,0h-5" transform="translate(0,182)" style="stroke: rgb(68, 68, 68); stroke-opacity: 1; stroke-width: 1px;"/><path class="ytick ticks crisp" d="M93,0h-5" transform="translate(0,147.82999999999998)" style="stroke: rgb(68, 68, 68); stroke-opacity: 1; stroke-width: 1px;"/><path class="ytick ticks crisp" d="M93,0h-5" transform="translate(0,113.67)" style="stroke: rgb(68, 68, 68); stroke-opacity: 1; stroke-width: 1px;"/><g class="ytick"><text text-anchor="end" x="85.6" y="4.199999999999999" transform="translate(0,216.16)" style="font-family: 'Open Sans', verdana, arial, sans-serif; font-size: 12px; fill: rgb(36, 36, 36); fill-opacity: 1; white-space: pre; opacity: 1;">0</text></g><g class="ytick"><text text-anchor="end" x="85.6" y="4.199999999999999" style="font-family: 'Open Sans', verdana, arial, sans-serif; font-size: 12px; fill: rgb(36, 36, 36); fill-opacity: 1; white-space: pre; opacity: 1;" transform="translate(0,182)">10</text></g><g class="ytick"><text text-anchor="end" x="85.6" y="4.199999999999999" style="font-family: 'Open Sans', verdana, arial, sans-serif; font-size: 12px; fill: rgb(36, 36, 36); fill-opacity: 1; white-space: pre; opacity: 1;" transform="translate(0,147.82999999999998)">20</text></g><g class="ytick"><text text-anchor="end" x="85.6" y="4.199999999999999" style="font-family: 'Open Sans', verdana, arial, sans-serif; font-size: 12px; fill: rgb(36, 36, 36); fill-opacity: 1; white-space: pre; opacity: 1;" transform="translate(0,113.67)">30</text></g></g><g class="overaxes-above"/></g><g class="subplot x2y2"><g class="layer-subplot"><g class="shapelayer"/><g class="imagelayer"/></g><g class="minor-gridlayer"><g class="x2"/><g class="y2"/></g><g class="gridlayer"><g class="x2"/><g class="y2"><path class="y2grid crisp" transform="translate(0,297.32)" d="M94,0h526" style="stroke: rgb(232, 232, 232); stroke-opacity: 1; stroke-width: 1px;"/><path class="y2grid crisp" transform="translate(0,252.65)" d="M94,0h526" style="stroke: rgb(232, 232, 232); stroke-opacity: 1; stroke-width: 1px;"/></g></g><g class="zerolinelayer"/><g class="layer-between"><g class="shapelayer"/><g class="imagelayer"/></g><path class="xlines-below"/><path class="ylines-below"/><g class="overlines-below"/><g class="xaxislayer-below"/><g class="yaxislayer-below"/><g class="overaxes-below"/><g class="overplot"><g class="x2y2" transform="translate(94,225.84)" clip-path="url(#clip73931ex2y2plot)"><g class="barlayer mlayer"><g class="trace bars" shape-rendering="crispEdges" style="opacity: 1;"><g class="points"><g class="point"><path d="M2.19,116.16V115.14H19.72V116.16Z" style="vector-effect: none; opacity: 1; stroke-width: 0.5px; fill: rgb(18, 67, 109); fill-opacity: 1; stroke: rgb(255, 255, 255); stroke-opacity: 1;"/></g><g class="point"><path d="M24.11,116.16V115.07H41.64V116.16Z" style="vector-effect: none; opacity: 1; stroke-width: 0.5px; fill: rgb(18, 67, 109); fill-opacity: 1; stroke: rgb(255, 255, 255); stroke-opacity: 1;"/></g><g class="point"><path d="M46.03,116.16V114.95H63.56V116.16Z" style="vector-effect: none; opacity: 1; stroke-width: 0.5px; fill: rgb(18, 67, 109); fill-opacity: 1; stroke: rgb(255, 255, 255); stroke-opacity: 1;"/></g><g class="point"><path d="M67.94,116.16V113.99H85.47V116.16Z" style="vector-effect: none; opacity: 1; stroke-width: 0.5px; fill: rgb(18, 67, 109); fill-opacity: 1; stroke: rgb(255, 255, 255); stroke-opacity: 1;"/></g><g class="point"><path d="M89.86,116.16V111.63H107.39V116.16Z" style="vector-effect: none; opacity: 1; stroke-width: 0.5px; fill: rgb(18, 67, 109); fill-opacity: 1; stroke: rgb(255, 255, 255); stroke-opacity: 1;"/></g><g class="point"><path d="M111.78,116.16V109.72H129.31V116.16Z" style="vector-effect: none; opacity: 1; stroke-width: 0.5px; fill: rgb(18, 67, 109); fill-opacity: 1; stroke: rgb(255, 255, 255); stroke-opacity: 1;"/></g><g class="point"><path d="M133.69,116.16V106.19H151.22V116.16Z" style="vector-effect: none; opacity: 1; stroke-width: 0.5px; fill: rgb(18, 67, 109); fill-opacity: 1; stroke: rgb(255, 255, 255); stroke-opacity: 1;"/></g><g class="point"><path d="M155.61,116.16V105.11H173.14V116.16Z" style="vector-effect: none; opacity: 1; stroke-width: 0.5px; fill: rgb(18, 67, 109); fill-opacity: 1; stroke: rgb(255, 255, 255); stroke-opacity: 1;"/></g><g class="point"><path d="M177.53,116.16V103.04H195.06V116.16Z" style="vector-effect: none; opacity: 1; stroke-width: 0.5px; fill: rgb(18, 67, 109); fill-opacity: 1; stroke: rgb(255, 255, 255); stroke-opacity: 1;"/></g><g class="point"><path d="M199.44,116.16V102.95H216.97V116.16Z" style="vector-effect: none; opacity: 1; stroke-width: 0.5px; fill: rgb(18, 67, 109); fill-opacity: 1; stroke: rgb(255, 255, 255); stroke-opacity: 1;"/></g><g class="point"><path d="M221.36,116.16V101.65H238.89V116.16Z" style="vector-effect: none; opacity: 1; stroke-width: 0.5px; fill: rgb(18, 67, 109); fill-opacity: 1; stroke: rgb(255, 255, 255); stroke-opacity: 1;"/></g><g class="point"><path d="M243.28,116.16V102.16H260.81V116.16Z" style="vector-effect: none; opacity: 1; stroke-width: 0.5px; fill: rgb(18, 67, 109); fill-opacity: 1; stroke: rgb(255, 255, 255); stroke-opacity: 1;"/></g><g class="point"><path d="M265.19,116.16V101.05H282.72V116.16Z" style="vector-effect: none; opacity: 1; stroke-width: 0.5px; fill: rgb(18, 67, 109); fill-opacity: 1; stroke: rgb(255, 255, 255); stroke-opacity: 1;"/></g><g class="point"><path d="M287.11,116.16V101.5H304.64V116.16Z" style="vector-effect: none; opacity: 1; stroke-width: 0.5px; fill: rgb(18, 67, 109); fill-opacity: 1; stroke: rgb(255, 255, 255); stroke-opacity: 1;"/></g><g class="point"><path d="M309.03,116.16V100.06H326.56V116.16Z" style="vector-effect: none; opacity: 1; stroke-width: 0.5px; fill: rgb(18, 67, 109); fill-opacity: 1; stroke: rgb(255, 255, 255); stroke-opacity: 1;"/></g><g class="point"><path d="M330.94,116.16V100.23H348.47V116.16Z" style="vector-effect: none; opacity: 1; stroke-width: 0.5px; fill: rgb(18, 67, 109); fill-opacity: 1; stroke: rgb(255, 255, 255); stroke-opacity: 1;"/></g><g class="point"><path d="M352.86,116.16V98.67H370.39V116.16Z" style="vector-effect: none; opacity: 1; stroke-width: 0.5px; fill: rgb(18, 67, 109); fill-opacity: 1; stroke: rgb(255, 255, 255); stroke-opacity: 1;"/></g><g class="point"><path d="M374.78,116.16V98.92H392.31V116.16Z" style="vector-effect: none; opacity: 1; stroke-width: 0.5px; fill: rgb(18, 67, 109); fill-opacity: 1; stroke: rgb(255, 255, 255); stroke-opacity: 1;"/></g><g class="point"><path d="M396.69,116.16V97.78H414.22V116.16Z" style="vector-effect: none; opacity: 1; stroke-width: 0.5px; fill: rgb(18, 67, 109); fill-opacity: 1; stroke: rgb(255, 255, 255); stroke-opacity: 1;"/></g><g class="point"><path d="M418.61,116.16V98.6H436.14V116.16Z" style="vector-effect: none; opacity: 1; stroke-width: 0.5px; fill: rgb(18, 67, 109); fill-opacity: 1; stroke: rgb(255, 255, 255); stroke-opacity: 1;"/></g><g class="point"><path d="M440.53,116.16V98.31H458.06V116.16Z" style="vector-effect: none; opacity: 1; stroke-width: 0.5px; fill: rgb(18, 67, 109); fill-opacity: 1; stroke: rgb(255, 255, 255); stroke-opacity: 1;"/></g><g class="point"><path d="M462.44,116.16V99.8H479.97V116.16Z" style="vector-effect: none; opacity: 1; stroke-width: 0.5px; fill: rgb(18, 67, 109); fill-opacity: 1; stroke: rgb(255, 255, 255); stroke-opacity: 1;"/></g><g class="point"><path d="M484.36,116.16V99.9H501.89V116.16Z" style="vector-effect: none; opacity: 1; stroke-width: 0.5px; fill: rgb(18, 67, 109); fill-opacity: 1; stroke: rgb(255, 255, 255); stroke-opacity: 1;"/></g><g class="point"><path d="M506.28,116.16V101.97H523.81V116.16Z" style="vector-effect: none; opacity: 1; stroke-width: 0.5px; fill: rgb(18, 67, 109); fill-opacity: 1; stroke: rgb(255, 255, 255); stroke-opacity: 1;"/></g></g></g><g class="trace bars" shape-rendering="crispEdges" style="opacity: 1;"><g class="points"><g class="point"><path d="M2.19,115.14V54.25H19.72V115.14Z" style="vector-effect: none; opacity: 1; stroke-width: 0.5px; fill: rgb(244, 106, 37); fill-opacity: 1; stroke: rgb(255, 255, 255); stroke-opacity: 1;"/></g><g class="point"><path d="M24.11,115.07V51.2H41.64V115.07Z" style="vector-effect: none; opacity: 1; stroke-width: 0.5px; fill: rgb(244, 106, 37); fill-opacity: 1; stroke: rgb(255, 255, 255); stroke-opacity: 1;"/></g><g class="point"><path d="M46.03,114.95V47.09H63.56V114.95Z" style="vector-effect: none; opacity: 1; stroke-width: 0.5px; fill: rgb(244, 106, 37); fill-opacity: 1; stroke: rgb(255, 255, 255); stroke-opacity: 1;"/></g><g class="point"><path d="M67.94,113.99V42.91H85.47V113.99Z" style="vector-effect: none; opacity: 1; stroke-width: 0.5px; fill: rgb(244, 106, 37); fill-opacity: 1; stroke: rgb(255, 255, 255); stroke-opacity: 1;"/></g><g class="point"><path d="M89.86,111.63V35.45H107.39V111.63Z" style="vector-effect: none; opacity: 1; stroke-width: 0.5px; fill: rgb(244, 106, 37); fill-opacity: 1; stroke: rgb(255, 255, 255); stroke-opacity: 1;"/></g><g class="point"><path d="M111.78,109.72V27.08H129.31V109.72Z" style="vector-effect: none; opacity: 1; stroke-width: 0.5px; fill: rgb(244, 106, 37); fill-opacity: 1; stroke: rgb(255, 255, 255); stroke-opacity: 1;"/></g><g class="point"><path d="M133.69,106.19V21.26H151.22V106.19Z" style="vector-effect: none; opacity: 1; stroke-width: 0.5px; fill: rgb(244, 106, 37); fill-opacity: 1; stroke: rgb(255, 255, 255); stroke-opacity: 1;"/></g><g class="point"><path d="M155.61,105.11V19.34H173.14V105.11Z" style="vector-effect: none; opacity: 1; stroke-width: 0.5px; fill: rgb(244, 106, 37); fill-opacity: 1; stroke: rgb(255, 255, 255); stroke-opacity: 1;"/></g><g class="point"><path d="M177.53,103.04V21.27H195.06V103.04Z" style="vector-effect: none; opacity: 1; stroke-width: 0.5px; fill: rgb(244, 106, 37); fill-opacity: 1; stroke: rgb(255, 255, 255); stroke-opacity: 1;"/></g><g class="point"><path d="M199.44,102.95V25.24H216.97V102.95Z" style="vector-effect: none; opacity: 1; stroke-width: 0.5px; fill: rgb(244, 106, 37); fill-opacity: 1; stroke: rgb(255, 255, 255); stroke-opacity: 1;"/></g><g class="point"><path d="M221.36,101.65V30.71H238.89V101.65Z" style="vector-effect: none; opacity: 1; stroke-width: 0.5px; fill: rgb(244, 106, 37); fill-opacity: 1; stroke: rgb(255, 255, 255); stroke-opacity: 1;"/></g><g class="point"><path d="M243.28,102.16V35.97H260.81V102.16Z" style="vector-effect: none; opacity: 1; stroke-width: 0.5px; fill: rgb(244, 106, 37); fill-opacity: 1; stroke: rgb(255, 255, 255); stroke-opacity: 1;"/></g><g class="point"><path d="M265.19,101.05V40.97H282.72V101.05Z" style="vector-effect: none; opacity: 1; stroke-width: 0.5px; fill: rgb(244, 106, 37); fill-opacity: 1; stroke: rgb(255, 255, 255); stroke-opacity: 1;"/></g><g class="point"><path d="M287.11,101.5V44.56H304.64V101.5Z" style="vector-effect: none; opacity: 1; stroke-width: 0.5px; fill: rgb(244, 106, 37); fill-opacity: 1; stroke: rgb(255, 255, 255); stroke-opacity: 1;"/></g><g class="point"><path d="M309.03,100.06V47.61H326.56V100.06Z" style="vector-effect: none; opacity: 1; stroke-width: 0.5px; fill: rgb(244, 106, 37); fill-opacity: 1; stroke: rgb(255, 255, 255); stroke-opacity: 1;"/></g><g class="point"><path d="M330.94,100.23V49.61H348.47V100.23Z" style="vector-effect: none; opacity: 1; stroke-width: 0.5px; fill: rgb(244, 106, 37); fill-opacity: 1; stroke: rgb(255, 255, 255); stroke-opacity: 1;"/></g><g class="point"><path d="M352.86,98.67V51.93H370.39V98.67Z" style="vector-effect: none; opacity: 1; stroke-width: 0.5px; fill: rgb(244, 106, 37); fill-opacity: 1; stroke: rgb(255, 255, 255); stroke-opacity: 1;"/></g><g class="point"><path d="M374.78,98.92V54.2H392.31V98.92Z" style="vector-effect: none; opacity: 1; stroke-width: 0.5px; fill: rgb(244, 106, 37); fill-opacity: 1; stroke: rgb(255, 255, 255); stroke-opacity: 1;"/></g><g class="point"><path d="M396.69,97.78V57.44H414.22V97.78Z" style="vector-effect: none; opacity: 1; stroke-width: 0.5px; fill: rgb(244, 106, 37); fill-opacity: 1; stroke: rgb(255, 255, 255); stroke-opacity: 1;"/></g><g class="point"><path d="M418.61,98.6V60.99H436.14V98.6Z" style="vector-effect: none; opacity: 1; stroke-width: 0.5px; fill: rgb(244, 106, 37); fill-opacity: 1; stroke: rgb(255, 255, 255); stroke-opacity: 1;"/></g><g class="point"><path d="M440.53,98.31V65.46H458.06V98.31Z" style="vector-effect: none; opacity: 1; stroke-width: 0.5px; fill: rgb(244, 106, 37); fill-opacity: 1; stroke: rgb(255, 255, 255); stroke-opacity: 1;"/></g><g class="point"><path d="M462.44,99.8V69.97H479.97V99.8Z" style="vector-effect: none; opacity: 1; stroke-width: 0.5px; fill: rgb(244, 106, 37); fill-opacity: 1; stroke: rgb(255, 255, 255); stroke-opacity: 1;"/></g><g class="point"><path d="M484.36,99.9V74.9H501.89V99.9Z" style="vector-effect: none; opacity: 1; stroke-width: 0.5px; fill: rgb(244, 106, 37); fill-opacity: 1; stroke: rgb(255, 255, 255); stroke-opacity: 1;"/></g><g class="point"><path d="M506.28,101.97V79.23H523.81V101.97Z" style="vector-effect: none; opacity: 1; stroke-width: 0.5px; fill: rgb(244, 106, 37); fill-opacity: 1; stroke: rgb(255, 255, 255); stroke-opacity: 1;"/></g></g></g><g class="trace bars" shape-rendering="crispEdges" style="opacity: 1;"><g class="points"><g class="point"><path d="M2.19,54.25V49.73H19.72V54.25Z" style="vector-effect: none; opacity: 1; stroke-width: 0.5px; fill: rgb(128, 22, 80); fill-opacity: 1; stroke: rgb(255, 255, 255); stroke-opacity: 1;"/></g><g class="point"><path d="M24.11,51.2V46.5H41.64V51.2Z" style="vector-effect: none; opacity: 1; stroke-width: 0.5px; fill: rgb(128, 22, 80); fill-opacity: 1; stroke: rgb(255, 255, 255); stroke-opacity: 1;"/></g><g class="point"><path d="M46.03,47.09V42.2H63.56V47.09Z" style="vector-effect: none; opacity: 1; stroke-width: 0.5px; fill: rgb(128, 22, 80); fill-opacity: 1; stroke: rgb(255, 255, 255); stroke-opacity: 1;"/></g><g class="point"><path d="M67.94,42.91V35.69H85.47V42.91Z" style="vector-effect: none; opacity: 1; stroke-width: 0.5px; fill: rgb(128, 22, 80); fill-opacity: 1; stroke: rgb(255, 255, 255); stroke-opacity: 1;"/></g><g class="point"><path d="M89.86,35.45V26.54H107.39V35.45Z" style="vector-effect: none; opacity: 1; stroke-width: 0.5px; fill: rgb(128, 22, 80); fill-opacity: 1; stroke: rgb(255, 255, 255); stroke-opacity: 1;"/></g><g class="point"><path d="M111.78,27.08V16.37H129.31V27.08Z" style="vector-effect: none; opacity: 1; stroke-width: 0.5px; fill: rgb(128, 22, 80); fill-opacity: 1; stroke: rgb(255, 255, 255); stroke-opacity: 1;"/></g><g class="point"><path d="M133.69,21.26V8.19H151.22V21.26Z" style="vector-effect: none; opacity: 1; stroke-width: 0.5px; fill: rgb(128, 22, 80); fill-opacity: 1; stroke: rgb(255, 255, 255); stroke-opacity: 1;"/></g><g class="point"><path d="M155.61,19.34V4H173.14V19.34Z" style="vector-effect: none; opacity: 1; stroke-width: 0.5px; fill: rgb(128, 22, 80); fill-opacity: 1; stroke: rgb(255, 255, 255); stroke-opacity: 1;"/></g><g class="point"><path d="M177.53,21.27V3.81H195.06V21.27Z" style="vector-effect: none; opacity: 1; stroke-width: 0.5px; fill: rgb(128, 22, 80); fill-opacity: 1; stroke: rgb(255, 255, 255); stroke-opacity: 1;"/></g><g class="point"><path d="M199.44,25.24V6.55H216.97V25.24Z" style="vector-effect: none; opacity: 1; stroke-width: 0.5px; fill: rgb(128, 22, 80); fill-opacity: 1; stroke: rgb(255, 255, 255); stroke-opacity: 1;"/></g><g class="point"><path d="M221.36,30.71V11.06H238.89V30.71Z" style="vector-effect: none; opacity: 1; stroke-width: 0.5px; fill: rgb(128, 22, 80); fill-opacity: 1; stroke: rgb(255, 255, 255); stroke-opacity: 1;"/></g><g class="point"><path d="M243.28,35.97V16.21H260.81V35.97Z" style="vector-effect: none; opacity: 1; stroke-width: 0.5px; fill: rgb(128, 22, 80); fill-opacity: 1; stroke: rgb(255, 255, 255); stroke-opacity: 1;"/></g><g class="point"><path d="M265.19,40.97V20.98H282.72V40.97Z" style="vector-effect: none; opacity: 1; stroke-width: 0.5px; fill: rgb(128, 22, 80); fill-opacity: 1; stroke: rgb(255, 255, 255); stroke-opacity: 1;"/></g><g class="point"><path d="M287.11,44.56V24.74H304.64V44.56Z" style="vector-effect: none; opacity: 1; stroke-width: 0.5px; fill: rgb(128, 22, 80); fill-opacity: 1; stroke: rgb(255, 255, 255); stroke-opacity: 1;"/></g><g class="point"><path d="M309.03,47.61V27.39H326.56V47.61Z" style="vector-effect: none; opacity: 1; stroke-width: 0.5px; fill: rgb(128, 22, 80); fill-opacity: 1; stroke: rgb(255, 255, 255); stroke-opacity: 1;"/></g><g class="point"><path d="M330.94,49.61V29.31H348.47V49.61Z" style="vector-effect: none; opacity: 1; stroke-width: 0.5px; fill: rgb(128, 22, 80); fill-opacity: 1; stroke: rgb(255, 255, 255); stroke-opacity: 1;"/></g><g class="point"><path d="M352.86,51.93V31.06H370.39V51.93Z" style="vector-effect: none; opacity: 1; stroke-width: 0.5px; fill: rgb(128, 22, 80); fill-opacity: 1; stroke: rgb(255, 255, 255); stroke-opacity: 1;"/></g><g class="point"><path d="M374.78,54.2V33.25H392.31V54.2Z" style="vector-effect: none; opacity: 1; stroke-width: 0.5px; fill: rgb(128, 22, 80); fill-opacity: 1; stroke: rgb(255, 255, 255); stroke-opacity: 1;"/></g><g class="point"><path d="M396.69,57.44V36.28H414.22V57.44Z" style="vector-effect: none; opacity: 1; stroke-width: 0.5px; fill: rgb(128, 22, 80); fill-opacity: 1; stroke: rgb(255, 255, 255); stroke-opacity: 1;"/></g><g class="point"><path d="M418.61,60.99V40.42H436.14V60.99Z" style="vector-effect: none; opacity: 1; stroke-width: 0.5px; fill: rgb(128, 22, 80); fill-opacity: 1; stroke: rgb(255, 255, 255); stroke-opacity: 1;"/></g><g class="point"><path d="M440.53,65.46V45.63H458.06V65.46Z" style="vector-effect: none; opacity: 1; stroke-width: 0.5px; fill: rgb(128, 22, 80); fill-opacity: 1; stroke: rgb(255, 255, 255); stroke-opacity: 1;"/></g><g class="point"><path d="M462.44,69.97V51.69H479.97V69.97Z" style="vector-effect: none; opacity: 1; stroke-width: 0.5px; fill: rgb(128, 22, 80); fill-opacity: 1; stroke: rgb(255, 255, 255); stroke-opacity: 1;"/></g><g class="point"><path d="M484.36,74.9V58.23H501.89V74.9Z" style="vector-effect: none; opacity: 1; stroke-width: 0.5px; fill: rgb(128, 22, 80); fill-opacity: 1; stroke: rgb(255, 255, 255); stroke-opacity: 1;"/></g><g class="point"><path d="M506.28,79.23V65.02H523.81V79.23Z" style="vector-effect: none; opacity: 1; stroke-width: 0.5px; fill: rgb(128, 22, 80); fill-opacity: 1; stroke: rgb(255, 255, 255); stroke-opacity: 1;"/></g></g></g></g></g></g><path class="xlines-above crisp" d="M93,342.5H620" style="fill: none; stroke-width: 1px; stroke: rgb(36, 36, 36); stroke-opacity: 1;"/><path class="ylines-above crisp" d="M93.5,225.84V342" style="fill: none; stroke-width: 1px; stroke: rgb(36, 36, 36); stroke-opacity: 1;"/><g class="overlines-above"/><g class="xaxislayer-above"><path class="x2tick ticks crisp" d="M0,343v5" transform="translate(104.96000000000001,0)" style="stroke: rgb(68, 68, 68); stroke-opacity: 1; stroke-width: 1px;"/><path class="x2tick ticks crisp" d="M0,343v5" transform="translate(148.79,0)" style="stroke: rgb(68, 68, 68); stroke-opacity: 1; stroke-width: 1px;"/><path class="x2tick ticks crisp" d="M0,343v5" transform="translate(192.63,0)" style="stroke: rgb(68, 68, 68); stroke-opacity: 1; stroke-width: 1px;"/><path class="x2tick ticks crisp" d="M0,343v5" transform="translate(236.46,0)" style="stroke: rgb(68, 68, 68); stroke-opacity: 1; stroke-width: 1px;"/><path class="x2tick ticks crisp" d="M0,343v5" transform="translate(280.28999999999996,0)" style="stroke: rgb(68, 68, 68); stroke-opacity: 1; stroke-width: 1px;"/><path class="x2tick ticks crisp" d="M0,343v5" transform="translate(324.13,0)" style="stroke: rgb(68, 68, 68); stroke-opacity: 1; stroke-width: 1px;"/><path class="x2tick ticks crisp" d="M0,343v5" transform="translate(367.96,0)" style="stroke: rgb(68, 68, 68); stroke-opacity: 1; stroke-width: 1px;"/><path class="x2tick ticks crisp" d="M0,343v5" transform="translate(411.79,0)" style="stroke: rgb(68, 68, 68); stroke-opacity: 1; stroke-width: 1px;"/><path class="x2tick ticks crisp" d="M0,343v5" transform="translate(455.63,0)" style="stroke: rgb(68, 68, 68); stroke-opacity: 1; stroke-width: 1px;"/><path class="x2tick ticks crisp" d="M0,343v5" transform="translate(499.46,0)" style="stroke: rgb(68, 68, 68); stroke-opacity: 1; stroke-width: 1px;"/><path class="x2tick ticks crisp" d="M0,343v5" transform="translate(543.29,0)" style="stroke: rgb(68, 68, 68); stroke-opacity: 1; stroke-width: 1px;"/><path class="x2tick ticks crisp" d="M0,343v5" transform="translate(587.13,0)" style="stroke: rgb(68, 68, 68); stroke-opacity: 1; stroke-width: 1px;"/><g class="x2tick"><text text-anchor="middle" x="0" y="362.4" transform="translate(104.96000000000001,0)" style="font-family: 'Open Sans', verdana, arial, sans-serif; font-size: 12px; fill: rgb(36, 36, 36); fill-opacity: 1; white-space: pre; opacity: 1;">2000</text></g><g class="x2tick"><text text-anchor="middle" x="0" y="362.4" style="font-family: 'Open Sans', verdana, arial, sans-serif; font-size: 12px; fill: rgb(36, 36, 36); fill-opacity: 1; white-space: pre; opacity: 1;" transform="translate(148.79,0)">2002</text></g><g class="x2tick"><text text-anchor="middle" x="0" y="362.4" style="font-family: 'Open Sans', verdana, arial, sans-serif; font-size: 12px; fill: rgb(36, 36, 36); fill-opacity: 1; white-space: pre; opacity: 1;" transform="translate(192.63,0)">2004</text></g><g class="x2tick"><text text-anchor="middle" x="0" y="362.4" style="font-family: 'Open Sans', verdana, arial, sans-serif; font-size: 12px; fill: rgb(36, 36, 36); fill-opacity: 1; white-space: pre; opacity: 1;" transform="translate(236.46,0)">2006</text></g><g class="x2tick"><text text-anchor="middle" x="0" y="362.4" style="font-family: 'Open Sans', verdana, arial, sans-serif; font-size: 12px; fill: rgb(36, 36, 36); fill-opacity: 1; white-space: pre; opacity: 1;" transform="translate(280.28999999999996,0)">2008</text></g><g class="x2tick"><text text-anchor="middle" x="0" y="362.4" style="font-family: 'Open Sans', verdana, arial, sans-serif; font-size: 12px; fill: rgb(36, 36, 36); fill-opacity: 1; white-space: pre; opacity: 1;" transform="translate(324.13,0)">2010</text></g><g class="x2tick"><text text-anchor="middle" x="0" y="362.4" style="font-family: 'Open Sans', verdana, arial, sans-serif; font-size: 12px; fill: rgb(36, 36, 36); fill-opacity: 1; white-space: pre; opacity: 1;" transform="translate(367.96,0)">2012</text></g><g class="x2tick"><text text-anchor="middle" x="0" y="362.4" style="font-family: 'Open Sans', verdana, arial, sans-serif; font-size: 12px; fill: rgb(36, 36, 36); fill-opacity: 1; white-space: pre; opacity: 1;" transform="translate(411.79,0)">2014</text></g><g class="x2tick"><text text-anchor="middle" x="0" y="362.4" style="font-family: 'Open Sans', verdana, arial, sans-serif; font-size: 12px; fill: rgb(36, 36, 36); fill-opacity: 1; white-space: pre; opacity: 1;" transform="translate(455.63,0)">2016</text></g><g class="x2tick"><text text-anchor="middle" x="0" y="362.4" style="font-family: 'Open Sans', verdana, arial, sans-serif; font-size: 12px; fill: rgb(36, 36, 36); fill-opacity: 1; white-space: pre; opacity: 1;" transform="translate(499.46,0)">2018</text></g><g class="x2tick"><text text-anchor="middle" x="0" y="362.4" style="font-family: 'Open Sans', verdana, arial, sans-serif; font-size: 12px; fill: rgb(36, 36, 36); fill-opacity: 1; white-space: pre; opacity: 1;" transform="translate(543.29,0)">2020</text></g><g class="x2tick"><text text-anchor="middle" x="0" y="362.4" style="font-family: 'Open Sans', verdana, arial, sans-serif; font-size: 12px; fill: rgb(36, 36, 36); fill-opacity: 1; white-space: pre; opacity: 1;" transform="translate(587.13,0)">2022</text></g></g><g class="yaxislayer-above"><path class="y2tick ticks crisp" d="M93,0h-5" transform="translate(0,342)" style="stroke: rgb(68, 68, 68); stroke-opacity: 1; stroke-width: 1px;"/><path class="y2tick ticks crisp" d="M93,0h-5" transform="translate(0,297.32)" style="stroke: rgb(68, 68, 68); stroke-opacity: 1; stroke-width: 1px;"/><path class="y2tick ticks crisp" d="M93,0h-5" transform="translate(0,252.65)" style="stroke: rgb(68, 68, 68); stroke-opacity: 1; stroke-width: 1px;"/><g class="y2tick"><text text-anchor="end" x="85.6" y="4.199999999999999" transform="translate(0,342)" style="font-family: 'Open Sans', verdana, arial, sans-serif; font-size: 12px; fill: rgb(36, 36, 36); fill-opacity: 1; white-space: pre; opacity: 1;">0</text></g><g class="y2tick"><text text-anchor="end" x="85.6" y="4.199999999999999" style="font-family: 'Open Sans', verdana, arial, sans-serif; font-size: 12px; fill: rgb(36, 36, 36); fill-opacity: 1; white-space: pre; opacity: 1;" transform="translate(0,297.32)">1000</text></g><g class="y2tick"><text text-anchor="end" x="85.6" y="4.199999999999999" style="font-family: 'Open Sans', verdana, arial, sans-serif; font-size: 12px; fill: rgb(36, 36, 36); fill-opacity: 1; white-space: pre; opacity: 1;" transform="translate(0,252.65)">2000</text></g></g><g class="overaxes-above"/></g></g><g class="polarlayer"/><g class="smithlayer"/><g class="ternarylayer"/><g class="geolayer"/><g class="funnelarealayer"/><g class="pielayer"/><g class="iciclelayer"/><g class="treemaplayer"/><g class="sunburstlayer"/><g class="glimages"/><defs id="topdefs-73931e"><g class="clips"/><clipPath id="legend73931e"><rect width="185" height="86" x="0" y="0"/></clipPath></defs><g class="layer-above"><g class="imagelayer"/><g class="shapelayer"/></g><g class="infolayer"><g class="legend" pointer-events="all" transform="translate(264.5,401.20000000000005)"><rect class="bg" shape-rendering="crispEdges" width="185" height="86" x="0" y="0" style="stroke: rgb(68, 68, 68); stroke-opacity: 1; fill: rgb(255, 255, 255); fill-opacity: 1; stroke-width: 0px;"/><g class="scrollbox" transform="" clip-path="url(#legend73931e)"><g class="groups"><g class="traces" transform="translate(0,14.5)" style="opacity: 1;"><text class="legendtext" text-anchor="start" x="40" y="4.680000000000001" style="font-family: 'Open Sans', verdana, arial, sans-serif; font-size: 12px; fill: rgb(36, 36, 36); fill-opacity: 1; white-space: pre;">Percentage incinerated</text><g class="layers" style="opacity: 1;"><g class="legendfill"/><g class="legendlines"><path class="js-line" d="M5,0h30" style="fill: none; stroke: rgb(18, 67, 109); stroke-opacity: 1; stroke-width: 2px;"/></g><g class="legendsymbols"><g class="legendpoints"><path class="scatterpts" transform="translate(20,0)" d="M3,0A3,3 0 1,1 0,-3A3,3 0 0,1 3,0Z" style="opacity: 1; stroke-width: 0px; fill: rgb(18, 67, 109); fill-opacity: 1;"/></g></g></g><rect class="legendtoggle" x="0" y="-9.5" width="179.171875" height="19" style="fill: rgb(0, 0, 0); fill-opacity: 0;"/></g><g class="traces" transform="translate(0,33.5)" style="opacity: 1;"><text class="legendtext" text-anchor="start" x="40" y="4.680000000000001" style="font-family: 'Open Sans', verdana, arial, sans-serif; font-size: 12px; fill: rgb(36, 36, 36); fill-opacity: 1; white-space: pre;">Recycled (tonnes)</text><g class="layers" style="opacity: 1;"><g class="legendfill"/><g class="legendlines"/><g class="legendsymbols"><g class="legendpoints"><path class="legendundefined" d="M6,6H-6V-6H6Z" transform="translate(20,0)" style="stroke-width: 0.5px; fill: rgb(128, 22, 80); fill-opacity: 1; stroke: rgb(255, 255, 255); stroke-opacity: 1;"/></g></g></g><rect class="legendtoggle" x="0" y="-9.5" width="179.171875" height="19" style="fill: rgb(0, 0, 0); fill-opacity: 0;"/></g><g class="traces" transform="translate(0,52.5)" style="opacity: 1;"><text class="legendtext" text-anchor="start" x="40" y="4.680000000000001" style="font-family: 'Open Sans', verdana, arial, sans-serif; font-size: 12px; fill: rgb(36, 36, 36); fill-opacity: 1; white-space: pre;">Landfill (tonnes)</text><g class="layers" style="opacity: 1;"><g class="legendfill"/><g class="legendlines"/><g class="legendsymbols"><g class="legendpoints"><path class="legendundefined" d="M6,6H-6V-6H6Z" transform="translate(20,0)" style="stroke-width: 0.5px; fill: rgb(244, 106, 37); fill-opacity: 1; stroke: rgb(255, 255, 255); stroke-opacity: 1;"/></g></g></g><rect class="legendtoggle" x="0" y="-9.5" width="179.171875" height="19" style="fill: rgb(0, 0, 0); fill-opacity: 0;"/></g><g class="traces" transform="translate(0,71.5)" style="opacity: 1;"><text class="legendtext" text-anchor="start" x="40" y="4.680000000000001" style="font-family: 'Open Sans', verdana, arial, sans-serif; font-size: 12px; fill: rgb(36, 36, 36); fill-opacity: 1; white-space: pre;">Incinerated (tonnes)</text><g class="layers" style="opacity: 1;"><g class="legendfill"/><g class="legendlines"/><g class="legendsymbols"><g class="legendpoints"><path class="legendundefined" d="M6,6H-6V-6H6Z" transform="translate(20,0)" style="stroke-width: 0.5px; fill: rgb(18, 67, 109); fill-opacity: 1; stroke: rgb(255, 255, 255); stroke-opacity: 1;"/></g></g></g><rect class="legendtoggle" x="0" y="-9.5" width="179.171875" height="19" style="fill: rgb(0, 0, 0); fill-opacity: 0;"/></g></g></g><rect class="scrollbar" rx="20" ry="3" width="0" height="0" x="0" y="0" style="fill: rgb(128, 139, 164); fill-opacity: 1;"/></g><g class="g-gtitle"/><g class="g-xtitle"/><g class="g-x2title"/><g class="g-ytitle"><text class="ytitle" transform="rotate(-90,32.728125000000006,158.07999999999998)" x="32.728125000000006" y="158.07999999999998" text-anchor="middle" style="opacity: 1; font-family: 'Open Sans', verdana, arial, sans-serif; font-size: 14px; fill: rgb(36, 36, 36); fill-opacity: 1; white-space: pre;"><tspan class="line" dy="0em" x="32.728125000000006" y="158.07999999999998">Percentage</tspan><tspan class="line" dy="1.3em" x="32.728125000000006" y="158.07999999999998">incinerated</tspan></text></g><g class="g-y2title"><text class="y2title" transform="rotate(-90,17.446875000000006,283.92)" x="17.446875000000006" y="283.92" text-anchor="middle" style="opacity: 1; font-family: 'Open Sans', verdana, arial, sans-serif; font-size: 14px; fill: rgb(36, 36, 36); fill-opacity: 1; white-space: pre;"><tspan class="line" dy="0em" x="17.446875000000006" y="283.92">DecaBDE</tspan><tspan class="line" dy="1.3em" x="17.446875000000006" y="283.92">(tonnes)</tspan></text></g></g></svg>