<svg class="main-svg" xmlns="http://www.w3.org/2000/svg" xmlns:xlink="http://www.w3.org/1999/xlink" width="700" height="500" style="" viewBox="0 0 700 500"><rect x="0" y="0" width="700" height="500" style="fill: rgb(255, 255, 255); fill-opacity: 1;"/><defs id="defs-74f976"><g class="clips"><clipPath id="clip74f976xyplot" class="plotclip"><rect width="534" height="116.16"/></clipPath><clipPath id="clip74f976x2y2plot" class="plotclip"><rect width="534" height="116.16"/></clipPath><clipPath class="axesclip" id="clip74f976x"><rect x="86" y="0" width="534" height="500"/></clipPath><clipPath class="axesclip" id="clip74f976y"><rect x="0" y="100" width="700" height="116.16"/></clipPath><clipPath class="axesclip" id="clip74f976xy"><rect x="86" y="100" width="534" height="116.16"/></clipPath><clipPath class="axesclip" id="clip74f976y2"><rect x="0" y="225.84" width="700" height="116.16"/></clipPath><clipPath class="axesclip" id="clip74f976xy2"><rect x="86" y="225.84" width="534" height="116.16"/></clipPath><clipPath class="axesclip" id="clip74f976x2"><rect x="86" y="0" width="534" height="500"/></clipPath><clipPath class="axesclip" id="clip74f976x2y"><rect x="86" y="100" width="534" height="116.16"/></clipPath><clipPath class="axesclip" id="clip74f976x2y2"><rect x="86" y="225.84" width="534" height="116.16"/></clipPath></g><g class="gradients"/><g class="patterns"/></defs><g class="bglayer"/><g class="layer-below"><g class="imagelayer"/><g class="shapelayer"/></g><g class="cartesianlayer"><g class="subplot xy"><g class="layer-subplot"><g class="shapelayer"/><g class="imagelayer"/></g><g class="minor-gridlayer"><g class="x"/><g class="y"/></g><g class="gridlayer"><g class="x"/><g class="y"><path class="ygrid crisp" transform="translate(0,197.42000000000002)" d="M86,0h534" style="stroke: rgb(232, 232, 232); stroke-opacity: 1; stroke-width: 1px;"/><path class="ygrid crisp" transform="translate(0,178.69)" d="M86,0h534" style="stroke: rgb(232, 232, 232); stroke-opacity: 1; stroke-width: 1px;"/><path class="ygrid crisp" transform="translate(0,159.95)" d="M86,0h534" style="stroke: rgb(232, 232, 232); stroke-opacity: 1; stroke-width: 1px;"/><path class="ygrid crisp" transform="translate(0,141.22)" d="M86,0h534" style="stroke: rgb(232, 232, 232); stroke-opacity: 1; stroke-width: 1px;"/><path class="ygrid crisp" transform="translate(0,122.48)" d="M86,0h534" style="stroke: rgb(232, 232, 232); stroke-opacity: 1; stroke-width: 1px;"/><path class="ygrid crisp" transform="translate(0,103.75)" d="M86,0h534" style="stroke: rgb(232, 232, 232); stroke-opacity: 1; stroke-width: 1px;"/></g></g><g class="zerolinelayer"/><g class="layer-between"><g class="shapelayer"/><g class="imagelayer"/></g><path class="xlines-below"/><path class="ylines-below"/><g class="overlines-below"/><g class="xaxislayer-below"/><g class="yaxislayer-below"/><g class="overaxes-below"/><g class="overplot"><g class="xy" transform="translate(86,100)" clip-path="url(#clip74f976xyplot)"><g class="scatterlayer mlayer"><g class="trace scatter trace3203ce" style="stroke-miterlimit: 2; opacity: 1;"><g class="fills"/><g class="errorbars"/><g class="lines"><path class="js-line" d="M11.13,82.66L55.63,83L77.88,74.76L100.13,73.68L122.38,65.31L144.63,63.52L166.88,63.28L189.13,52.54L211.38,52.34L233.63,50.51L255.88,41.42L278.13,39.44L300.38,42.81L322.63,33.17L344.88,33.01L367.13,30.92L389.38,30.57L411.63,19.53L433.88,17.42L456.13,13.86L478.38,11.63L500.63,7.98L522.88,6.97" style="vector-effect: none; fill: none; stroke: rgb(18, 67, 109); stroke-opacity: 1; stroke-width: 2px; opacity: 1;"/></g><g class="points"><path class="point" transform="translate(11.13,82.66)" d="M3,0A3,3 0 1,1 0,-3A3,3 0 0,1 3,0Z" style="opacity: 1; stroke-width: 0px; fill: rgb(18, 67, 109); fill-opacity: 1;"/><path class="point" transform="translate(33.38,82.86)" d="M3,0A3,3 0 1,1 0,-3A3,3 0 0,1 3,0Z" style="opacity: 1; stroke-width: 0px; fill: rgb(18, 67, 109); fill-opacity: 1;"/><path class="point" transform="translate(55.63,83)" d="M3,0A3,3 0 1,1 0,-3A3,3 0 0,1 3,0Z" style="opacity: 1; stroke-width: 0px; fill: rgb(18, 67, 109); fill-opacity: 1;"/><path class="point" transform="translate(77.88,74.76)" d="M3,0A3,3 0 1,1 0,-3A3,3 0 0,1 3,0Z" style="opacity: 1; stroke-width: 0px; fill: rgb(18, 67, 109); fill-opacity: 1;"/><path class="point" transform="translate(100.13,73.68)" d="M3,0A3,3 0 1,1 0,-3A3,3 0 0,1 3,0Z" style="opacity: 1; stroke-width: 0px; fill: rgb(18, 67, 109); fill-opacity: 1;"/><path class="point" transform="translate(122.38,65.31)" d="M3,0A3,3 0 1,1 0,-3A3,3 0 0,1 3,0Z" style="opacity: 1; stroke-width: 0px; fill: rgb(18, 67, 109); fill-opacity: 1;"/><path class="point" transform="translate(144.63,63.52)" d="M3,0A3,3 0 1,1 0,-3A3,3 0 0,1 3,0Z" style="opacity: 1; stroke-width: 0px; fill: rgb(18, 67, 109); fill-opacity: 1;"/><path class="point" transform="translate(166.88,63.28)" d="M3,0A3,3 0 1,1 0,-3A3,3 0 0,1 3,0Z" style="opacity: 1; stroke-width: 0px; fill: rgb(18, 67, 109); fill-opacity: 1;"/><path class="point" transform="translate(189.13,52.54)" d="M3,0A3,3 0 1,1 0,-3A3,3 0 0,1 3,0Z" style="opacity: 1; stroke-width: 0px; fill: rgb(18, 67, 109); fill-opacity: 1;"/><path class="point" transform="translate(211.38,52.34)" d="M3,0A3,3 0 1,1 0,-3A3,3 0 0,1 3,0Z" style="opacity: 1; stroke-width: 0px; fill: rgb(18, 67, 109); fill-opacity: 1;"/><path class="point" transform="translate(233.63,50.51)" d="M3,0A3,3 0 1,1 0,-3A3,3 0 0,1 3,0Z" style="opacity: 1; stroke-width: 0px; fill: rgb(18, 67, 109); fill-opacity: 1;"/><path class="point" transform="translate(255.88,41.42)" d="M3,0A3,3 0 1,1 0,-3A3,3 0 0,1 3,0Z" style="opacity: 1; stroke-width: 0px; fill: rgb(18, 67, 109); fill-opacity: 1;"/><path class="point" transform="translate(278.13,39.44)" d="M3,0A3,3 0 1,1 0,-3A3,3 0 0,1 3,0Z" style="opacity: 1; stroke-width: 0px; fill: rgb(18, 67, 109); fill-opacity: 1;"/><path class="point" transform="translate(300.38,42.81)" d="M3,0A3,3 0 1,1 0,-3A3,3 0 0,1 3,0Z" style="opacity: 1; stroke-width: 0px; fill: rgb(18, 67, 109); fill-opacity: 1;"/><path class="point" transform="translate(322.63,33.17)" d="M3,0A3,3 0 1,1 0,-3A3,3 0 0,1 3,0Z" style="opacity: 1; stroke-width: 0px; fill: rgb(18, 67, 109); fill-opacity: 1;"/><path class="point" transform="translate(344.88,33.01)" d="M3,0A3,3 0 1,1 0,-3A3,3 0 0,1 3,0Z" style="opacity: 1; stroke-width: 0px; fill: rgb(18, 67, 109); fill-opacity: 1;"/><path class="point" transform="translate(367.13,30.92)" d="M3,0A3,3 0 1,1 0,-3A3,3 0 0,1 3,0Z" style="opacity: 1; stroke-width: 0px; fill: rgb(18, 67, 109); fill-opacity: 1;"/><path class="point" transform="translate(389.38,30.57)" d="M3,0A3,3 0 1,1 0,-3A3,3 0 0,1 3,0Z" style="opacity: 1; stroke-width: 0px; fill: rgb(18, 67, 109); fill-opacity: 1;"/><path class="point" transform="translate(411.63,19.53)" d="M3,0A3,3 0 1,1 0,-3A3,3 0 0,1 3,0Z" style="opacity: 1; stroke-width: 0px; fill: rgb(18, 67, 109); fill-opacity: 1;"/><path class="point" transform="translate(433.88,17.42)" d="M3,0A3,3 0 1,1 0,-3A3,3 0 0,1 3,0Z" style="opacity: 1; stroke-width: 0px; fill: rgb(18, 67, 109); fill-opacity: 1;"/><path class="point" transform="translate(456.13,13.86)" d="M3,0A3,3 0 1,1 0,-3A3,3 0 0,1 3,0Z" style="opacity: 1; stroke-width: 0px; fill: rgb(18, 67, 109); fill-opacity: 1;"/><path class="point" transform="translate(478.38,11.63)" d="M3,0A3,3 0 1,1 0,-3A3,3 0 0,1 3,0Z" style="opacity: 1; stroke-width: 0px; fill: rgb(18, 67, 109); fill-opacity: 1;"/><path class="point" transform="translate(500.63,7.98)" d="M3,0A3,3 0 1,1 0,-3A3,3 0 0,1 3,0Z" style="opacity: 1; stroke-width: 0px; fill: rgb(18, 67, 109); fill-opacity: 1;"/><path class="point" transform="translate(522.88,6.97)" d="M3,0A3,3 0 1,1 0,-3A3,3 0 0,1 3,0Z" style="opacity: 1; stroke-width: 0px; fill: rgb(18, 67, 109); fill-opacity: 1;"/></g><g class="text"/></g></g></g></g><path class="xlines-above crisp" d="M85,216.66H620" style="fill: none; stroke-width: 1px; stroke: rgb(36, 36, 36); stroke-opacity: 1;"/><path class="ylines-above crisp" d="M85.5,100V216.16" style="fill: none; stroke-width: 1px; stroke: rgb(36, 36, 36); stroke-opacity: 1;"/><g class="overlines-above"/><g class="xaxislayer-above"><path class="xtick ticks crisp" d="M0,217.16v5" transform="translate(97.13,0)" style="stroke: rgb(68, 68, 68); stroke-opacity: 1; stroke-width: 1px;"/><path class="xtick ticks crisp" d="M0,217.16v5" transform="translate(141.63,0)" style="stroke: rgb(68, 68, 68); stroke-opacity: 1; stroke-width: 1px;"/><path class="xtick ticks crisp" d="M0,217.16v5" transform="translate(186.13,0)" style="stroke: rgb(68, 68, 68); stroke-opacity: 1; stroke-width: 1px;"/><path class="xtick ticks crisp" d="M0,217.16v5" transform="translate(230.63,0)" style="stroke: rgb(68, 68, 68); stroke-opacity: 1; stroke-width: 1px;"/><path class="xtick ticks crisp" d="M0,217.16v5" transform="translate(275.13,0)" style="stroke: rgb(68, 68, 68); stroke-opacity: 1; stroke-width: 1px;"/><path class="xtick ticks crisp" d="M0,217.16v5" transform="translate(319.63,0)" style="stroke: rgb(68, 68, 68); stroke-opacity: 1; stroke-width: 1px;"/><path class="xtick ticks crisp" d="M0,217.16v5" transform="translate(364.13,0)" style="stroke: rgb(68, 68, 68); stroke-opacity: 1; stroke-width: 1px;"/><path class="xtick ticks crisp" d="M0,217.16v5" transform="translate(408.63,0)" style="stroke: rgb(68, 68, 68); stroke-opacity: 1; stroke-width: 1px;"/><path class="xtick ticks crisp" d="M0,217.16v5" transform="translate(453.13,0)" style="stroke: rgb(68, 68, 68); stroke-opacity: 1; stroke-width: 1px;"/><path class="xtick ticks crisp" d="M0,217.16v5" transform="translate(497.63,0)" style="stroke: rgb(68, 68, 68); stroke-opacity: 1; stroke-width: 1px;"/><path class="xtick ticks crisp" d="M0,217.16v5" transform="translate(542.13,0)" style="stroke: rgb(68, 68, 68); stroke-opacity: 1; stroke-width: 1px;"/><path class="xtick ticks crisp" d="M0,217.16v5" transform="translate(586.63,0)" style="stroke: rgb(68, 68, 68); stroke-opacity: 1; stroke-width: 1px;"/></g><g class="yaxislayer-above"><path class="ytick ticks crisp" d="M85,0h-5" transform="translate(0,216.16)" style="stroke: rgb(68, 68, 68); stroke-opacity: 1; stroke-width: 1px;"/><path class="ytick ticks crisp" d="M85,0h-5" transform="translate(0,197.42000000000002)" style="stroke: rgb(68, 68, 68); stroke-opacity: 1; stroke-width: 1px;"/><path class="ytick ticks crisp" d="M85,0h-5" transform="translate(0,178.69)" style="stroke: rgb(68, 68, 68); stroke-opacity: 1; stroke-width: 1px;"/><path class="ytick ticks crisp" d="M85,0h-5" transform="translate(0,159.95)" style="stroke: rgb(68, 68, 68); stroke-opacity: 1; stroke-width: 1px;"/><path class="ytick ticks crisp" d="M85,0h-5" transform="translate(0,141.22)" style="stroke: rgb(68, 68, 68); stroke-opacity: 1; stroke-width: 1px;"/><path class="ytick ticks crisp" d="M85,0h-5" transform="translate(0,122.48)" style="stroke: rgb(68, 68, 68); stroke-opacity: 1; stroke-width: 1px;"/><path class="ytick ticks crisp" d="M85,0h-5" transform="translate(0,103.75)" style="stroke: rgb(68, 68, 68); stroke-opacity: 1; stroke-width: 1px;"/><g class="ytick"><text text-anchor="end" x="77.6" y="4.199999999999999" transform="translate(0,216.16)" style="font-family: 'Open Sans', verdana, arial, sans-serif; font-size: 12px; fill: rgb(36, 36, 36); fill-opacity: 1; white-space: pre; opacity: 1;">0</text></g><g class="ytick"><text text-anchor="end" x="77.6" y="4.199999999999999" style="font-family: 'Open Sans', verdana, arial, sans-serif; font-size: 12px; fill: rgb(36, 36, 36); fill-opacity: 1; white-space: pre; opacity: 1;" transform="translate(0,197.42000000000002)">10</text></g><g class="ytick"><text text-anchor="end" x="77.6" y="4.199999999999999" style="font-family: 'Open Sans', verdana, arial, sans-serif; font-size: 12px; fill: rgb(36, 36, 36); fill-opacity: 1; white-space: pre; opacity: 1;" transform="translate(0,178.69)">20</text></g><g class="ytick"><text text-anchor="end" x="77.6" y="4.199999999999999" style="font-family: 'Open Sans', verdana, arial, sans-serif; font-size: 12px; fill: rgb(36, 36, 36); fill-opacity: 1; white-space: pre; opacity: 1;" transform="translate(0,159.95)">30</text></g><g class="ytick"><text text-anchor="end" x="77.6" y="4.199999999999999" style="font-family: 'Open Sans', verdana, arial, sans-serif; font-size: 12px; fill: rgb(36, 36, 36); fill-opacity: 1; white-space: pre; opacity: 1;" transform="translate(0,141.22)">40</text></g><g class="ytick"><text text-anchor="end" x="77.6" y="4.199999999999999" style="font-family: 'Open Sans', verdana, arial, sans-serif; font-size: 12px; fill: rgb(36, 36, 36); fill-opacity: 1; white-space: pre; opacity: 1;" transform="translate(0,122.48)">50</text></g><g class="ytick"><text text-anchor="end" x="77.6" y="4.199999999999999" style="font-family: 'Open Sans', verdana, arial, sans-serif; font-size: 12px; fill: rgb(36, 36, 36); fill-opacity: 1; white-space: pre; opacity: 1;" transform="translate(0,103.75)">60</text></g></g><g class="overaxes-above"/></g><g class="subplot x2y2"><g class="layer-subplot"><g class="shapelayer"/><g class="imagelayer"/></g><g class="minor-gridlayer"><g class="x2"/><g class="y2"/></g><g class="gridlayer"><g class="x2"/><g class="y2"><path class="y2grid crisp" transform="translate(0,306.26)" d="M86,0h534" style="stroke: rgb(232, 232, 232); stroke-opacity: 1; stroke-width: 1px;"/><path class="y2grid crisp" transform="translate(0,270.52)" d="M86,0h534" style="stroke: rgb(232, 232, 232); stroke-opacity: 1; stroke-width: 1px;"/><path class="y2grid crisp" transform="translate(0,234.78)" d="M86,0h534" style="stroke: rgb(232, 232, 232); stroke-opacity: 1; stroke-width: 1px;"/></g></g><g class="zerolinelayer"/><g class="layer-between"><g class="shapelayer"/><g class="imagelayer"/></g><path class="xlines-below"/><path class="ylines-below"/><g class="overlines-below"/><g class="xaxislayer-below"/><g class="yaxislayer-below"/><g class="overaxes-below"/><g class="overplot"><g class="x2y2" transform="translate(86,225.84)" clip-path="url(#clip74f976x2y2plot)"><g class="barlayer mlayer"><g class="trace bars" shape-rendering="crispEdges" style="opacity: 1;"><g class="points"><g class="point"><path d="M2.22,116.16V107.61H20.02V116.16Z" style="vector-effect: none; opacity: 1; stroke-width: 0.5px; fill: rgb(18, 67, 109); fill-opacity: 1; stroke: rgb(255, 255, 255); stroke-opacity: 1;"/></g><g class="point"><path d="M24.47,116.16V107.29H42.27V116.16Z" style="vector-effect: none; opacity: 1; stroke-width: 0.5px; fill: rgb(18, 67, 109); fill-opacity: 1; stroke: rgb(255, 255, 255); stroke-opacity: 1;"/></g><g class="point"><path d="M46.72,116.16V106.94H64.52V116.16Z" style="vector-effect: none; opacity: 1; stroke-width: 0.5px; fill: rgb(18, 67, 109); fill-opacity: 1; stroke: rgb(255, 255, 255); stroke-opacity: 1;"/></g><g class="point"><path d="M68.97,116.16V104.16H86.77V116.16Z" style="vector-effect: none; opacity: 1; stroke-width: 0.5px; fill: rgb(18, 67, 109); fill-opacity: 1; stroke: rgb(255, 255, 255); stroke-opacity: 1;"/></g><g class="point"><path d="M91.22,116.16V103.29H109.02V116.16Z" style="vector-effect: none; opacity: 1; stroke-width: 0.5px; fill: rgb(18, 67, 109); fill-opacity: 1; stroke: rgb(255, 255, 255); stroke-opacity: 1;"/></g><g class="point"><path d="M113.47,116.16V100.05H131.27V116.16Z" style="vector-effect: none; opacity: 1; stroke-width: 0.5px; fill: rgb(18, 67, 109); fill-opacity: 1; stroke: rgb(255, 255, 255); stroke-opacity: 1;"/></g><g class="point"><path d="M135.72,116.16V98.71H153.52V116.16Z" style="vector-effect: none; opacity: 1; stroke-width: 0.5px; fill: rgb(18, 67, 109); fill-opacity: 1; stroke: rgb(255, 255, 255); stroke-opacity: 1;"/></g><g class="point"><path d="M157.97,116.16V97.81H175.77V116.16Z" style="vector-effect: none; opacity: 1; stroke-width: 0.5px; fill: rgb(18, 67, 109); fill-opacity: 1; stroke: rgb(255, 255, 255); stroke-opacity: 1;"/></g><g class="point"><path d="M180.22,116.16V92.6H198.02V116.16Z" style="vector-effect: none; opacity: 1; stroke-width: 0.5px; fill: rgb(18, 67, 109); fill-opacity: 1; stroke: rgb(255, 255, 255); stroke-opacity: 1;"/></g><g class="point"><path d="M202.47,116.16V91.67H220.27V116.16Z" style="vector-effect: none; opacity: 1; stroke-width: 0.5px; fill: rgb(18, 67, 109); fill-opacity: 1; stroke: rgb(255, 255, 255); stroke-opacity: 1;"/></g><g class="point"><path d="M224.72,116.16V89.98H242.52V116.16Z" style="vector-effect: none; opacity: 1; stroke-width: 0.5px; fill: rgb(18, 67, 109); fill-opacity: 1; stroke: rgb(255, 255, 255); stroke-opacity: 1;"/></g><g class="point"><path d="M246.97,116.16V85.12H264.77V116.16Z" style="vector-effect: none; opacity: 1; stroke-width: 0.5px; fill: rgb(18, 67, 109); fill-opacity: 1; stroke: rgb(255, 255, 255); stroke-opacity: 1;"/></g><g class="point"><path d="M269.22,116.16V82.82H287.02V116.16Z" style="vector-effect: none; opacity: 1; stroke-width: 0.5px; fill: rgb(18, 67, 109); fill-opacity: 1; stroke: rgb(255, 255, 255); stroke-opacity: 1;"/></g><g class="point"><path d="M291.47,116.16V88.7H309.27V116.16Z" style="vector-effect: none; opacity: 1; stroke-width: 0.5px; fill: rgb(18, 67, 109); fill-opacity: 1; stroke: rgb(255, 255, 255); stroke-opacity: 1;"/></g><g class="point"><path d="M313.72,116.16V85.01H331.52V116.16Z" style="vector-effect: none; opacity: 1; stroke-width: 0.5px; fill: rgb(18, 67, 109); fill-opacity: 1; stroke: rgb(255, 255, 255); stroke-opacity: 1;"/></g><g class="point"><path d="M335.97,116.16V84.26H353.77V116.16Z" style="vector-effect: none; opacity: 1; stroke-width: 0.5px; fill: rgb(18, 67, 109); fill-opacity: 1; stroke: rgb(255, 255, 255); stroke-opacity: 1;"/></g><g class="point"><path d="M358.22,116.16V82.61H376.02V116.16Z" style="vector-effect: none; opacity: 1; stroke-width: 0.5px; fill: rgb(18, 67, 109); fill-opacity: 1; stroke: rgb(255, 255, 255); stroke-opacity: 1;"/></g><g class="point"><path d="M380.47,116.16V81.44H398.27V116.16Z" style="vector-effect: none; opacity: 1; stroke-width: 0.5px; fill: rgb(18, 67, 109); fill-opacity: 1; stroke: rgb(255, 255, 255); stroke-opacity: 1;"/></g><g class="point"><path d="M402.72,116.16V75.96H420.52V116.16Z" style="vector-effect: none; opacity: 1; stroke-width: 0.5px; fill: rgb(18, 67, 109); fill-opacity: 1; stroke: rgb(255, 255, 255); stroke-opacity: 1;"/></g><g class="point"><path d="M424.97,116.16V71.99H442.77V116.16Z" style="vector-effect: none; opacity: 1; stroke-width: 0.5px; fill: rgb(18, 67, 109); fill-opacity: 1; stroke: rgb(255, 255, 255); stroke-opacity: 1;"/></g><g class="point"><path d="M447.22,116.16V67.31H465.02V116.16Z" style="vector-effect: none; opacity: 1; stroke-width: 0.5px; fill: rgb(18, 67, 109); fill-opacity: 1; stroke: rgb(255, 255, 255); stroke-opacity: 1;"/></g><g class="point"><path d="M469.47,116.16V63.31H487.27V116.16Z" style="vector-effect: none; opacity: 1; stroke-width: 0.5px; fill: rgb(18, 67, 109); fill-opacity: 1; stroke: rgb(255, 255, 255); stroke-opacity: 1;"/></g><g class="point"><path d="M491.72,116.16V58.63H509.52V116.16Z" style="vector-effect: none; opacity: 1; stroke-width: 0.5px; fill: rgb(18, 67, 109); fill-opacity: 1; stroke: rgb(255, 255, 255); stroke-opacity: 1;"/></g><g class="point"><path d="M513.97,116.16V55.5H531.77V116.16Z" style="vector-effect: none; opacity: 1; stroke-width: 0.5px; fill: rgb(18, 67, 109); fill-opacity: 1; stroke: rgb(255, 255, 255); stroke-opacity: 1;"/></g></g></g><g class="trace bars" shape-rendering="crispEdges" style="opacity: 1;"><g class="points"><g class="point"><path d="M2.22,107.61V70.16H20.02V107.61Z" style="vector-effect: none; opacity: 1; stroke-width: 0.5px; fill: rgb(244, 106, 37); fill-opacity: 1; stroke: rgb(255, 255, 255); stroke-opacity: 1;"/></g><g class="point"><path d="M24.47,107.29V68.16H42.27V107.29Z" style="vector-effect: none; opacity: 1; stroke-width: 0.5px; fill: rgb(244, 106, 37); fill-opacity: 1; stroke: rgb(255, 255, 255); stroke-opacity: 1;"/></g><g class="point"><path d="M46.72,106.94V66.08H64.52V106.94Z" style="vector-effect: none; opacity: 1; stroke-width: 0.5px; fill: rgb(244, 106, 37); fill-opacity: 1; stroke: rgb(255, 255, 255); stroke-opacity: 1;"/></g><g class="point"><path d="M68.97,104.16V64.53H86.77V104.16Z" style="vector-effect: none; opacity: 1; stroke-width: 0.5px; fill: rgb(244, 106, 37); fill-opacity: 1; stroke: rgb(255, 255, 255); stroke-opacity: 1;"/></g><g class="point"><path d="M91.22,103.29V62.3H109.02V103.29Z" style="vector-effect: none; opacity: 1; stroke-width: 0.5px; fill: rgb(244, 106, 37); fill-opacity: 1; stroke: rgb(255, 255, 255); stroke-opacity: 1;"/></g><g class="point"><path d="M113.47,100.05V59.99H131.27V100.05Z" style="vector-effect: none; opacity: 1; stroke-width: 0.5px; fill: rgb(244, 106, 37); fill-opacity: 1; stroke: rgb(255, 255, 255); stroke-opacity: 1;"/></g><g class="point"><path d="M135.72,98.71V57.51H153.52V98.71Z" style="vector-effect: none; opacity: 1; stroke-width: 0.5px; fill: rgb(244, 106, 37); fill-opacity: 1; stroke: rgb(255, 255, 255); stroke-opacity: 1;"/></g><g class="point"><path d="M157.97,97.81V54.74H175.77V97.81Z" style="vector-effect: none; opacity: 1; stroke-width: 0.5px; fill: rgb(244, 106, 37); fill-opacity: 1; stroke: rgb(255, 255, 255); stroke-opacity: 1;"/></g><g class="point"><path d="M180.22,92.6V50.85H198.02V92.6Z" style="vector-effect: none; opacity: 1; stroke-width: 0.5px; fill: rgb(244, 106, 37); fill-opacity: 1; stroke: rgb(255, 255, 255); stroke-opacity: 1;"/></g><g class="point"><path d="M202.47,91.67V48.48H220.27V91.67Z" style="vector-effect: none; opacity: 1; stroke-width: 0.5px; fill: rgb(244, 106, 37); fill-opacity: 1; stroke: rgb(255, 255, 255); stroke-opacity: 1;"/></g><g class="point"><path d="M224.72,89.98V45.93H242.52V89.98Z" style="vector-effect: none; opacity: 1; stroke-width: 0.5px; fill: rgb(244, 106, 37); fill-opacity: 1; stroke: rgb(255, 255, 255); stroke-opacity: 1;"/></g><g class="point"><path d="M246.97,85.12V43.13H264.77V85.12Z" style="vector-effect: none; opacity: 1; stroke-width: 0.5px; fill: rgb(244, 106, 37); fill-opacity: 1; stroke: rgb(255, 255, 255); stroke-opacity: 1;"/></g><g class="point"><path d="M269.22,82.82V39.83H287.02V82.82Z" style="vector-effect: none; opacity: 1; stroke-width: 0.5px; fill: rgb(244, 106, 37); fill-opacity: 1; stroke: rgb(255, 255, 255); stroke-opacity: 1;"/></g><g class="point"><path d="M291.47,88.7V50.91H309.27V88.7Z" style="vector-effect: none; opacity: 1; stroke-width: 0.5px; fill: rgb(244, 106, 37); fill-opacity: 1; stroke: rgb(255, 255, 255); stroke-opacity: 1;"/></g><g class="point"><path d="M313.72,85.01V51.1H331.52V85.01Z" style="vector-effect: none; opacity: 1; stroke-width: 0.5px; fill: rgb(244, 106, 37); fill-opacity: 1; stroke: rgb(255, 255, 255); stroke-opacity: 1;"/></g><g class="point"><path d="M335.97,84.26V49.66H353.77V84.26Z" style="vector-effect: none; opacity: 1; stroke-width: 0.5px; fill: rgb(244, 106, 37); fill-opacity: 1; stroke: rgb(255, 255, 255); stroke-opacity: 1;"/></g><g class="point"><path d="M358.22,82.61V48.06H376.02V82.61Z" style="vector-effect: none; opacity: 1; stroke-width: 0.5px; fill: rgb(244, 106, 37); fill-opacity: 1; stroke: rgb(255, 255, 255); stroke-opacity: 1;"/></g><g class="point"><path d="M380.47,81.44V46.05H398.27V81.44Z" style="vector-effect: none; opacity: 1; stroke-width: 0.5px; fill: rgb(244, 106, 37); fill-opacity: 1; stroke: rgb(255, 255, 255); stroke-opacity: 1;"/></g><g class="point"><path d="M402.72,75.96V44.33H420.52V75.96Z" style="vector-effect: none; opacity: 1; stroke-width: 0.5px; fill: rgb(244, 106, 37); fill-opacity: 1; stroke: rgb(255, 255, 255); stroke-opacity: 1;"/></g><g class="point"><path d="M424.97,71.99V38.55H442.77V71.99Z" style="vector-effect: none; opacity: 1; stroke-width: 0.5px; fill: rgb(244, 106, 37); fill-opacity: 1; stroke: rgb(255, 255, 255); stroke-opacity: 1;"/></g><g class="point"><path d="M447.22,67.31V33.07H465.02V67.31Z" style="vector-effect: none; opacity: 1; stroke-width: 0.5px; fill: rgb(244, 106, 37); fill-opacity: 1; stroke: rgb(255, 255, 255); stroke-opacity: 1;"/></g><g class="point"><path d="M469.47,63.31V27.67H487.27V63.31Z" style="vector-effect: none; opacity: 1; stroke-width: 0.5px; fill: rgb(244, 106, 37); fill-opacity: 1; stroke: rgb(255, 255, 255); stroke-opacity: 1;"/></g><g class="point"><path d="M491.72,58.63V22.66H509.52V58.63Z" style="vector-effect: none; opacity: 1; stroke-width: 0.5px; fill: rgb(244, 106, 37); fill-opacity: 1; stroke: rgb(255, 255, 255); stroke-opacity: 1;"/></g><g class="point"><path d="M513.97,55.5V23H531.77V55.5Z" style="vector-effect: none; opacity: 1; stroke-width: 0.5px; fill: rgb(244, 106, 37); fill-opacity: 1; stroke: rgb(255, 255, 255); stroke-opacity: 1;"/></g></g></g><g class="trace bars" shape-rendering="crispEdges" style="opacity: 1;"><g class="points"><g class="point"><path d="M2.22,70.16V68.35H20.02V70.16Z" style="vector-effect: none; opacity: 1; stroke-width: 0.5px; fill: rgb(128, 22, 80); fill-opacity: 1; stroke: rgb(255, 255, 255); stroke-opacity: 1;"/></g><g class="point"><path d="M24.47,68.16V66.26H42.27V68.16Z" style="vector-effect: none; opacity: 1; stroke-width: 0.5px; fill: rgb(128, 22, 80); fill-opacity: 1; stroke: rgb(255, 255, 255); stroke-opacity: 1;"/></g><g class="point"><path d="M46.72,66.08V64.08H64.52V66.08Z" style="vector-effect: none; opacity: 1; stroke-width: 0.5px; fill: rgb(128, 22, 80); fill-opacity: 1; stroke: rgb(255, 255, 255); stroke-opacity: 1;"/></g><g class="point"><path d="M68.97,64.53V61.85H86.77V64.53Z" style="vector-effect: none; opacity: 1; stroke-width: 0.5px; fill: rgb(128, 22, 80); fill-opacity: 1; stroke: rgb(255, 255, 255); stroke-opacity: 1;"/></g><g class="point"><path d="M91.22,62.3V59.38H109.02V62.3Z" style="vector-effect: none; opacity: 1; stroke-width: 0.5px; fill: rgb(128, 22, 80); fill-opacity: 1; stroke: rgb(255, 255, 255); stroke-opacity: 1;"/></g><g class="point"><path d="M113.47,59.99V56.81H131.27V59.99Z" style="vector-effect: none; opacity: 1; stroke-width: 0.5px; fill: rgb(128, 22, 80); fill-opacity: 1; stroke: rgb(255, 255, 255); stroke-opacity: 1;"/></g><g class="point"><path d="M135.72,57.51V54.05H153.52V57.51Z" style="vector-effect: none; opacity: 1; stroke-width: 0.5px; fill: rgb(128, 22, 80); fill-opacity: 1; stroke: rgb(255, 255, 255); stroke-opacity: 1;"/></g><g class="point"><path d="M157.97,54.74V51.13H175.77V54.74Z" style="vector-effect: none; opacity: 1; stroke-width: 0.5px; fill: rgb(128, 22, 80); fill-opacity: 1; stroke: rgb(255, 255, 255); stroke-opacity: 1;"/></g><g class="point"><path d="M180.22,50.85V46.78H198.02V50.85Z" style="vector-effect: none; opacity: 1; stroke-width: 0.5px; fill: rgb(128, 22, 80); fill-opacity: 1; stroke: rgb(255, 255, 255); stroke-opacity: 1;"/></g><g class="point"><path d="M202.47,48.48V44.28H220.27V48.48Z" style="vector-effect: none; opacity: 1; stroke-width: 0.5px; fill: rgb(128, 22, 80); fill-opacity: 1; stroke: rgb(255, 255, 255); stroke-opacity: 1;"/></g><g class="point"><path d="M224.72,45.93V41.44H242.52V45.93Z" style="vector-effect: none; opacity: 1; stroke-width: 0.5px; fill: rgb(128, 22, 80); fill-opacity: 1; stroke: rgb(255, 255, 255); stroke-opacity: 1;"/></g><g class="point"><path d="M246.97,43.13V38.34H264.77V43.13Z" style="vector-effect: none; opacity: 1; stroke-width: 0.5px; fill: rgb(128, 22, 80); fill-opacity: 1; stroke: rgb(255, 255, 255); stroke-opacity: 1;"/></g><g class="point"><path d="M269.22,39.83V34.73H287.02V39.83Z" style="vector-effect: none; opacity: 1; stroke-width: 0.5px; fill: rgb(128, 22, 80); fill-opacity: 1; stroke: rgb(255, 255, 255); stroke-opacity: 1;"/></g><g class="point"><path d="M291.47,50.91V46.01H309.27V50.91Z" style="vector-effect: none; opacity: 1; stroke-width: 0.5px; fill: rgb(128, 22, 80); fill-opacity: 1; stroke: rgb(255, 255, 255); stroke-opacity: 1;"/></g><g class="point"><path d="M313.72,51.1V45.83H331.52V51.1Z" style="vector-effect: none; opacity: 1; stroke-width: 0.5px; fill: rgb(128, 22, 80); fill-opacity: 1; stroke: rgb(255, 255, 255); stroke-opacity: 1;"/></g><g class="point"><path d="M335.97,49.66V44.28H353.77V49.66Z" style="vector-effect: none; opacity: 1; stroke-width: 0.5px; fill: rgb(128, 22, 80); fill-opacity: 1; stroke: rgb(255, 255, 255); stroke-opacity: 1;"/></g><g class="point"><path d="M358.22,48.06V42.41H376.02V48.06Z" style="vector-effect: none; opacity: 1; stroke-width: 0.5px; fill: rgb(128, 22, 80); fill-opacity: 1; stroke: rgb(255, 255, 255); stroke-opacity: 1;"/></g><g class="point"><path d="M380.47,46.05V40.17H398.27V46.05Z" style="vector-effect: none; opacity: 1; stroke-width: 0.5px; fill: rgb(128, 22, 80); fill-opacity: 1; stroke: rgb(255, 255, 255); stroke-opacity: 1;"/></g><g class="point"><path d="M402.72,44.33V38.22H420.52V44.33Z" style="vector-effect: none; opacity: 1; stroke-width: 0.5px; fill: rgb(128, 22, 80); fill-opacity: 1; stroke: rgb(255, 255, 255); stroke-opacity: 1;"/></g><g class="point"><path d="M424.97,38.55V32.34H442.77V38.55Z" style="vector-effect: none; opacity: 1; stroke-width: 0.5px; fill: rgb(128, 22, 80); fill-opacity: 1; stroke: rgb(255, 255, 255); stroke-opacity: 1;"/></g><g class="point"><path d="M447.22,33.07V26.7H465.02V33.07Z" style="vector-effect: none; opacity: 1; stroke-width: 0.5px; fill: rgb(128, 22, 80); fill-opacity: 1; stroke: rgb(255, 255, 255); stroke-opacity: 1;"/></g><g class="point"><path d="M469.47,27.67V21.43H487.27V27.67Z" style="vector-effect: none; opacity: 1; stroke-width: 0.5px; fill: rgb(128, 22, 80); fill-opacity: 1; stroke: rgb(255, 255, 255); stroke-opacity: 1;"/></g><g class="point"><path d="M491.72,22.66V16.53H509.52V22.66Z" style="vector-effect: none; opacity: 1; stroke-width: 0.5px; fill: rgb(128, 22, 80); fill-opacity: 1; stroke: rgb(255, 255, 255); stroke-opacity: 1;"/></g><g class="point"><path d="M513.97,23V12.08H531.77V23Z" style="vector-effect: none; opacity: 1; stroke-width: 0.5px; fill: rgb(128, 22, 80); fill-opacity: 1; stroke: rgb(255, 255, 255); stroke-opacity: 1;"/></g></g></g></g></g></g><path class="xlines-above crisp" d="M85,342.5H620" style="fill: none; stroke-width: 1px; stroke: rgb(36, 36, 36); stroke-opacity: 1;"/><path class="ylines-above crisp" d="M85.5,225.84V342" style="fill: none; stroke-width: 1px; stroke: rgb(36, 36, 36); stroke-opacity: 1;"/><g class="overlines-above"/><g class="xaxislayer-above"><path class="x2tick ticks crisp" d="M0,343v5" transform="translate(97.13,0)" style="stroke: rgb(68, 68, 68); stroke-opacity: 1; stroke-width: 1px;"/><path class="x2tick ticks crisp" d="M0,343v5" transform="translate(141.63,0)" style="stroke: rgb(68, 68, 68); stroke-opacity: 1; stroke-width: 1px;"/><path class="x2tick ticks crisp" d="M0,343v5" transform="translate(186.13,0)" style="stroke: rgb(68, 68, 68); stroke-opacity: 1; stroke-width: 1px;"/><path class="x2tick ticks crisp" d="M0,343v5" transform="translate(230.63,0)" style="stroke: rgb(68, 68, 68); stroke-opacity: 1; stroke-width: 1px;"/><path class="x2tick ticks crisp" d="M0,343v5" transform="translate(275.13,0)" style="stroke: rgb(68, 68, 68); stroke-opacity: 1; stroke-width: 1px;"/><path class="x2tick ticks crisp" d="M0,343v5" transform="translate(319.63,0)" style="stroke: rgb(68, 68, 68); stroke-opacity: 1; stroke-width: 1px;"/><path class="x2tick ticks crisp" d="M0,343v5" transform="translate(364.13,0)" style="stroke: rgb(68, 68, 68); stroke-opacity: 1; stroke-width: 1px;"/><path class="x2tick ticks crisp" d="M0,343v5" transform="translate(408.63,0)" style="stroke: rgb(68, 68, 68); stroke-opacity: 1; stroke-width: 1px;"/><path class="x2tick ticks crisp" d="M0,343v5" transform="translate(453.13,0)" style="stroke: rgb(68, 68, 68); stroke-opacity: 1; stroke-width: 1px;"/><path class="x2tick ticks crisp" d="M0,343v5" transform="translate(497.63,0)" style="stroke: rgb(68, 68, 68); stroke-opacity: 1; stroke-width: 1px;"/><path class="x2tick ticks crisp" d="M0,343v5" transform="translate(542.13,0)" style="stroke: rgb(68, 68, 68); stroke-opacity: 1; stroke-width: 1px;"/><path class="x2tick ticks crisp" d="M0,343v5" transform="translate(586.63,0)" style="stroke: rgb(68, 68, 68); stroke-opacity: 1; stroke-width: 1px;"/><g class="x2tick"><text text-anchor="middle" x="0" y="362.4" transform="translate(97.13,0)" style="font-family: 'Open Sans', verdana, arial, sans-serif; font-size: 12px; fill: rgb(36, 36, 36); fill-opacity: 1; white-space: pre; opacity: 1;">2000</text></g><g class="x2tick"><text text-anchor="middle" x="0" y="362.4" style="font-family: 'Open Sans', verdana, arial, sans-serif; font-size: 12px; fill: rgb(36, 36, 36); fill-opacity: 1; white-space: pre; opacity: 1;" transform="translate(141.63,0)">2002</text></g><g class="x2tick"><text text-anchor="middle" x="0" y="362.4" style="font-family: 'Open Sans', verdana, arial, sans-serif; font-size: 12px; fill: rgb(36, 36, 36); fill-opacity: 1; white-space: pre; opacity: 1;" transform="translate(186.13,0)">2004</text></g><g class="x2tick"><text text-anchor="middle" x="0" y="362.4" style="font-family: 'Open Sans', verdana, arial, sans-serif; font-size: 12px; fill: rgb(36, 36, 36); fill-opacity: 1; white-space: pre; opacity: 1;" transform="translate(230.63,0)">2006</text></g><g class="x2tick"><text text-anchor="middle" x="0" y="362.4" style="font-family: 'Open Sans', verdana, arial, sans-serif; font-size: 12px; fill: rgb(36, 36, 36); fill-opacity: 1; white-space: pre; opacity: 1;" transform="translate(275.13,0)">2008</text></g><g class="x2tick"><text text-anchor="middle" x="0" y="362.4" style="font-family: 'Open Sans', verdana, arial, sans-serif; font-size: 12px; fill: rgb(36, 36, 36); fill-opacity: 1; white-space: pre; opacity: 1;" transform="translate(319.63,0)">2010</text></g><g class="x2tick"><text text-anchor="middle" x="0" y="362.4" style="font-family: 'Open Sans', verdana, arial, sans-serif; font-size: 12px; fill: rgb(36, 36, 36); fill-opacity: 1; white-space: pre; opacity: 1;" transform="translate(364.13,0)">2012</text></g><g class="x2tick"><text text-anchor="middle" x="0" y="362.4" style="font-family: 'Open Sans', verdana, arial, sans-serif; font-size: 12px; fill: rgb(36, 36, 36); fill-opacity: 1; white-space: pre; opacity: 1;" transform="translate(408.63,0)">2014</text></g><g class="x2tick"><text text-anchor="middle" x="0" y="362.4" style="font-family: 'Open Sans', verdana, arial, sans-serif; font-size: 12px; fill: rgb(36, 36, 36); fill-opacity: 1; white-space: pre; opacity: 1;" transform="translate(453.13,0)">2016</text></g><g class="x2tick"><text text-anchor="middle" x="0" y="362.4" style="font-family: 'Open Sans', verdana, arial, sans-serif; font-size: 12px; fill: rgb(36, 36, 36); fill-opacity: 1; white-space: pre; opacity: 1;" transform="translate(497.63,0)">2018</text></g><g class="x2tick"><text text-anchor="middle" x="0" y="362.4" style="font-family: 'Open Sans', verdana, arial, sans-serif; font-size: 12px; fill: rgb(36, 36, 36); fill-opacity: 1; white-space: pre; opacity: 1;" transform="translate(542.13,0)">2020</text></g><g class="x2tick"><text text-anchor="middle" x="0" y="362.4" style="font-family: 'Open Sans', verdana, arial, sans-serif; font-size: 12px; fill: rgb(36, 36, 36); fill-opacity: 1; white-space: pre; opacity: 1;" transform="translate(586.63,0)">2022</text></g></g><g class="yaxislayer-above"><path class="y2tick ticks crisp" d="M85,0h-5" transform="translate(0,342)" style="stroke: rgb(68, 68, 68); stroke-opacity: 1; stroke-width: 1px;"/><path class="y2tick ticks crisp" d="M85,0h-5" transform="translate(0,306.26)" style="stroke: rgb(68, 68, 68); stroke-opacity: 1; stroke-width: 1px;"/><path class="y2tick ticks crisp" d="M85,0h-5" transform="translate(0,270.52)" style="stroke: rgb(68, 68, 68); stroke-opacity: 1; stroke-width: 1px;"/><path class="y2tick ticks crisp" d="M85,0h-5" transform="translate(0,234.78)" style="stroke: rgb(68, 68, 68); stroke-opacity: 1; stroke-width: 1px;"/><g class="y2tick"><text text-anchor="end" x="77.6" y="4.199999999999999" transform="translate(0,342)" style="font-family: 'Open Sans', verdana, arial, sans-serif; font-size: 12px; fill: rgb(36, 36, 36); fill-opacity: 1; white-space: pre; opacity: 1;">0</text></g><g class="y2tick"><text text-anchor="end" x="77.6" y="4.199999999999999" style="font-family: 'Open Sans', verdana, arial, sans-serif; font-size: 12px; fill: rgb(36, 36, 36); fill-opacity: 1; white-space: pre; opacity: 1;" transform="translate(0,306.26)">200</text></g><g class="y2tick"><text text-anchor="end" x="77.6" y="4.199999999999999" style="font-family: 'Open Sans', verdana, arial, sans-serif; font-size: 12px; fill: rgb(36, 36, 36); fill-opacity: 1; white-space: pre; opacity: 1;" transform="translate(0,270.52)">400</text></g><g class="y2tick"><text text-anchor="end" x="77.6" y="4.199999999999999" style="font-family: 'Open Sans', verdana, arial, sans-serif; font-size: 12px; fill: rgb(36, 36, 36); fill-opacity: 1; white-space: pre; opacity: 1;" transform="translate(0,234.78)">600</text></g></g><g class="overaxes-above"/></g></g><g class="polarlayer"/><g class="smithlayer"/><g class="ternarylayer"/><g class="geolayer"/><g class="funnelarealayer"/><g class="pielayer"/><g class="iciclelayer"/><g class="treemaplayer"/><g class="sunburstlayer"/><g class="glimages"/><defs id="topdefs-74f976"><g class="clips"/><clipPath id="legend74f976"><rect width="185" height="86" x="0" y="0"/></clipPath></defs><g class="layer-above"><g class="imagelayer"/><g class="shapelayer"/></g><g class="infolayer"><g class="legend" pointer-events="all" transform="translate(260.5,401.20000000000005)"><rect class="bg" shape-rendering="crispEdges" style="stroke: rgb(68, 68, 68); stroke-opacity: 1; fill: rgb(255, 255, 255); fill-opacity: 1; stroke-width: 0px;" width="185" height="86" x="0" y="0"/><g class="scrollbox" transform="" clip-path="url(#legend74f976)"><g class="groups"><g class="traces" transform="translate(0,14.5)" style="opacity: 1;"><text class="legendtext" text-anchor="start" x="40" y="4.680000000000001" style="font-family: 'Open Sans', verdana, arial, sans-serif; font-size: 12px; fill: rgb(36, 36, 36); fill-opacity: 1; white-space: pre;">Percentage incinerated</text><g class="layers" style="opacity: 1;"><g class="legendfill"/><g class="legendlines"><path class="js-line" d="M5,0h30" style="fill: none; stroke: rgb(18, 67, 109); stroke-opacity: 1; stroke-width: 2px;"/></g><g class="legendsymbols"><g class="legendpoints"><path class="scatterpts" transform="translate(20,0)" d="M3,0A3,3 0 1,1 0,-3A3,3 0 0,1 3,0Z" style="opacity: 1; stroke-width: 0px; fill: rgb(18, 67, 109); fill-opacity: 1;"/></g></g></g><rect class="legendtoggle" x="0" y="-9.5" width="179.171875" height="19" style="fill: rgb(0, 0, 0); fill-opacity: 0;"/></g><g class="traces" transform="translate(0,33.5)" style="opacity: 1;"><text class="legendtext" text-anchor="start" x="40" y="4.680000000000001" style="font-family: 'Open Sans', verdana, arial, sans-serif; font-size: 12px; fill: rgb(36, 36, 36); fill-opacity: 1; white-space: pre;">Recycled (tonnes)</text><g class="layers" style="opacity: 1;"><g class="legendfill"/><g class="legendlines"/><g class="legendsymbols"><g class="legendpoints"><path class="legendundefined" d="M6,6H-6V-6H6Z" transform="translate(20,0)" style="stroke-width: 0.5px; fill: rgb(128, 22, 80); fill-opacity: 1; stroke: rgb(255, 255, 255); stroke-opacity: 1;"/></g></g></g><rect class="legendtoggle" x="0" y="-9.5" width="179.171875" height="19" style="fill: rgb(0, 0, 0); fill-opacity: 0;"/></g><g class="traces" transform="translate(0,52.5)" style="opacity: 1;"><text class="legendtext" text-anchor="start" x="40" y="4.680000000000001" style="font-family: 'Open Sans', verdana, arial, sans-serif; font-size: 12px; fill: rgb(36, 36, 36); fill-opacity: 1; white-space: pre;">Landfill (tonnes)</text><g class="layers" style="opacity: 1;"><g class="legendfill"/><g class="legendlines"/><g class="legendsymbols"><g class="legendpoints"><path class="legendundefined" d="M6,6H-6V-6H6Z" transform="translate(20,0)" style="stroke-width: 0.5px; fill: rgb(244, 106, 37); fill-opacity: 1; stroke: rgb(255, 255, 255); stroke-opacity: 1;"/></g></g></g><rect class="legendtoggle" x="0" y="-9.5" width="179.171875" height="19" style="fill: rgb(0, 0, 0); fill-opacity: 0;"/></g><g class="traces" transform="translate(0,71.5)" style="opacity: 1;"><text class="legendtext" text-anchor="start" x="40" y="4.680000000000001" style="font-family: 'Open Sans', verdana, arial, sans-serif; font-size: 12px; fill: rgb(36, 36, 36); fill-opacity: 1; white-space: pre;">Incinerated (tonnes)</text><g class="layers" style="opacity: 1;"><g class="legendfill"/><g class="legendlines"/><g class="legendsymbols"><g class="legendpoints"><path class="legendundefined" d="M6,6H-6V-6H6Z" transform="translate(20,0)" style="stroke-width: 0.5px; fill: rgb(18, 67, 109); fill-opacity: 1; stroke: rgb(255, 255, 255); stroke-opacity: 1;"/></g></g></g><rect class="legendtoggle" x="0" y="-9.5" width="179.171875" height="19" style="fill: rgb(0, 0, 0); fill-opacity: 0;"/></g></g></g><rect class="scrollbar" rx="20" ry="3" width="0" height="0" style="fill: rgb(128, 139, 164); fill-opacity: 1;" x="0" y="0"/></g><g class="g-gtitle"/><g class="g-xtitle"/><g class="g-x2title"/><g class="g-ytitle"><text class="ytitle" transform="rotate(-90,24.728125000000006,158.07999999999998)" x="24.728125000000006" y="158.07999999999998" text-anchor="middle" style="opacity: 1; font-family: 'Open Sans', verdana, arial, sans-serif; font-size: 14px; fill: rgb(36, 36, 36); fill-opacity: 1; white-space: pre;"><tspan class="line" dy="0em" x="24.728125000000006" y="158.07999999999998">Percentage</tspan><tspan class="line" dy="1.3em" x="24.728125000000006" y="158.07999999999998">incinerated</tspan></text></g><g class="g-y2title"><text class="y2title" transform="rotate(-90,17.087500000000006,283.92)" x="17.087500000000006" y="283.92" text-anchor="middle" style="opacity: 1; font-family: 'Open Sans', verdana, arial, sans-serif; font-size: 14px; fill: rgb(36, 36, 36); fill-opacity: 1; white-space: pre;"><tspan class="line" dy="0em" x="17.087500000000006" y="283.92">HBCDD</tspan><tspan class="line" dy="1.3em" x="17.087500000000006" y="283.92">(tonnes)</tspan></text></g></g></svg>