<svg class="main-svg" xmlns="http://www.w3.org/2000/svg" xmlns:xlink="http://www.w3.org/1999/xlink" width="700" height="500" style="" viewBox="0 0 700 500"><rect x="0" y="0" width="700" height="500" style="fill: rgb(255, 255, 255); fill-opacity: 1;"/><defs id="defs-bbdea9"><g class="clips"><clipPath id="clipbbdea9xyplot" class="plotclip"><rect width="507.59999999999997" height="242"/></clipPath><clipPath id="clipbbdea9xy2plot" class="plotclip"><rect width="507.59999999999997" height="242"/></clipPath><clipPath class="axesclip" id="clipbbdea9x"><rect x="80" y="0" width="507.59999999999997" height="500"/></clipPath><clipPath class="axesclip" id="clipbbdea9y"><rect x="0" y="100" width="700" height="242"/></clipPath><clipPath class="axesclip" id="clipbbdea9xy"><rect x="80" y="100" width="507.59999999999997" height="242"/></clipPath><clipPath class="axesclip" id="clipbbdea9y2"><rect x="0" y="100" width="700" height="242"/></clipPath><clipPath class="axesclip" id="clipbbdea9xy2"><rect x="80" y="100" width="507.59999999999997" height="242"/></clipPath></g><g class="gradients"/><g class="patterns"/></defs><g class="bglayer"/><g class="layer-below"><g class="imagelayer"/><g class="shapelayer"/></g><g class="cartesianlayer"><g class="subplot xy"><g class="layer-subplot"><g class="shapelayer"/><g class="imagelayer"/></g><g class="minor-gridlayer"><g class="x"/><g class="y"/><g class="y2"/></g><g class="gridlayer"><g class="x"/><g class="y"><path class="ygrid crisp" transform="translate(0,307.43)" d="M80,0h507.59999999999997" style="stroke: rgb(232, 232, 232); stroke-opacity: 1; stroke-width: 1px;"/><path class="ygrid crisp" transform="translate(0,272.86)" d="M80,0h507.59999999999997" style="stroke: rgb(232, 232, 232); stroke-opacity: 1; stroke-width: 1px;"/><path class="ygrid crisp" transform="translate(0,238.29)" d="M80,0h507.59999999999997" style="stroke: rgb(232, 232, 232); stroke-opacity: 1; stroke-width: 1px;"/><path class="ygrid crisp" transform="translate(0,203.70999999999998)" d="M80,0h507.59999999999997" style="stroke: rgb(232, 232, 232); stroke-opacity: 1; stroke-width: 1px;"/><path class="ygrid crisp" transform="translate(0,169.14)" d="M80,0h507.59999999999997" style="stroke: rgb(232, 232, 232); stroke-opacity: 1; stroke-width: 1px;"/><path class="ygrid crisp" transform="translate(0,134.57)" d="M80,0h507.59999999999997" style="stroke: rgb(232, 232, 232); stroke-opacity: 1; stroke-width: 1px;"/></g><g class="y2"/></g><g class="zerolinelayer"/><g class="layer-between"><g class="shapelayer"/><g class="imagelayer"/></g><path class="xlines-below"/><path class="ylines-below"/><g class="overlines-below"><path class="xy2-x"/><path class="xy2-y"/></g><g class="xaxislayer-below"/><g class="yaxislayer-below"/><g class="overaxes-below"><g class="xy2-x"/><g class="xy2-y"/></g><g class="plot" transform="translate(80,100)" clip-path="url(#clipbbdea9xyplot)"><g class="barlayer mlayer"><g class="trace bars" shape-rendering="crispEdges" style="opacity: 1;"><g class="points"><g class="point"><path d="M4.23,242V218.5H38.07V242Z" style="vector-effect: none; opacity: 1; stroke-width: 0.5px; fill: rgb(18, 67, 109); fill-opacity: 1; stroke: rgb(255, 255, 255); stroke-opacity: 1;"/></g><g class="point"><path d="M46.53,242V220.85H80.37V242Z" style="vector-effect: none; opacity: 1; stroke-width: 0.5px; fill: rgb(18, 67, 109); fill-opacity: 1; stroke: rgb(255, 255, 255); stroke-opacity: 1;"/></g><g class="point"><path d="M88.83,242V219.6H122.67V242Z" style="vector-effect: none; opacity: 1; stroke-width: 0.5px; fill: rgb(18, 67, 109); fill-opacity: 1; stroke: rgb(255, 255, 255); stroke-opacity: 1;"/></g><g class="point"><path d="M131.13,242V192.99H164.97V242Z" style="vector-effect: none; opacity: 1; stroke-width: 0.5px; fill: rgb(18, 67, 109); fill-opacity: 1; stroke: rgb(255, 255, 255); stroke-opacity: 1;"/></g><g class="point"><path d="M173.43,242V181.09H207.27V242Z" style="vector-effect: none; opacity: 1; stroke-width: 0.5px; fill: rgb(18, 67, 109); fill-opacity: 1; stroke: rgb(255, 255, 255); stroke-opacity: 1;"/></g><g class="point"><path d="M215.73,242V176.26H249.57V242Z" style="vector-effect: none; opacity: 1; stroke-width: 0.5px; fill: rgb(18, 67, 109); fill-opacity: 1; stroke: rgb(255, 255, 255); stroke-opacity: 1;"/></g><g class="point"><path d="M258.03,242V170.58H291.87V242Z" style="vector-effect: none; opacity: 1; stroke-width: 0.5px; fill: rgb(18, 67, 109); fill-opacity: 1; stroke: rgb(255, 255, 255); stroke-opacity: 1;"/></g><g class="point"><path d="M300.33,242V177.89H334.17V242Z" style="vector-effect: none; opacity: 1; stroke-width: 0.5px; fill: rgb(18, 67, 109); fill-opacity: 1; stroke: rgb(255, 255, 255); stroke-opacity: 1;"/></g><g class="point"><path d="M342.63,242V168.28H376.47V242Z" style="vector-effect: none; opacity: 1; stroke-width: 0.5px; fill: rgb(18, 67, 109); fill-opacity: 1; stroke: rgb(255, 255, 255); stroke-opacity: 1;"/></g><g class="point"><path d="M384.93,242V196.01H418.77V242Z" style="vector-effect: none; opacity: 1; stroke-width: 0.5px; fill: rgb(18, 67, 109); fill-opacity: 1; stroke: rgb(255, 255, 255); stroke-opacity: 1;"/></g><g class="point"><path d="M427.23,242V178.41H461.07V242Z" style="vector-effect: none; opacity: 1; stroke-width: 0.5px; fill: rgb(18, 67, 109); fill-opacity: 1; stroke: rgb(255, 255, 255); stroke-opacity: 1;"/></g><g class="point"><path d="M469.53,242V205.34H503.37V242Z" style="vector-effect: none; opacity: 1; stroke-width: 0.5px; fill: rgb(18, 67, 109); fill-opacity: 1; stroke: rgb(255, 255, 255); stroke-opacity: 1;"/></g></g></g><g class="trace bars" shape-rendering="crispEdges" style="opacity: 1;"><g class="points"><g class="point"><path d="M4.23,218.5V104.17H38.07V218.5Z" style="vector-effect: none; opacity: 1; stroke-width: 0.5px; fill: rgb(244, 106, 37); fill-opacity: 1; stroke: rgb(255, 255, 255); stroke-opacity: 1;"/></g><g class="point"><path d="M46.53,220.85V118.18H80.37V220.85Z" style="vector-effect: none; opacity: 1; stroke-width: 0.5px; fill: rgb(244, 106, 37); fill-opacity: 1; stroke: rgb(255, 255, 255); stroke-opacity: 1;"/></g><g class="point"><path d="M88.83,219.6V91.04H122.67V219.6Z" style="vector-effect: none; opacity: 1; stroke-width: 0.5px; fill: rgb(244, 106, 37); fill-opacity: 1; stroke: rgb(255, 255, 255); stroke-opacity: 1;"/></g><g class="point"><path d="M131.13,192.99V81.49H164.97V192.99Z" style="vector-effect: none; opacity: 1; stroke-width: 0.5px; fill: rgb(244, 106, 37); fill-opacity: 1; stroke: rgb(255, 255, 255); stroke-opacity: 1;"/></g><g class="point"><path d="M173.43,181.09V105.37H207.27V181.09Z" style="vector-effect: none; opacity: 1; stroke-width: 0.5px; fill: rgb(244, 106, 37); fill-opacity: 1; stroke: rgb(255, 255, 255); stroke-opacity: 1;"/></g><g class="point"><path d="M215.73,176.26V115.2H249.57V176.26Z" style="vector-effect: none; opacity: 1; stroke-width: 0.5px; fill: rgb(244, 106, 37); fill-opacity: 1; stroke: rgb(255, 255, 255); stroke-opacity: 1;"/></g><g class="point"><path d="M258.03,170.58V128.73H291.87V170.58Z" style="vector-effect: none; opacity: 1; stroke-width: 0.5px; fill: rgb(244, 106, 37); fill-opacity: 1; stroke: rgb(255, 255, 255); stroke-opacity: 1;"/></g><g class="point"><path d="M300.33,177.89V134.49H334.17V177.89Z" style="vector-effect: none; opacity: 1; stroke-width: 0.5px; fill: rgb(244, 106, 37); fill-opacity: 1; stroke: rgb(255, 255, 255); stroke-opacity: 1;"/></g><g class="point"><path d="M342.63,168.28V128.93H376.47V168.28Z" style="vector-effect: none; opacity: 1; stroke-width: 0.5px; fill: rgb(244, 106, 37); fill-opacity: 1; stroke: rgb(255, 255, 255); stroke-opacity: 1;"/></g><g class="point"><path d="M384.93,196.01V154.14H418.77V196.01Z" style="vector-effect: none; opacity: 1; stroke-width: 0.5px; fill: rgb(244, 106, 37); fill-opacity: 1; stroke: rgb(255, 255, 255); stroke-opacity: 1;"/></g><g class="point"><path d="M427.23,178.41V135.04H461.07V178.41Z" style="vector-effect: none; opacity: 1; stroke-width: 0.5px; fill: rgb(244, 106, 37); fill-opacity: 1; stroke: rgb(255, 255, 255); stroke-opacity: 1;"/></g><g class="point"><path d="M469.53,205.34V178.31H503.37V205.34Z" style="vector-effect: none; opacity: 1; stroke-width: 0.5px; fill: rgb(244, 106, 37); fill-opacity: 1; stroke: rgb(255, 255, 255); stroke-opacity: 1;"/></g></g></g><g class="trace bars" shape-rendering="crispEdges" style="opacity: 1;"><g class="points"><g class="point"><path d="M4.23,104.17V72.46H38.07V104.17Z" style="vector-effect: none; opacity: 1; stroke-width: 0.5px; fill: rgb(61, 61, 61); fill-opacity: 1; stroke: rgb(255, 255, 255); stroke-opacity: 1;"/></g><g class="point"><path d="M46.53,118.18V74.32H80.37V118.18Z" style="vector-effect: none; opacity: 1; stroke-width: 0.5px; fill: rgb(61, 61, 61); fill-opacity: 1; stroke: rgb(255, 255, 255); stroke-opacity: 1;"/></g><g class="point"><path d="M88.83,91.04V48.89H122.67V91.04Z" style="vector-effect: none; opacity: 1; stroke-width: 0.5px; fill: rgb(61, 61, 61); fill-opacity: 1; stroke: rgb(255, 255, 255); stroke-opacity: 1;"/></g><g class="point"><path d="M131.13,81.49V45.25H164.97V81.49Z" style="vector-effect: none; opacity: 1; stroke-width: 0.5px; fill: rgb(61, 61, 61); fill-opacity: 1; stroke: rgb(255, 255, 255); stroke-opacity: 1;"/></g><g class="point"><path d="M173.43,105.37V67.66H207.27V105.37Z" style="vector-effect: none; opacity: 1; stroke-width: 0.5px; fill: rgb(61, 61, 61); fill-opacity: 1; stroke: rgb(255, 255, 255); stroke-opacity: 1;"/></g><g class="point"><path d="M215.73,115.2V74.28H249.57V115.2Z" style="vector-effect: none; opacity: 1; stroke-width: 0.5px; fill: rgb(61, 61, 61); fill-opacity: 1; stroke: rgb(255, 255, 255); stroke-opacity: 1;"/></g><g class="point"><path d="M258.03,128.73V85.87H291.87V128.73Z" style="vector-effect: none; opacity: 1; stroke-width: 0.5px; fill: rgb(61, 61, 61); fill-opacity: 1; stroke: rgb(255, 255, 255); stroke-opacity: 1;"/></g><g class="point"><path d="M300.33,134.49V92.87H334.17V134.49Z" style="vector-effect: none; opacity: 1; stroke-width: 0.5px; fill: rgb(61, 61, 61); fill-opacity: 1; stroke: rgb(255, 255, 255); stroke-opacity: 1;"/></g><g class="point"><path d="M342.63,128.93V93.34H376.47V128.93Z" style="vector-effect: none; opacity: 1; stroke-width: 0.5px; fill: rgb(61, 61, 61); fill-opacity: 1; stroke: rgb(255, 255, 255); stroke-opacity: 1;"/></g><g class="point"><path d="M384.93,154.14V132.56H418.77V154.14Z" style="vector-effect: none; opacity: 1; stroke-width: 0.5px; fill: rgb(61, 61, 61); fill-opacity: 1; stroke: rgb(255, 255, 255); stroke-opacity: 1;"/></g><g class="point"><path d="M427.23,135.04V110.97H461.07V135.04Z" style="vector-effect: none; opacity: 1; stroke-width: 0.5px; fill: rgb(61, 61, 61); fill-opacity: 1; stroke: rgb(255, 255, 255); stroke-opacity: 1;"/></g><g class="point"><path d="M469.53,178.31V154.21H503.37V178.31Z" style="vector-effect: none; opacity: 1; stroke-width: 0.5px; fill: rgb(61, 61, 61); fill-opacity: 1; stroke: rgb(255, 255, 255); stroke-opacity: 1;"/></g></g></g></g></g><g class="overplot"><g class="xy2" transform="translate(80,100)" clip-path="url(#clipbbdea9xy2plot)"><g class="scatterlayer mlayer"><g class="trace scatter trace66e340" style="stroke-miterlimit: 2; opacity: 1;"><g class="fills"/><g class="errorbars"/><g class="lines"><path class="js-line" d="M21.15,174.9L63.45,180.95L105.75,185.87L148.05,121.45L190.35,72.9L232.65,52.28L274.95,20.59L317.25,33.93L359.55,1.97L401.85,38.6L444.15,7.09L486.45,39.89" style="vector-effect: none; fill: none; stroke: rgb(63, 148, 222); stroke-opacity: 1; stroke-width: 2px; opacity: 1;"/></g><g class="points"><path class="point" transform="translate(21.15,174.9)" d="M3,0A3,3 0 1,1 0,-3A3,3 0 0,1 3,0Z" style="opacity: 1; stroke-width: 0px; fill: rgb(63, 148, 222); fill-opacity: 1;"/><path class="point" transform="translate(63.45,180.95)" d="M3,0A3,3 0 1,1 0,-3A3,3 0 0,1 3,0Z" style="opacity: 1; stroke-width: 0px; fill: rgb(63, 148, 222); fill-opacity: 1;"/><path class="point" transform="translate(105.75,185.87)" d="M3,0A3,3 0 1,1 0,-3A3,3 0 0,1 3,0Z" style="opacity: 1; stroke-width: 0px; fill: rgb(63, 148, 222); fill-opacity: 1;"/><path class="point" transform="translate(148.05,121.45)" d="M3,0A3,3 0 1,1 0,-3A3,3 0 0,1 3,0Z" style="opacity: 1; stroke-width: 0px; fill: rgb(63, 148, 222); fill-opacity: 1;"/><path class="point" transform="translate(190.35,72.9)" d="M3,0A3,3 0 1,1 0,-3A3,3 0 0,1 3,0Z" style="opacity: 1; stroke-width: 0px; fill: rgb(63, 148, 222); fill-opacity: 1;"/><path class="point" transform="translate(232.65,52.28)" d="M3,0A3,3 0 1,1 0,-3A3,3 0 0,1 3,0Z" style="opacity: 1; stroke-width: 0px; fill: rgb(63, 148, 222); fill-opacity: 1;"/><path class="point" transform="translate(274.95,20.59)" d="M3,0A3,3 0 1,1 0,-3A3,3 0 0,1 3,0Z" style="opacity: 1; stroke-width: 0px; fill: rgb(63, 148, 222); fill-opacity: 1;"/><path class="point" transform="translate(317.25,33.93)" d="M3,0A3,3 0 1,1 0,-3A3,3 0 0,1 3,0Z" style="opacity: 1; stroke-width: 0px; fill: rgb(63, 148, 222); fill-opacity: 1;"/><path class="point" transform="translate(359.55,1.97)" d="M3,0A3,3 0 1,1 0,-3A3,3 0 0,1 3,0Z" style="opacity: 1; stroke-width: 0px; fill: rgb(63, 148, 222); fill-opacity: 1;"/><path class="point" transform="translate(401.85,38.6)" d="M3,0A3,3 0 1,1 0,-3A3,3 0 0,1 3,0Z" style="opacity: 1; stroke-width: 0px; fill: rgb(63, 148, 222); fill-opacity: 1;"/><path class="point" transform="translate(444.15,7.09)" d="M3,0A3,3 0 1,1 0,-3A3,3 0 0,1 3,0Z" style="opacity: 1; stroke-width: 0px; fill: rgb(63, 148, 222); fill-opacity: 1;"/><path class="point" transform="translate(486.45,39.89)" d="M3,0A3,3 0 1,1 0,-3A3,3 0 0,1 3,0Z" style="opacity: 1; stroke-width: 0px; fill: rgb(63, 148, 222); fill-opacity: 1;"/></g><g class="text"/></g></g></g></g><path class="xlines-above crisp" d="M79,342.5H588.5999999999999" style="fill: none; stroke-width: 1px; stroke: rgb(36, 36, 36); stroke-opacity: 1;"/><path class="ylines-above crisp" d="M79.5,100V342" style="fill: none; stroke-width: 1px; stroke: rgb(36, 36, 36); stroke-opacity: 1;"/><g class="overlines-above"><path class="xy2-x crisp" d="M0,0" style="fill: none;"/><path class="xy2-y crisp" d="M588.0999999999999,100V342" style="fill: none; stroke-width: 1px; stroke: rgb(36, 36, 36); stroke-opacity: 1;"/></g><g class="xaxislayer-above"><path class="xtick ticks crisp" d="M0,343v5" transform="translate(101.15,0)" style="stroke: rgb(68, 68, 68); stroke-opacity: 1; stroke-width: 1px;"/><path class="xtick ticks crisp" d="M0,343v5" transform="translate(143.45,0)" style="stroke: rgb(68, 68, 68); stroke-opacity: 1; stroke-width: 1px;"/><path class="xtick ticks crisp" d="M0,343v5" transform="translate(185.75,0)" style="stroke: rgb(68, 68, 68); stroke-opacity: 1; stroke-width: 1px;"/><path class="xtick ticks crisp" d="M0,343v5" transform="translate(228.05,0)" style="stroke: rgb(68, 68, 68); stroke-opacity: 1; stroke-width: 1px;"/><path class="xtick ticks crisp" d="M0,343v5" transform="translate(270.35,0)" style="stroke: rgb(68, 68, 68); stroke-opacity: 1; stroke-width: 1px;"/><path class="xtick ticks crisp" d="M0,343v5" transform="translate(312.65,0)" style="stroke: rgb(68, 68, 68); stroke-opacity: 1; stroke-width: 1px;"/><path class="xtick ticks crisp" d="M0,343v5" transform="translate(354.95,0)" style="stroke: rgb(68, 68, 68); stroke-opacity: 1; stroke-width: 1px;"/><path class="xtick ticks crisp" d="M0,343v5" transform="translate(397.25,0)" style="stroke: rgb(68, 68, 68); stroke-opacity: 1; stroke-width: 1px;"/><path class="xtick ticks crisp" d="M0,343v5" transform="translate(439.55,0)" style="stroke: rgb(68, 68, 68); stroke-opacity: 1; stroke-width: 1px;"/><path class="xtick ticks crisp" d="M0,343v5" transform="translate(481.85,0)" style="stroke: rgb(68, 68, 68); stroke-opacity: 1; stroke-width: 1px;"/><path class="xtick ticks crisp" d="M0,343v5" transform="translate(524.15,0)" style="stroke: rgb(68, 68, 68); stroke-opacity: 1; stroke-width: 1px;"/><path class="xtick ticks crisp" d="M0,343v5" transform="translate(566.45,0)" style="stroke: rgb(68, 68, 68); stroke-opacity: 1; stroke-width: 1px;"/><g class="xtick"><text text-anchor="middle" x="0" y="362.4" transform="translate(101.15,0)" style="font-family: 'Open Sans', verdana, arial, sans-serif; font-size: 12px; fill: rgb(36, 36, 36); fill-opacity: 1; white-space: pre; opacity: 1;">2009</text></g><g class="xtick"><text text-anchor="middle" x="0" y="362.4" style="font-family: 'Open Sans', verdana, arial, sans-serif; font-size: 12px; fill: rgb(36, 36, 36); fill-opacity: 1; white-space: pre; opacity: 1;" transform="translate(143.45,0)">2010</text></g><g class="xtick"><text text-anchor="middle" x="0" y="362.4" style="font-family: 'Open Sans', verdana, arial, sans-serif; font-size: 12px; fill: rgb(36, 36, 36); fill-opacity: 1; white-space: pre; opacity: 1;" transform="translate(185.75,0)">2011</text></g><g class="xtick"><text text-anchor="middle" x="0" y="362.4" style="font-family: 'Open Sans', verdana, arial, sans-serif; font-size: 12px; fill: rgb(36, 36, 36); fill-opacity: 1; white-space: pre; opacity: 1;" transform="translate(228.05,0)">2012</text></g><g class="xtick"><text text-anchor="middle" x="0" y="362.4" style="font-family: 'Open Sans', verdana, arial, sans-serif; font-size: 12px; fill: rgb(36, 36, 36); fill-opacity: 1; white-space: pre; opacity: 1;" transform="translate(270.35,0)">2013</text></g><g class="xtick"><text text-anchor="middle" x="0" y="362.4" style="font-family: 'Open Sans', verdana, arial, sans-serif; font-size: 12px; fill: rgb(36, 36, 36); fill-opacity: 1; white-space: pre; opacity: 1;" transform="translate(312.65,0)">2014</text></g><g class="xtick"><text text-anchor="middle" x="0" y="362.4" style="font-family: 'Open Sans', verdana, arial, sans-serif; font-size: 12px; fill: rgb(36, 36, 36); fill-opacity: 1; white-space: pre; opacity: 1;" transform="translate(354.95,0)">2015</text></g><g class="xtick"><text text-anchor="middle" x="0" y="362.4" style="font-family: 'Open Sans', verdana, arial, sans-serif; font-size: 12px; fill: rgb(36, 36, 36); fill-opacity: 1; white-space: pre; opacity: 1;" transform="translate(397.25,0)">2016</text></g><g class="xtick"><text text-anchor="middle" x="0" y="362.4" style="font-family: 'Open Sans', verdana, arial, sans-serif; font-size: 12px; fill: rgb(36, 36, 36); fill-opacity: 1; white-space: pre; opacity: 1;" transform="translate(439.55,0)">2017</text></g><g class="xtick"><text text-anchor="middle" x="0" y="362.4" style="font-family: 'Open Sans', verdana, arial, sans-serif; font-size: 12px; fill: rgb(36, 36, 36); fill-opacity: 1; white-space: pre; opacity: 1;" transform="translate(481.85,0)">2018</text></g><g class="xtick"><text text-anchor="middle" x="0" y="362.4" style="font-family: 'Open Sans', verdana, arial, sans-serif; font-size: 12px; fill: rgb(36, 36, 36); fill-opacity: 1; white-space: pre; opacity: 1;" transform="translate(524.15,0)">2019</text></g><g class="xtick"><text text-anchor="middle" x="0" y="362.4" style="font-family: 'Open Sans', verdana, arial, sans-serif; font-size: 12px; fill: rgb(36, 36, 36); fill-opacity: 1; white-space: pre; opacity: 1;" transform="translate(566.45,0)">2020</text></g></g><g class="yaxislayer-above"><path class="ytick ticks crisp" d="M79,0h-5" transform="translate(0,342)" style="stroke: rgb(68, 68, 68); stroke-opacity: 1; stroke-width: 1px;"/><path class="ytick ticks crisp" d="M79,0h-5" transform="translate(0,307.43)" style="stroke: rgb(68, 68, 68); stroke-opacity: 1; stroke-width: 1px;"/><path class="ytick ticks crisp" d="M79,0h-5" transform="translate(0,272.86)" style="stroke: rgb(68, 68, 68); stroke-opacity: 1; stroke-width: 1px;"/><path class="ytick ticks crisp" d="M79,0h-5" transform="translate(0,238.29)" style="stroke: rgb(68, 68, 68); stroke-opacity: 1; stroke-width: 1px;"/><path class="ytick ticks crisp" d="M79,0h-5" transform="translate(0,203.70999999999998)" style="stroke: rgb(68, 68, 68); stroke-opacity: 1; stroke-width: 1px;"/><path class="ytick ticks crisp" d="M79,0h-5" transform="translate(0,169.14)" style="stroke: rgb(68, 68, 68); stroke-opacity: 1; stroke-width: 1px;"/><path class="ytick ticks crisp" d="M79,0h-5" transform="translate(0,134.57)" style="stroke: rgb(68, 68, 68); stroke-opacity: 1; stroke-width: 1px;"/><path class="ytick ticks crisp" d="M79,0h-5" transform="translate(0,100)" style="stroke: rgb(68, 68, 68); stroke-opacity: 1; stroke-width: 1px;"/><g class="ytick"><text text-anchor="end" x="71.6" y="4.199999999999999" transform="translate(0,342)" style="font-family: 'Open Sans', verdana, arial, sans-serif; font-size: 12px; fill: rgb(36, 36, 36); fill-opacity: 1; white-space: pre; opacity: 1;">0</text></g><g class="ytick"><text text-anchor="end" x="71.6" y="4.199999999999999" style="font-family: 'Open Sans', verdana, arial, sans-serif; font-size: 12px; fill: rgb(36, 36, 36); fill-opacity: 1; white-space: pre; opacity: 1;" transform="translate(0,307.43)">5</text></g><g class="ytick"><text text-anchor="end" x="71.6" y="4.199999999999999" style="font-family: 'Open Sans', verdana, arial, sans-serif; font-size: 12px; fill: rgb(36, 36, 36); fill-opacity: 1; white-space: pre; opacity: 1;" transform="translate(0,272.86)">10</text></g><g class="ytick"><text text-anchor="end" x="71.6" y="4.199999999999999" style="font-family: 'Open Sans', verdana, arial, sans-serif; font-size: 12px; fill: rgb(36, 36, 36); fill-opacity: 1; white-space: pre; opacity: 1;" transform="translate(0,238.29)">15</text></g><g class="ytick"><text text-anchor="end" x="71.6" y="4.199999999999999" style="font-family: 'Open Sans', verdana, arial, sans-serif; font-size: 12px; fill: rgb(36, 36, 36); fill-opacity: 1; white-space: pre; opacity: 1;" transform="translate(0,203.70999999999998)">20</text></g><g class="ytick"><text text-anchor="end" x="71.6" y="4.199999999999999" style="font-family: 'Open Sans', verdana, arial, sans-serif; font-size: 12px; fill: rgb(36, 36, 36); fill-opacity: 1; white-space: pre; opacity: 1;" transform="translate(0,169.14)">25</text></g><g class="ytick"><text text-anchor="end" x="71.6" y="4.199999999999999" style="font-family: 'Open Sans', verdana, arial, sans-serif; font-size: 12px; fill: rgb(36, 36, 36); fill-opacity: 1; white-space: pre; opacity: 1;" transform="translate(0,134.57)">30</text></g><g class="ytick"><text text-anchor="end" x="71.6" y="4.199999999999999" style="font-family: 'Open Sans', verdana, arial, sans-serif; font-size: 12px; fill: rgb(36, 36, 36); fill-opacity: 1; white-space: pre; opacity: 1;" transform="translate(0,100)">35</text></g></g><g class="overaxes-above"><g class="xy2-x"/><g class="xy2-y"><path class="y2tick ticks crisp" d="M588.5999999999999,0h5" transform="translate(0,342)" style="stroke: rgb(68, 68, 68); stroke-opacity: 1; stroke-width: 1px;"/><path class="y2tick ticks crisp" d="M588.5999999999999,0h5" transform="translate(0,293.6)" style="stroke: rgb(68, 68, 68); stroke-opacity: 1; stroke-width: 1px;"/><path class="y2tick ticks crisp" d="M588.5999999999999,0h5" transform="translate(0,245.2)" style="stroke: rgb(68, 68, 68); stroke-opacity: 1; stroke-width: 1px;"/><path class="y2tick ticks crisp" d="M588.5999999999999,0h5" transform="translate(0,196.8)" style="stroke: rgb(68, 68, 68); stroke-opacity: 1; stroke-width: 1px;"/><path class="y2tick ticks crisp" d="M588.5999999999999,0h5" transform="translate(0,148.4)" style="stroke: rgb(68, 68, 68); stroke-opacity: 1; stroke-width: 1px;"/><path class="y2tick ticks crisp" d="M588.5999999999999,0h5" transform="translate(0,100)" style="stroke: rgb(68, 68, 68); stroke-opacity: 1; stroke-width: 1px;"/><g class="y2tick"><text text-anchor="start" x="595.9999999999999" y="4.199999999999999" transform="translate(0,342)" style="font-family: 'Open Sans', verdana, arial, sans-serif; font-size: 12px; fill: rgb(36, 36, 36); fill-opacity: 1; white-space: pre; opacity: 1;">0</text></g><g class="y2tick"><text text-anchor="start" x="595.9999999999999" y="4.199999999999999" style="font-family: 'Open Sans', verdana, arial, sans-serif; font-size: 12px; fill: rgb(36, 36, 36); fill-opacity: 1; white-space: pre; opacity: 1;" transform="translate(0,293.6)">10</text></g><g class="y2tick"><text text-anchor="start" x="595.9999999999999" y="4.199999999999999" style="font-family: 'Open Sans', verdana, arial, sans-serif; font-size: 12px; fill: rgb(36, 36, 36); fill-opacity: 1; white-space: pre; opacity: 1;" transform="translate(0,245.2)">20</text></g><g class="y2tick"><text text-anchor="start" x="595.9999999999999" y="4.199999999999999" style="font-family: 'Open Sans', verdana, arial, sans-serif; font-size: 12px; fill: rgb(36, 36, 36); fill-opacity: 1; white-space: pre; opacity: 1;" transform="translate(0,196.8)">30</text></g><g class="y2tick"><text text-anchor="start" x="595.9999999999999" y="4.199999999999999" style="font-family: 'Open Sans', verdana, arial, sans-serif; font-size: 12px; fill: rgb(36, 36, 36); fill-opacity: 1; white-space: pre; opacity: 1;" transform="translate(0,148.4)">40</text></g><g class="y2tick"><text text-anchor="start" x="595.9999999999999" y="4.199999999999999" style="font-family: 'Open Sans', verdana, arial, sans-serif; font-size: 12px; fill: rgb(36, 36, 36); fill-opacity: 1; white-space: pre; opacity: 1;" transform="translate(0,100)">50</text></g></g></g></g><g class="subplot xy2"/></g><g class="polarlayer"/><g class="smithlayer"/><g class="ternarylayer"/><g class="geolayer"/><g class="funnelarealayer"/><g class="pielayer"/><g class="iciclelayer"/><g class="treemaplayer"/><g class="sunburstlayer"/><g class="glimages"/><defs id="topdefs-bbdea9"><g class="clips"/><clipPath id="legendbbdea9"><rect width="245" height="86" x="0" y="0"/></clipPath></defs><g class="layer-above"><g class="imagelayer"/><g class="shapelayer"/></g><g class="infolayer"><g class="legend" pointer-events="all" transform="translate(227.5,401.20000000000005)"><rect class="bg" shape-rendering="crispEdges" style="stroke: rgb(68, 68, 68); stroke-opacity: 1; fill: rgb(255, 255, 255); fill-opacity: 1; stroke-width: 0px;" width="245" height="86" x="0" y="0"/><g class="scrollbox" transform="" clip-path="url(#legendbbdea9)"><g class="groups"><g class="traces" transform="translate(0,14.5)" style="opacity: 1;"><text class="legendtext" text-anchor="start" x="40" y="4.680000000000001" style="font-family: 'Open Sans', verdana, arial, sans-serif; font-size: 12px; fill: rgb(36, 36, 36); fill-opacity: 1; white-space: pre;">Percentage sustainable</text><g class="layers" style="opacity: 1;"><g class="legendfill"/><g class="legendlines"><path class="js-line" d="M5,0h30" style="fill: none; stroke: rgb(63, 148, 222); stroke-opacity: 1; stroke-width: 2px;"/></g><g class="legendsymbols"><g class="legendpoints"><path class="scatterpts" transform="translate(20,0)" d="M3,0A3,3 0 1,1 0,-3A3,3 0 0,1 3,0Z" style="opacity: 1; stroke-width: 0px; fill: rgb(63, 148, 222); fill-opacity: 1;"/></g></g></g><rect class="legendtoggle" x="0" y="-9.5" width="239.15625" height="19" style="fill: rgb(0, 0, 0); fill-opacity: 0;"/></g><g class="traces" transform="translate(0,33.5)" style="opacity: 1;"><text class="legendtext" text-anchor="start" x="40" y="4.680000000000001" style="font-family: 'Open Sans', verdana, arial, sans-serif; font-size: 12px; fill: rgb(36, 36, 36); fill-opacity: 1; white-space: pre;">Unknown (thousand tonnes)</text><g class="layers" style="opacity: 1;"><g class="legendfill"/><g class="legendlines"/><g class="legendsymbols"><g class="legendpoints"><path class="legendundefined" d="M6,6H-6V-6H6Z" transform="translate(20,0)" style="stroke-width: 0.5px; fill: rgb(61, 61, 61); fill-opacity: 1; stroke: rgb(255, 255, 255); stroke-opacity: 1;"/></g></g></g><rect class="legendtoggle" x="0" y="-9.5" width="239.15625" height="19" style="fill: rgb(0, 0, 0); fill-opacity: 0;"/></g><g class="traces" transform="translate(0,52.5)" style="opacity: 1;"><text class="legendtext" text-anchor="start" x="40" y="4.680000000000001" style="font-family: 'Open Sans', verdana, arial, sans-serif; font-size: 12px; fill: rgb(36, 36, 36); fill-opacity: 1; white-space: pre;">Unsustainable (thousand tonnes)</text><g class="layers" style="opacity: 1;"><g class="legendfill"/><g class="legendlines"/><g class="legendsymbols"><g class="legendpoints"><path class="legendundefined" d="M6,6H-6V-6H6Z" transform="translate(20,0)" style="stroke-width: 0.5px; fill: rgb(244, 106, 37); fill-opacity: 1; stroke: rgb(255, 255, 255); stroke-opacity: 1;"/></g></g></g><rect class="legendtoggle" x="0" y="-9.5" width="239.15625" height="19" style="fill: rgb(0, 0, 0); fill-opacity: 0;"/></g><g class="traces" transform="translate(0,71.5)" style="opacity: 1;"><text class="legendtext" text-anchor="start" x="40" y="4.680000000000001" style="font-family: 'Open Sans', verdana, arial, sans-serif; font-size: 12px; fill: rgb(36, 36, 36); fill-opacity: 1; white-space: pre;">Sustainable (thousand tonnes)</text><g class="layers" style="opacity: 1;"><g class="legendfill"/><g class="legendlines"/><g class="legendsymbols"><g class="legendpoints"><path class="legendundefined" d="M6,6H-6V-6H6Z" transform="translate(20,0)" style="stroke-width: 0.5px; fill: rgb(18, 67, 109); fill-opacity: 1; stroke: rgb(255, 255, 255); stroke-opacity: 1;"/></g></g></g><rect class="legendtoggle" x="0" y="-9.5" width="239.15625" height="19" style="fill: rgb(0, 0, 0); fill-opacity: 0;"/></g></g></g><rect class="scrollbar" rx="20" ry="3" width="0" height="0" style="fill: rgb(128, 139, 164); fill-opacity: 1;" x="0" y="0"/></g><g class="g-gtitle"/><g class="g-xtitle"/><g class="g-ytitle"><text class="ytitle" transform="rotate(-90,36.928125,221)" x="36.928125" y="221" text-anchor="middle" style="font-family: 'Open Sans', verdana, arial, sans-serif; font-size: 14px; fill: rgb(36, 36, 36); opacity: 1; white-space: pre;">Landings (thousand tonnes)</text></g><g class="g-y2title"><text class="y2title" transform="rotate(-90,635.58125,221)" x="635.58125" y="221" text-anchor="middle" style="font-family: 'Open Sans', verdana, arial, sans-serif; font-size: 14px; fill: rgb(36, 36, 36); opacity: 1; white-space: pre;">Percentage sustainable</text></g></g></svg>