<svg width="2810" height="2452" xmlns="http://www.w3.org/2000/svg" xmlns:xlink="http://www.w3.org/1999/xlink" xml:space="preserve" overflow="hidden"><g transform="translate(-729 244)"><path d="M731.649-227.833 1157.9-227.833 1157.9-94.9353 731.649-94.9353Z" fill="#156082" fill-rule="evenodd"/><path d="M1157.9-227.833 1665.61-227.833 1665.61-94.9353 1157.9-94.9353Z" fill="#156082" fill-rule="evenodd"/><path d="M1665.61-227.833 2203.23-227.833 2203.23-94.9353 1665.61-94.9353Z" fill="#156082" fill-rule="evenodd"/><path d="M2203.23-227.833 2625.71-227.833 2625.71-94.9353 2203.23-94.9353Z" fill="#156082" fill-rule="evenodd"/><path d="M2625.71-227.833 3066.56-227.833 3066.56-94.9353 2625.71-94.9353Z" fill="#156082" fill-rule="evenodd"/><path d="M3066.56-227.833 3533.54-227.833 3533.54-94.9353 3066.56-94.9353Z" fill="#156082" fill-rule="evenodd"/><path d="M731.649-94.9353 1157.9-94.9353 1157.9 115.994 731.649 115.994Z" fill="#E7EAED" fill-rule="evenodd"/><path d="M1157.9-94.9353 1665.61-94.9353 1665.61 115.994 1157.9 115.994Z" fill="#E7EAED" fill-rule="evenodd"/><path d="M1665.61-94.9353 2203.23-94.9353 2203.23 115.994 1665.61 115.994Z" fill="#E7EAED" fill-rule="evenodd"/><path d="M2203.23-94.9353 2625.71-94.9353 2625.71 115.994 2203.23 115.994Z" fill="#E7EAED" fill-rule="evenodd"/><path d="M2625.71-94.9353 3066.56-94.9353 3066.56 115.994 2625.71 115.994Z" fill="#E7EAED" fill-rule="evenodd"/><path d="M3066.56-94.9353 3533.54-94.9353 3533.54 115.994 3066.56 115.994Z" fill="#E7EAED" fill-rule="evenodd"/><path d="M731.649 115.994 1157.9 115.994 1157.9 1050.67 731.649 1050.67Z" fill="#E7EAED" fill-rule="evenodd"/><path d="M1157.9 115.994 1665.61 115.994 1665.61 387.357 1157.9 387.357Z" fill="#E7EAED" fill-rule="evenodd"/><path d="M1665.61 115.994 2203.23 115.994 2203.23 387.357 1665.61 387.357Z" fill="#E7EAED" fill-rule="evenodd"/><path d="M2203.23 115.994 2625.71 115.994 2625.71 387.357 2203.23 387.357Z" fill="#E7EAED" fill-rule="evenodd"/><path d="M2625.71 115.994 3066.56 115.994 3066.56 387.357 2625.71 387.357Z" fill="#E7EAED" fill-rule="evenodd"/><path d="M3066.56 115.994 3533.54 115.994 3533.54 387.357 3066.56 387.357Z" fill="#E7EAED" fill-rule="evenodd"/><path d="M1157.9 387.357 1665.61 387.357 1665.61 619.396 1157.9 619.396Z" fill="#E7EAED" fill-rule="evenodd"/><path d="M1665.61 387.357 2203.23 387.357 2203.23 619.396 1665.61 619.396Z" fill="#E7EAED" fill-rule="evenodd"/><path d="M2203.23 387.357 2625.71 387.357 2625.71 619.396 2203.23 619.396Z" fill="#E7EAED" fill-rule="evenodd"/><path d="M2625.71 387.357 3066.56 387.357 3066.56 619.396 2625.71 619.396Z" fill="#E7EAED" fill-rule="evenodd"/><path d="M3066.56 387.357 3533.54 387.357 3533.54 619.396 3066.56 619.396Z" fill="#E7EAED" fill-rule="evenodd"/><path d="M1157.9 619.396 1665.61 619.396 1665.61 845.306 1157.9 845.306Z" fill="#E7EAED" fill-rule="evenodd"/><path d="M1665.61 619.396 2203.23 619.396 2203.23 845.306 1665.61 845.306Z" fill="#E7EAED" fill-rule="evenodd"/><path d="M2203.23 619.396 2625.71 619.396 2625.71 845.306 2203.23 845.306Z" fill="#E7EAED" fill-rule="evenodd"/><path d="M2625.71 619.396 3066.56 619.396 3066.56 845.306 2625.71 845.306Z" fill="#E7EAED" fill-rule="evenodd"/><path d="M3066.56 619.396 3533.54 619.396 3533.54 845.306 3066.56 845.306Z" fill="#E7EAED" fill-rule="evenodd"/><path d="M1157.9 845.306 1665.61 845.306 1665.61 1050.67 1157.9 1050.67Z" fill="#E7EAED" fill-rule="evenodd"/><path d="M1665.61 845.306 2203.23 845.306 2203.23 1050.67 1665.61 1050.67Z" fill="#E7EAED" fill-rule="evenodd"/><path d="M2203.23 845.306 2625.71 845.306 2625.71 1050.67 2203.23 1050.67Z" fill="#E7EAED" fill-rule="evenodd"/><path d="M2625.71 845.306 3066.56 845.306 3066.56 1050.67 2625.71 1050.67Z" fill="#E7EAED" fill-rule="evenodd"/><path d="M3066.56 845.306 3533.54 845.306 3533.54 1050.67 3066.56 1050.67Z" fill="#E7EAED" fill-rule="evenodd"/><path d="M731.649 1050.67 1157.9 1050.67 1157.9 1837.72 731.649 1837.72Z" fill="#E7EAED" fill-rule="evenodd"/><path d="M1157.9 1050.67 1665.61 1050.67 1665.61 1361 1157.9 1361Z" fill="#E7EAED" fill-rule="evenodd"/><path d="M1665.61 1050.67 2203.23 1050.67 2203.23 1361 1665.61 1361Z" fill="#E7EAED" fill-rule="evenodd"/><path d="M2203.23 1050.67 2625.71 1050.67 2625.71 1361 2203.23 1361Z" fill="#E7EAED" fill-rule="evenodd"/><path d="M2625.71 1050.67 3066.56 1050.67 3066.56 1361 2625.71 1361Z" fill="#E7EAED" fill-rule="evenodd"/><path d="M3066.56 1050.67 3533.54 1050.67 3533.54 1190.03 3066.56 1190.03Z" fill="#E7EAED" fill-rule="evenodd"/><path d="M3066.56 1190.03 3533.54 1190.03 3533.54 1361 3066.56 1361Z" fill="#E7EAED" fill-rule="evenodd"/><path d="M1157.9 1361 1665.61 1361 1665.61 1566.36 1157.9 1566.36Z" fill="#E7EAED" fill-rule="evenodd"/><path d="M1665.61 1361 2203.23 1361 2203.23 1566.36 1665.61 1566.36Z" fill="#E7EAED" fill-rule="evenodd"/><path d="M2203.23 1361 2625.71 1361 2625.71 1566.36 2203.23 1566.36Z" fill="#E7EAED" fill-rule="evenodd"/><path d="M2625.71 1361 3066.56 1361 3066.56 1566.36 2625.71 1566.36Z" fill="#E7EAED" fill-rule="evenodd"/><path d="M3066.56 1361 3533.54 1361 3533.54 1566.36 3066.56 1566.36Z" fill="#E7EAED" fill-rule="evenodd"/><path d="M1157.9 1566.36 1665.61 1566.36 1665.61 1837.72 1157.9 1837.72Z" fill="#E7EAED" fill-rule="evenodd"/><path d="M1665.61 1566.36 2203.23 1566.36 2203.23 1837.72 1665.61 1837.72Z" fill="#E7EAED" fill-rule="evenodd"/><path d="M2203.23 1566.36 2625.71 1566.36 2625.71 1837.72 2203.23 1837.72Z" fill="#E7EAED" fill-rule="evenodd"/><path d="M2625.71 1566.36 3066.56 1566.36 3066.56 1837.72 2625.71 1837.72Z" fill="#E7EAED" fill-rule="evenodd"/><path d="M3066.56 1566.36 3533.54 1566.36 3533.54 1837.72 3066.56 1837.72Z" fill="#E7EAED" fill-rule="evenodd"/><path d="M1157.9-230.125 1157.9 1840.01" stroke="#000000" stroke-width="4.58333" stroke-linejoin="round" stroke-miterlimit="10" fill="none" fill-rule="evenodd"/><path d="M1665.61-230.125 1665.61 1840.01" stroke="#000000" stroke-width="4.58333" stroke-linejoin="round" stroke-miterlimit="10" fill="none" fill-rule="evenodd"/><path d="M2203.23-230.125 2203.23 1840.01" stroke="#000000" stroke-width="4.58333" stroke-linejoin="round" stroke-miterlimit="10" fill="none" fill-rule="evenodd"/><path d="M2625.71-230.125 2625.71 1840.01" stroke="#000000" stroke-width="4.58333" stroke-linejoin="round" stroke-miterlimit="10" fill="none" fill-rule="evenodd"/><path d="M3066.56-230.125 3066.56 1840.01" stroke="#000000" stroke-width="4.58333" stroke-linejoin="round" stroke-miterlimit="10" fill="none" fill-rule="evenodd"/><path d="M729.357-94.9353 3535.84-94.9353" stroke="#000000" stroke-width="4.58333" stroke-linejoin="round" stroke-miterlimit="10" fill="none" fill-rule="evenodd"/><path d="M729.357 115.994 3535.84 115.994" stroke="#000000" stroke-width="4.58333" stroke-linejoin="round" stroke-miterlimit="10" fill="none" fill-rule="evenodd"/><path d="M1155.61 387.357 3535.84 387.357" stroke="#000000" stroke-width="4.58333" stroke-linejoin="round" stroke-miterlimit="10" fill="none" fill-rule="evenodd"/><path d="M1155.61 619.396 3535.84 619.396" stroke="#000000" stroke-width="4.58333" stroke-linejoin="round" stroke-miterlimit="10" fill="none" fill-rule="evenodd"/><path d="M1155.61 845.306 3535.84 845.306" stroke="#000000" stroke-width="4.58333" stroke-linejoin="round" stroke-miterlimit="10" fill="none" fill-rule="evenodd"/><path d="M729.357 1050.67 3535.84 1050.67" stroke="#000000" stroke-width="4.58333" stroke-linejoin="round" stroke-miterlimit="10" fill="none" fill-rule="evenodd"/><path d="M3064.27 1190.03 3535.84 1190.03" stroke="#000000" stroke-width="4.58333" stroke-linejoin="round" stroke-miterlimit="10" fill="none" fill-rule="evenodd"/><path d="M1155.61 1361 3535.84 1361" stroke="#000000" stroke-width="4.58333" stroke-linejoin="round" stroke-miterlimit="10" fill="none" fill-rule="evenodd"/><path d="M1155.61 1566.36 3535.84 1566.36" stroke="#000000" stroke-width="4.58333" stroke-linejoin="round" stroke-miterlimit="10" fill="none" fill-rule="evenodd"/><path d="M731.649-230.125 731.649 1840.01" stroke="#000000" stroke-width="4.58333" stroke-linejoin="round" stroke-miterlimit="10" fill="none" fill-rule="evenodd"/><path d="M3533.54-230.125 3533.54 1840.01" stroke="#000000" stroke-width="4.58333" stroke-linejoin="round" stroke-miterlimit="10" fill="none" fill-rule="evenodd"/><path d="M729.357-227.833 3535.84-227.833" stroke="#000000" stroke-width="4.58333" stroke-linejoin="round" stroke-miterlimit="10" fill="none" fill-rule="evenodd"/><path d="M729.357 1837.72 3535.84 1837.72" stroke="#000000" stroke-width="4.58333" stroke-linejoin="round" stroke-miterlimit="10" fill="none" fill-rule="evenodd"/><text fill="#FFFFFF" font-family="Arial,Arial_MSFontService,sans-serif" font-weight="700" font-size="55" transform="matrix(1 0 0 1 3149.58 -141)">Time</text><text fill="#FFFFFF" font-family="Arial,Arial_MSFontService,sans-serif" font-weight="700" font-size="55" transform="matrix(1 0 0 1 3292.4 -141)">series</text><text fill="#FFFFFF" font-family="Arial,Arial_MSFontService,sans-serif" font-weight="700" font-size="55" transform="matrix(1 0 0 1 2740.15 -142)">Finfish</text><text fill="#FFFFFF" font-family="Arial,Arial_MSFontService,sans-serif" font-weight="700" font-size="55" transform="matrix(1 0 0 1 2318.49 -175)">Bivalve </text><text fill="#FFFFFF" font-family="Arial,Arial_MSFontService,sans-serif" font-weight="700" font-size="55" transform="matrix(1 0 0 1 2302.75 -109)">shellfish </text><text fill="#FFFFFF" font-family="Arial,Arial_MSFontService,sans-serif" font-weight="700" font-size="55" transform="matrix(1 0 0 1 1880.85 -142)">Unit</text><text fill="#FFFFFF" font-family="Arial,Arial_MSFontService,sans-serif" font-weight="700" font-size="55" transform="matrix(1 0 0 1 1330.98 -142)">Metric</text><text fill="#FFFFFF" font-family="Arial,Arial_MSFontService,sans-serif" font-weight="700" font-size="55" transform="matrix(1 0 0 1 776.336 -142)">Indicator for</text><text font-family="Arial,Arial_MSFontService,sans-serif" font-weight="400" font-size="55" transform="matrix(1 0 0 1 3132.47 31)">2012 to 2021</text><text font-family="Arial,Arial_MSFontService,sans-serif" font-weight="400" font-size="110" transform="matrix(1 0 0 1 2803.45 19)">↓</text><text font-family="Arial,Arial_MSFontService,sans-serif" font-weight="400" font-size="110" transform="matrix(1 0 0 1 2359.47 19)">↔</text><text font-family="Arial,Arial_MSFontService,sans-serif" font-weight="400" font-size="55" transform="matrix(1 0 0 1 1846.09 31)">Tonnes</text><text font-family="Arial,Arial_MSFontService,sans-serif" font-weight="400" font-size="55" transform="matrix(1 0 0 1 1273.11 27)">Production</text><g><text font-family="Arial,Arial_MSFontService,sans-serif" font-weight="400" font-size="55" transform="matrix(1 0 0 1 748.263 27)">Seafood supply</text></g><text font-family="Arial,Arial_MSFontService,sans-serif" font-weight="400" font-size="55" transform="matrix(1 0 0 1 3134.51 269)">2011 to 2022</text><text font-family="Arial,Arial_MSFontService,sans-serif" font-weight="400" font-size="110" transform="matrix(1 0 0 1 2791.14 290)">↔</text><text font-family="Arial,Arial_MSFontService,sans-serif" font-weight="400" font-size="110" transform="matrix(1 0 0 1 2359.47 290)">↔</text><text font-family="Arial,Arial_MSFontService,sans-serif" font-weight="400" font-size="55" transform="matrix(1 0 0 1 1806.38 169)">Number of </text><g><text font-family="Arial,Arial_MSFontService,sans-serif" font-weight="400" font-size="55" transform="matrix(1 0 0 1 1687.49 235)">enforcement actions </text></g><text font-family="Arial,Arial_MSFontService,sans-serif" font-weight="400" font-size="55" transform="matrix(1 0 0 1 1887.17 301)">per</text><text font-family="Arial,Arial_MSFontService,sans-serif" font-weight="400" font-size="55" transform="matrix(1 0 0 1 1726.75 367)">number of farms</text><text font-family="Arial,Arial_MSFontService,sans-serif" font-weight="400" font-size="55" transform="matrix(1 0 0 1 1230.5 235)">Aquatic Animal </text><g><text font-family="Arial,Arial_MSFontService,sans-serif" font-weight="400" font-size="55" transform="matrix(1 0 0 1 1178.87 301)">Health compliance</text></g><text font-family="Arial,Arial_MSFontService,sans-serif" font-weight="400" font-size="55" transform="matrix(1 0 0 1 824.748 501)">Managing </text><text font-family="Arial,Arial_MSFontService,sans-serif" font-weight="400" font-size="55" transform="matrix(1 0 0 1 786.362 567)">pressures on </text><text font-family="Arial,Arial_MSFontService,sans-serif" font-weight="400" font-size="55" transform="matrix(1 0 0 1 888.64 633)">local </text><text font-family="Arial,Arial_MSFontService,sans-serif" font-weight="400" font-size="55" transform="matrix(1 0 0 1 772.612 699)">environments</text><text font-family="Arial,Arial_MSFontService,sans-serif" font-weight="400" font-size="55" transform="matrix(1 0 0 1 3134.51 521)">2011 to 2022</text><text font-family="Arial,Arial_MSFontService,sans-serif" font-weight="400" font-size="110" transform="matrix(1 0 0 1 2791.14 542)">↔</text><text font-family="Arial,Arial_MSFontService,sans-serif" font-weight="400" font-size="55" transform="matrix(1 0 0 1 2258.92 520)">Not relevant</text><g><text font-family="Arial,Arial_MSFontService,sans-serif" font-weight="400" font-size="55" transform="matrix(1 0 0 1 1696.95 454)">Number of pollution </text></g><text font-family="Arial,Arial_MSFontService,sans-serif" font-weight="400" font-size="55" transform="matrix(1 0 0 1 1779.15 520)">incidents per</text><text font-family="Arial,Arial_MSFontService,sans-serif" font-weight="400" font-size="55" transform="matrix(1 0 0 1 1726.74 586)">number of farms</text><text font-family="Arial,Arial_MSFontService,sans-serif" font-weight="400" font-size="55" transform="matrix(1 0 0 1 1238.16 487)">Farm </text><text font-family="Arial,Arial_MSFontService,sans-serif" font-weight="400" font-size="55" transform="matrix(1 0 0 1 1381.96 487)">pollution </text><text font-family="Arial,Arial_MSFontService,sans-serif" font-weight="400" font-size="55" transform="matrix(1 0 0 1 1300.82 553)">offences</text><text font-family="Arial,Arial_MSFontService,sans-serif" font-weight="400" font-size="55" transform="matrix(1 0 0 1 3132.47 750)">2012 to 2021</text><text font-family="Arial,Arial_MSFontService,sans-serif" font-weight="400" font-size="55" transform="matrix(1 0 0 1 2690.59 749)">Not relevant</text><text font-family="Arial,Arial_MSFontService,sans-serif" font-weight="400" font-size="110" transform="matrix(1 0 0 1 2386.97 768)">↓</text><g><text font-family="Arial,Arial_MSFontService,sans-serif" font-weight="400" font-size="55" transform="matrix(1 0 0 1 1684.63 716)">Percentage reported </text></g><text font-family="Arial,Arial_MSFontService,sans-serif" font-weight="400" font-size="55" transform="matrix(1 0 0 1 1809.52 782)">as triploid</text><text font-family="Arial,Arial_MSFontService,sans-serif" font-weight="400" font-size="55" transform="matrix(1 0 0 1 1301.63 749)">Triploidy</text><text font-family="Arial,Arial_MSFontService,sans-serif" font-weight="400" font-size="55" transform="matrix(1 0 0 1 3132.47 965)">2017 to 2022</text><text font-family="Arial,Arial_MSFontService,sans-serif" font-weight="400" font-size="110" transform="matrix(1 0 0 1 2791.14 986)">↔</text><text font-family="Arial,Arial_MSFontService,sans-serif" font-weight="400" font-size="55" transform="matrix(1 0 0 1 2258.92 964)">Not relevant</text><text font-family="Arial,Arial_MSFontService,sans-serif" font-weight="400" font-size="55" transform="matrix(1 0 0 1 1731.89 898)">Milligrams active </text><text font-family="Arial,Arial_MSFontService,sans-serif" font-weight="400" font-size="55" transform="matrix(1 0 0 1 1745.64 964)">ingredients per</text><g><text font-family="Arial,Arial_MSFontService,sans-serif" font-weight="400" font-size="55" transform="matrix(1 0 0 1 1674.03 1030)">kilograms production</text></g><text font-family="Arial,Arial_MSFontService,sans-serif" font-weight="400" font-size="55" transform="matrix(1 0 0 1 1241.03 964)">Antibiotic use</text><text font-family="Arial,Arial_MSFontService,sans-serif" font-weight="400" font-size="55" transform="matrix(1 0 0 1 3190.35 1104)">Bivalves:</text><text font-family="Arial,Arial_MSFontService,sans-serif" font-weight="400" font-size="55" transform="matrix(1 0 0 1 3140.21 1170)">2015 to 2023</text><text font-family="Arial,Arial_MSFontService,sans-serif" font-weight="400" font-size="110" transform="matrix(1 0 0 1 2818.64 1241)">↓</text><text font-family="Arial,Arial_MSFontService,sans-serif" font-weight="400" font-size="110" transform="matrix(1 0 0 1 2359.47 1244)">↔</text><text font-family="Arial,Arial_MSFontService,sans-serif" font-weight="400" font-size="55" transform="matrix(1 0 0 1 1731.89 1189)">Percentage </text><text font-family="Arial,Arial_MSFontService,sans-serif" font-weight="400" font-size="55" transform="matrix(1 0 0 1 2027.52 1189)">non</text><text font-family="Arial,Arial_MSFontService,sans-serif" font-weight="400" font-size="55" transform="matrix(1 0 0 1 2118.61 1189)">-</text><text font-family="Arial,Arial_MSFontService,sans-serif" font-weight="400" font-size="55" transform="matrix(1 0 0 1 1699.81 1255)">compliant </text><text font-family="Arial,Arial_MSFontService,sans-serif" font-weight="400" font-size="55" transform="matrix(1 0 0 1 1949.6 1255)">samples</text><text font-family="Arial,Arial_MSFontService,sans-serif" font-weight="400" font-size="55" transform="matrix(1 0 0 1 1297.73 1189)">Chemical </text><text font-family="Arial,Arial_MSFontService,sans-serif" font-weight="400" font-size="55" transform="matrix(1 0 0 1 1241.31 1255)">contamination</text><g><text font-family="Arial,Arial_MSFontService,sans-serif" font-weight="400" font-size="55" transform="matrix(1 0 0 1 769.736 1427)">Environmental </text></g><text font-family="Arial,Arial_MSFontService,sans-serif" font-weight="400" font-size="55" transform="matrix(1 0 0 1 766.597 1493)">contamination</text><text font-family="Arial,Arial_MSFontService,sans-serif" font-weight="400" font-size="55" transform="matrix(1 0 0 1 3211.54 1260)">Finfish: </text><text font-family="Arial,Arial_MSFontService,sans-serif" font-weight="400" font-size="55" transform="matrix(1 0 0 1 3134.51 1326)">2011 to 2022</text><text font-family="Arial,Arial_MSFontService,sans-serif" font-weight="400" font-size="55" transform="matrix(1 0 0 1 3132.47 1481)">1992 to 2022</text><text font-family="Arial,Arial_MSFontService,sans-serif" font-weight="400" font-size="55" transform="matrix(1 0 0 1 2690.59 1480)">Not relevant</text><text font-family="Arial,Arial_MSFontService,sans-serif" font-weight="400" font-size="110" transform="matrix(1 0 0 1 2386.97 1499)">↓</text><text font-family="Arial,Arial_MSFontService,sans-serif" font-weight="400" font-size="55" transform="matrix(1 0 0 1 1763.69 1414)">Percentage of </text><text font-family="Arial,Arial_MSFontService,sans-serif" font-weight="400" font-size="55" transform="matrix(1 0 0 1 1750.24 1480)">samples above </text><g><text font-family="Arial,Arial_MSFontService,sans-serif" font-weight="400" font-size="55" transform="matrix(1 0 0 1 1699.52 1546)">threshold for E. coli </text></g><text font-family="Arial,Arial_MSFontService,sans-serif" font-weight="400" font-size="55" transform="matrix(1 0 0 1 1305.18 1447)">Bacterial </text><text font-family="Arial,Arial_MSFontService,sans-serif" font-weight="400" font-size="55" transform="matrix(1 0 0 1 1241.31 1513)">contamination</text><text font-family="Arial,Arial_MSFontService,sans-serif" font-weight="400" font-size="55" transform="matrix(1 0 0 1 3132.47 1719)">2016 to 2022</text><text font-family="Arial,Arial_MSFontService,sans-serif" font-weight="400" font-size="55" transform="matrix(1 0 0 1 2690.59 1718)">Not relevant</text><text font-family="Arial,Arial_MSFontService,sans-serif" font-weight="400" font-size="110" transform="matrix(1 0 0 1 2359.47 1740)">↔</text><text font-family="Arial,Arial_MSFontService,sans-serif" font-weight="400" font-size="55" transform="matrix(1 0 0 1 1763.69 1619)">Percentage of </text><text font-family="Arial,Arial_MSFontService,sans-serif" font-weight="400" font-size="55" transform="matrix(1 0 0 1 1750.24 1685)">samples above </text><g><text font-family="Arial,Arial_MSFontService,sans-serif" font-weight="400" font-size="55" transform="matrix(1 0 0 1 1690.36 1751)">Maximum Permitted </text></g><text font-family="Arial,Arial_MSFontService,sans-serif" font-weight="400" font-size="55" transform="matrix(1 0 0 1 1861.38 1817)">Level</text><text font-family="Arial,Arial_MSFontService,sans-serif" font-weight="400" font-size="55" transform="matrix(1 0 0 1 1314.36 1685)">Biotoxin </text><text font-family="Arial,Arial_MSFontService,sans-serif" font-weight="400" font-size="55" transform="matrix(1 0 0 1 1233.58 1751)">contamination</text><text font-family="Arial,Arial_MSFontService,sans-serif" font-weight="400" font-size="110" transform="matrix(1 0 0 1 1088.92 2065)">↑   </text><text font-family="Arial,Arial_MSFontService,sans-serif" font-weight="400" font-size="55" transform="matrix(1 0 0 1 1235.01 2065)">Increasing</text><text font-family="Arial,Arial_MSFontService,sans-serif" font-weight="400" font-size="55" transform="matrix(1 0 0 1 1503.14 2065)">trend                   </text><text font-family="Arial,Arial_MSFontService,sans-serif" font-weight="400" font-size="110" transform="matrix(1 0 0 1 1921.94 2065)">↔</text><text font-family="Arial,Arial_MSFontService,sans-serif" font-weight="400" font-size="55" transform="matrix(1 0 0 1 2062.31 2065)">No trend                      </text><text font-family="Arial,Arial_MSFontService,sans-serif" font-weight="400" font-size="110" transform="matrix(1 0 0 1 2612.88 2065)">↓   </text><text font-family="Arial,Arial_MSFontService,sans-serif" font-weight="400" font-size="55" transform="matrix(1 0 0 1 2758.97 2065)">Decreasing trend</text></g></svg>