<svg class="main-svg" xmlns="http://www.w3.org/2000/svg" xmlns:xlink="http://www.w3.org/1999/xlink" width="700" height="500" style="" viewBox="0 0 700 500"><rect x="0" y="0" width="700" height="500" style="fill: rgb(255, 255, 255); fill-opacity: 1;"/><defs id="defs-f8beac"><g class="clips"><clipPath id="clipf8beacxyplot" class="plotclip"><rect width="540" height="295"/></clipPath><clipPath class="axesclip" id="clipf8beacx"><rect x="80" y="0" width="540" height="500"/></clipPath><clipPath class="axesclip" id="clipf8beacy"><rect x="0" y="60" width="700" height="295"/></clipPath><clipPath class="axesclip" id="clipf8beacxy"><rect x="80" y="60" width="540" height="295"/></clipPath></g><g class="gradients"/><g class="patterns"/></defs><g class="bglayer"/><g class="layer-below"><g class="imagelayer"/><g class="shapelayer"/></g><g class="cartesianlayer"><g class="subplot xy"><g class="layer-subplot"><g class="shapelayer"/><g class="imagelayer"/></g><g class="minor-gridlayer"><g class="x"/><g class="y"/></g><g class="gridlayer"><g class="x"/><g class="y"><path class="ygrid crisp" transform="translate(0,325.84)" d="M80,0h540" style="stroke: rgb(232, 232, 232); stroke-opacity: 1; stroke-width: 1px;"/><path class="ygrid crisp" transform="translate(0,296.69)" d="M80,0h540" style="stroke: rgb(232, 232, 232); stroke-opacity: 1; stroke-width: 1px;"/><path class="ygrid crisp" transform="translate(0,267.53)" d="M80,0h540" style="stroke: rgb(232, 232, 232); stroke-opacity: 1; stroke-width: 1px;"/><path class="ygrid crisp" transform="translate(0,238.37)" d="M80,0h540" style="stroke: rgb(232, 232, 232); stroke-opacity: 1; stroke-width: 1px;"/><path class="ygrid crisp" transform="translate(0,209.21)" d="M80,0h540" style="stroke: rgb(232, 232, 232); stroke-opacity: 1; stroke-width: 1px;"/><path class="ygrid crisp" transform="translate(0,180.06)" d="M80,0h540" style="stroke: rgb(232, 232, 232); stroke-opacity: 1; stroke-width: 1px;"/><path class="ygrid crisp" transform="translate(0,150.9)" d="M80,0h540" style="stroke: rgb(232, 232, 232); stroke-opacity: 1; stroke-width: 1px;"/><path class="ygrid crisp" transform="translate(0,121.74000000000001)" d="M80,0h540" style="stroke: rgb(232, 232, 232); stroke-opacity: 1; stroke-width: 1px;"/><path class="ygrid crisp" transform="translate(0,92.59)" d="M80,0h540" style="stroke: rgb(232, 232, 232); stroke-opacity: 1; stroke-width: 1px;"/><path class="ygrid crisp" transform="translate(0,63.43)" d="M80,0h540" style="stroke: rgb(232, 232, 232); stroke-opacity: 1; stroke-width: 1px;"/></g></g><g class="zerolinelayer"/><g class="layer-between"><g class="shapelayer"/><g class="imagelayer"/></g><path class="xlines-below"/><path class="ylines-below"/><g class="overlines-below"/><g class="xaxislayer-below"/><g class="yaxislayer-below"/><g class="overaxes-below"/><g class="plot" transform="translate(80,60)" clip-path="url(#clipf8beacxyplot)"><g class="barlayer mlayer"><g class="trace bars" style="opacity: 1;"><g class="points"><g class="point"><path d="M2.7,295V169.41H9.9V295Z" style="vector-effect: none; opacity: 1; stroke-width: 0.5px; fill: rgb(18, 67, 109); fill-opacity: 1; stroke: rgb(255, 255, 255); stroke-opacity: 1;"/></g><g class="point"><path d="M29.7,295V150.03H36.9V295Z" style="vector-effect: none; opacity: 1; stroke-width: 0.5px; fill: rgb(18, 67, 109); fill-opacity: 1; stroke: rgb(255, 255, 255); stroke-opacity: 1;"/></g><g class="point"><path d="M56.7,295V131.48H63.9V295Z" style="vector-effect: none; opacity: 1; stroke-width: 0.5px; fill: rgb(18, 67, 109); fill-opacity: 1; stroke: rgb(255, 255, 255); stroke-opacity: 1;"/></g><g class="point"><path d="M83.7,295V127.13H90.9V295Z" style="vector-effect: none; opacity: 1; stroke-width: 0.5px; fill: rgb(18, 67, 109); fill-opacity: 1; stroke: rgb(255, 255, 255); stroke-opacity: 1;"/></g><g class="point"><path d="M110.7,295V134.83H117.9V295Z" style="vector-effect: none; opacity: 1; stroke-width: 0.5px; fill: rgb(18, 67, 109); fill-opacity: 1; stroke: rgb(255, 255, 255); stroke-opacity: 1;"/></g><g class="point"><path d="M137.7,295V138.82H144.9V295Z" style="vector-effect: none; opacity: 1; stroke-width: 0.5px; fill: rgb(18, 67, 109); fill-opacity: 1; stroke: rgb(255, 255, 255); stroke-opacity: 1;"/></g><g class="point"><path d="M164.7,295V140.65H171.9V295Z" style="vector-effect: none; opacity: 1; stroke-width: 0.5px; fill: rgb(18, 67, 109); fill-opacity: 1; stroke: rgb(255, 255, 255); stroke-opacity: 1;"/></g><g class="point"><path d="M191.7,295V167.83H198.9V295Z" style="vector-effect: none; opacity: 1; stroke-width: 0.5px; fill: rgb(18, 67, 109); fill-opacity: 1; stroke: rgb(255, 255, 255); stroke-opacity: 1;"/></g><g class="point"><path d="M218.7,295V195.57H225.9V295Z" style="vector-effect: none; opacity: 1; stroke-width: 0.5px; fill: rgb(18, 67, 109); fill-opacity: 1; stroke: rgb(255, 255, 255); stroke-opacity: 1;"/></g><g class="point"><path d="M245.7,295V196.13H252.9V295Z" style="vector-effect: none; opacity: 1; stroke-width: 0.5px; fill: rgb(18, 67, 109); fill-opacity: 1; stroke: rgb(255, 255, 255); stroke-opacity: 1;"/></g><g class="point"><path d="M272.7,295V186.57H279.9V295Z" style="vector-effect: none; opacity: 1; stroke-width: 0.5px; fill: rgb(18, 67, 109); fill-opacity: 1; stroke: rgb(255, 255, 255); stroke-opacity: 1;"/></g><g class="point"><path d="M299.7,295V186.83H306.9V295Z" style="vector-effect: none; opacity: 1; stroke-width: 0.5px; fill: rgb(18, 67, 109); fill-opacity: 1; stroke: rgb(255, 255, 255); stroke-opacity: 1;"/></g><g class="point"><path d="M326.7,295V201.45H333.9V295Z" style="vector-effect: none; opacity: 1; stroke-width: 0.5px; fill: rgb(18, 67, 109); fill-opacity: 1; stroke: rgb(255, 255, 255); stroke-opacity: 1;"/></g><g class="point"><path d="M353.7,295V173H360.9V295Z" style="vector-effect: none; opacity: 1; stroke-width: 0.5px; fill: rgb(18, 67, 109); fill-opacity: 1; stroke: rgb(255, 255, 255); stroke-opacity: 1;"/></g><g class="point"><path d="M380.7,295V160.67H387.9V295Z" style="vector-effect: none; opacity: 1; stroke-width: 0.5px; fill: rgb(18, 67, 109); fill-opacity: 1; stroke: rgb(255, 255, 255); stroke-opacity: 1;"/></g><g class="point"><path d="M407.7,295V194.01H414.9V295Z" style="vector-effect: none; opacity: 1; stroke-width: 0.5px; fill: rgb(18, 67, 109); fill-opacity: 1; stroke: rgb(255, 255, 255); stroke-opacity: 1;"/></g><g class="point"><path d="M434.7,295V195.92H441.9V295Z" style="vector-effect: none; opacity: 1; stroke-width: 0.5px; fill: rgb(18, 67, 109); fill-opacity: 1; stroke: rgb(255, 255, 255); stroke-opacity: 1;"/></g><g class="point"><path d="M461.7,295V170.65H468.9V295Z" style="vector-effect: none; opacity: 1; stroke-width: 0.5px; fill: rgb(18, 67, 109); fill-opacity: 1; stroke: rgb(255, 255, 255); stroke-opacity: 1;"/></g><g class="point"><path d="M488.7,295V174.44H495.9V295Z" style="vector-effect: none; opacity: 1; stroke-width: 0.5px; fill: rgb(18, 67, 109); fill-opacity: 1; stroke: rgb(255, 255, 255); stroke-opacity: 1;"/></g><g class="point"><path d="M515.7,295V184.48H522.9V295Z" style="vector-effect: none; opacity: 1; stroke-width: 0.5px; fill: rgb(18, 67, 109); fill-opacity: 1; stroke: rgb(255, 255, 255); stroke-opacity: 1;"/></g></g></g><g class="trace bars" style="opacity: 1;"><g class="points"><g class="point"><path d="M9.9,295V225.13H17.1V295Z" style="vector-effect: none; opacity: 1; stroke-width: 0.5px; fill: rgb(244, 106, 37); fill-opacity: 1; stroke: rgb(255, 255, 255); stroke-opacity: 1;"/></g><g class="point"><path d="M36.9,295V216.35H44.1V295Z" style="vector-effect: none; opacity: 1; stroke-width: 0.5px; fill: rgb(244, 106, 37); fill-opacity: 1; stroke: rgb(255, 255, 255); stroke-opacity: 1;"/></g><g class="point"><path d="M63.9,295V220.25H71.1V295Z" style="vector-effect: none; opacity: 1; stroke-width: 0.5px; fill: rgb(244, 106, 37); fill-opacity: 1; stroke: rgb(255, 255, 255); stroke-opacity: 1;"/></g><g class="point"><path d="M90.9,295V207.29H98.1V295Z" style="vector-effect: none; opacity: 1; stroke-width: 0.5px; fill: rgb(244, 106, 37); fill-opacity: 1; stroke: rgb(255, 255, 255); stroke-opacity: 1;"/></g><g class="point"><path d="M117.9,295V210.3H125.1V295Z" style="vector-effect: none; opacity: 1; stroke-width: 0.5px; fill: rgb(244, 106, 37); fill-opacity: 1; stroke: rgb(255, 255, 255); stroke-opacity: 1;"/></g><g class="point"><path d="M144.9,295V218.05H152.1V295Z" style="vector-effect: none; opacity: 1; stroke-width: 0.5px; fill: rgb(244, 106, 37); fill-opacity: 1; stroke: rgb(255, 255, 255); stroke-opacity: 1;"/></g><g class="point"><path d="M171.9,295V220.66H179.1V295Z" style="vector-effect: none; opacity: 1; stroke-width: 0.5px; fill: rgb(244, 106, 37); fill-opacity: 1; stroke: rgb(255, 255, 255); stroke-opacity: 1;"/></g><g class="point"><path d="M198.9,295V226.07H206.1V295Z" style="vector-effect: none; opacity: 1; stroke-width: 0.5px; fill: rgb(244, 106, 37); fill-opacity: 1; stroke: rgb(255, 255, 255); stroke-opacity: 1;"/></g><g class="point"><path d="M225.9,295V229.08H233.1V295Z" style="vector-effect: none; opacity: 1; stroke-width: 0.5px; fill: rgb(244, 106, 37); fill-opacity: 1; stroke: rgb(255, 255, 255); stroke-opacity: 1;"/></g><g class="point"><path d="M252.9,295V231.3H260.1V295Z" style="vector-effect: none; opacity: 1; stroke-width: 0.5px; fill: rgb(244, 106, 37); fill-opacity: 1; stroke: rgb(255, 255, 255); stroke-opacity: 1;"/></g><g class="point"><path d="M279.9,295V232.41H287.1V295Z" style="vector-effect: none; opacity: 1; stroke-width: 0.5px; fill: rgb(244, 106, 37); fill-opacity: 1; stroke: rgb(255, 255, 255); stroke-opacity: 1;"/></g><g class="point"><path d="M306.9,295V229.61H314.1V295Z" style="vector-effect: none; opacity: 1; stroke-width: 0.5px; fill: rgb(244, 106, 37); fill-opacity: 1; stroke: rgb(255, 255, 255); stroke-opacity: 1;"/></g><g class="point"><path d="M333.9,295V232H341.1V295Z" style="vector-effect: none; opacity: 1; stroke-width: 0.5px; fill: rgb(244, 106, 37); fill-opacity: 1; stroke: rgb(255, 255, 255); stroke-opacity: 1;"/></g><g class="point"><path d="M360.9,295V226.63H368.1V295Z" style="vector-effect: none; opacity: 1; stroke-width: 0.5px; fill: rgb(244, 106, 37); fill-opacity: 1; stroke: rgb(255, 255, 255); stroke-opacity: 1;"/></g><g class="point"><path d="M387.9,295V229.3H395.1V295Z" style="vector-effect: none; opacity: 1; stroke-width: 0.5px; fill: rgb(244, 106, 37); fill-opacity: 1; stroke: rgb(255, 255, 255); stroke-opacity: 1;"/></g><g class="point"><path d="M414.9,295V237.78H422.1V295Z" style="vector-effect: none; opacity: 1; stroke-width: 0.5px; fill: rgb(244, 106, 37); fill-opacity: 1; stroke: rgb(255, 255, 255); stroke-opacity: 1;"/></g><g class="point"><path d="M441.9,295V239.17H449.1V295Z" style="vector-effect: none; opacity: 1; stroke-width: 0.5px; fill: rgb(244, 106, 37); fill-opacity: 1; stroke: rgb(255, 255, 255); stroke-opacity: 1;"/></g><g class="point"><path d="M468.9,295V239.74H476.1V295Z" style="vector-effect: none; opacity: 1; stroke-width: 0.5px; fill: rgb(244, 106, 37); fill-opacity: 1; stroke: rgb(255, 255, 255); stroke-opacity: 1;"/></g><g class="point"><path d="M495.9,295V238.74H503.1V295Z" style="vector-effect: none; opacity: 1; stroke-width: 0.5px; fill: rgb(244, 106, 37); fill-opacity: 1; stroke: rgb(255, 255, 255); stroke-opacity: 1;"/></g><g class="point"><path d="M522.9,295V246.08H530.1V295Z" style="vector-effect: none; opacity: 1; stroke-width: 0.5px; fill: rgb(244, 106, 37); fill-opacity: 1; stroke: rgb(255, 255, 255); stroke-opacity: 1;"/></g></g></g><g class="trace bars" style="opacity: 1;"><g class="points"><g class="point"><path d="M17.1,295V279.08H24.3V295Z" style="vector-effect: none; opacity: 1; stroke-width: 0.5px; fill: rgb(128, 22, 80); fill-opacity: 1; stroke: rgb(255, 255, 255); stroke-opacity: 1;"/></g><g class="point"><path d="M44.1,295V277.1H51.3V295Z" style="vector-effect: none; opacity: 1; stroke-width: 0.5px; fill: rgb(128, 22, 80); fill-opacity: 1; stroke: rgb(255, 255, 255); stroke-opacity: 1;"/></g><g class="point"><path d="M71.1,295V278.94H78.3V295Z" style="vector-effect: none; opacity: 1; stroke-width: 0.5px; fill: rgb(128, 22, 80); fill-opacity: 1; stroke: rgb(255, 255, 255); stroke-opacity: 1;"/></g><g class="point"><path d="M98.1,295V274.09H105.3V295Z" style="vector-effect: none; opacity: 1; stroke-width: 0.5px; fill: rgb(128, 22, 80); fill-opacity: 1; stroke: rgb(255, 255, 255); stroke-opacity: 1;"/></g><g class="point"><path d="M125.1,295V274.83H132.3V295Z" style="vector-effect: none; opacity: 1; stroke-width: 0.5px; fill: rgb(128, 22, 80); fill-opacity: 1; stroke: rgb(255, 255, 255); stroke-opacity: 1;"/></g><g class="point"><path d="M152.1,295V275.83H159.3V295Z" style="vector-effect: none; opacity: 1; stroke-width: 0.5px; fill: rgb(128, 22, 80); fill-opacity: 1; stroke: rgb(255, 255, 255); stroke-opacity: 1;"/></g><g class="point"><path d="M179.1,295V276.27H186.3V295Z" style="vector-effect: none; opacity: 1; stroke-width: 0.5px; fill: rgb(128, 22, 80); fill-opacity: 1; stroke: rgb(255, 255, 255); stroke-opacity: 1;"/></g><g class="point"><path d="M206.1,295V278.68H213.3V295Z" style="vector-effect: none; opacity: 1; stroke-width: 0.5px; fill: rgb(128, 22, 80); fill-opacity: 1; stroke: rgb(255, 255, 255); stroke-opacity: 1;"/></g><g class="point"><path d="M233.1,295V280.48H240.3V295Z" style="vector-effect: none; opacity: 1; stroke-width: 0.5px; fill: rgb(128, 22, 80); fill-opacity: 1; stroke: rgb(255, 255, 255); stroke-opacity: 1;"/></g><g class="point"><path d="M260.1,295V280.6H267.3V295Z" style="vector-effect: none; opacity: 1; stroke-width: 0.5px; fill: rgb(128, 22, 80); fill-opacity: 1; stroke: rgb(255, 255, 255); stroke-opacity: 1;"/></g><g class="point"><path d="M287.1,295V280.18H294.3V295Z" style="vector-effect: none; opacity: 1; stroke-width: 0.5px; fill: rgb(128, 22, 80); fill-opacity: 1; stroke: rgb(255, 255, 255); stroke-opacity: 1;"/></g><g class="point"><path d="M314.1,295V278.65H321.3V295Z" style="vector-effect: none; opacity: 1; stroke-width: 0.5px; fill: rgb(128, 22, 80); fill-opacity: 1; stroke: rgb(255, 255, 255); stroke-opacity: 1;"/></g><g class="point"><path d="M341.1,295V277.43H348.3V295Z" style="vector-effect: none; opacity: 1; stroke-width: 0.5px; fill: rgb(128, 22, 80); fill-opacity: 1; stroke: rgb(255, 255, 255); stroke-opacity: 1;"/></g><g class="point"><path d="M368.1,295V277.84H375.3V295Z" style="vector-effect: none; opacity: 1; stroke-width: 0.5px; fill: rgb(128, 22, 80); fill-opacity: 1; stroke: rgb(255, 255, 255); stroke-opacity: 1;"/></g><g class="point"><path d="M395.1,295V279.04H402.3V295Z" style="vector-effect: none; opacity: 1; stroke-width: 0.5px; fill: rgb(128, 22, 80); fill-opacity: 1; stroke: rgb(255, 255, 255); stroke-opacity: 1;"/></g><g class="point"><path d="M422.1,295V281.82H429.3V295Z" style="vector-effect: none; opacity: 1; stroke-width: 0.5px; fill: rgb(128, 22, 80); fill-opacity: 1; stroke: rgb(255, 255, 255); stroke-opacity: 1;"/></g><g class="point"><path d="M449.1,295V281.89H456.3V295Z" style="vector-effect: none; opacity: 1; stroke-width: 0.5px; fill: rgb(128, 22, 80); fill-opacity: 1; stroke: rgb(255, 255, 255); stroke-opacity: 1;"/></g><g class="point"><path d="M476.1,295V280.66H483.3V295Z" style="vector-effect: none; opacity: 1; stroke-width: 0.5px; fill: rgb(128, 22, 80); fill-opacity: 1; stroke: rgb(255, 255, 255); stroke-opacity: 1;"/></g><g class="point"><path d="M503.1,295V280.74H510.3V295Z" style="vector-effect: none; opacity: 1; stroke-width: 0.5px; fill: rgb(128, 22, 80); fill-opacity: 1; stroke: rgb(255, 255, 255); stroke-opacity: 1;"/></g><g class="point"><path d="M530.1,295V283.09H537.3V295Z" style="vector-effect: none; opacity: 1; stroke-width: 0.5px; fill: rgb(128, 22, 80); fill-opacity: 1; stroke: rgb(255, 255, 255); stroke-opacity: 1;"/></g></g></g></g><g class="scatterlayer mlayer"><g class="trace scatter trace8f51e3" style="stroke-miterlimit: 2; opacity: 1;"><g class="fills"/><g class="errorbars"/><g class="lines"><path class="js-line" d="M13.5,83.62L40.5,53.49L67.5,40.66L94.5,18.5L121.5,29.97L148.5,42.7L175.5,47.58L202.5,82.58L229.5,115.13L256.5,118.04L283.5,109.16L310.5,105.09L337.5,120.87L364.5,87.46L391.5,79.02L418.5,123.61L445.5,126.99L472.5,101.05L499.5,103.92L526.5,123.66" style="vector-effect: none; fill: none; stroke: rgb(63, 148, 222); stroke-opacity: 1; stroke-width: 2px; opacity: 1;"/></g><g class="points"><path class="point" transform="translate(13.5,83.62)" d="M3,0A3,3 0 1,1 0,-3A3,3 0 0,1 3,0Z" style="opacity: 1; stroke-width: 0px; fill: rgb(63, 148, 222); fill-opacity: 1;"/><path class="point" transform="translate(40.5,53.49)" d="M3,0A3,3 0 1,1 0,-3A3,3 0 0,1 3,0Z" style="opacity: 1; stroke-width: 0px; fill: rgb(63, 148, 222); fill-opacity: 1;"/><path class="point" transform="translate(67.5,40.66)" d="M3,0A3,3 0 1,1 0,-3A3,3 0 0,1 3,0Z" style="opacity: 1; stroke-width: 0px; fill: rgb(63, 148, 222); fill-opacity: 1;"/><path class="point" transform="translate(94.5,18.5)" d="M3,0A3,3 0 1,1 0,-3A3,3 0 0,1 3,0Z" style="opacity: 1; stroke-width: 0px; fill: rgb(63, 148, 222); fill-opacity: 1;"/><path class="point" transform="translate(121.5,29.97)" d="M3,0A3,3 0 1,1 0,-3A3,3 0 0,1 3,0Z" style="opacity: 1; stroke-width: 0px; fill: rgb(63, 148, 222); fill-opacity: 1;"/><path class="point" transform="translate(148.5,42.7)" d="M3,0A3,3 0 1,1 0,-3A3,3 0 0,1 3,0Z" style="opacity: 1; stroke-width: 0px; fill: rgb(63, 148, 222); fill-opacity: 1;"/><path class="point" transform="translate(175.5,47.58)" d="M3,0A3,3 0 1,1 0,-3A3,3 0 0,1 3,0Z" style="opacity: 1; stroke-width: 0px; fill: rgb(63, 148, 222); fill-opacity: 1;"/><path class="point" transform="translate(202.5,82.58)" d="M3,0A3,3 0 1,1 0,-3A3,3 0 0,1 3,0Z" style="opacity: 1; stroke-width: 0px; fill: rgb(63, 148, 222); fill-opacity: 1;"/><path class="point" transform="translate(229.5,115.13)" d="M3,0A3,3 0 1,1 0,-3A3,3 0 0,1 3,0Z" style="opacity: 1; stroke-width: 0px; fill: rgb(63, 148, 222); fill-opacity: 1;"/><path class="point" transform="translate(256.5,118.04)" d="M3,0A3,3 0 1,1 0,-3A3,3 0 0,1 3,0Z" style="opacity: 1; stroke-width: 0px; fill: rgb(63, 148, 222); fill-opacity: 1;"/><path class="point" transform="translate(283.5,109.16)" d="M3,0A3,3 0 1,1 0,-3A3,3 0 0,1 3,0Z" style="opacity: 1; stroke-width: 0px; fill: rgb(63, 148, 222); fill-opacity: 1;"/><path class="point" transform="translate(310.5,105.09)" d="M3,0A3,3 0 1,1 0,-3A3,3 0 0,1 3,0Z" style="opacity: 1; stroke-width: 0px; fill: rgb(63, 148, 222); fill-opacity: 1;"/><path class="point" transform="translate(337.5,120.87)" d="M3,0A3,3 0 1,1 0,-3A3,3 0 0,1 3,0Z" style="opacity: 1; stroke-width: 0px; fill: rgb(63, 148, 222); fill-opacity: 1;"/><path class="point" transform="translate(364.5,87.46)" d="M3,0A3,3 0 1,1 0,-3A3,3 0 0,1 3,0Z" style="opacity: 1; stroke-width: 0px; fill: rgb(63, 148, 222); fill-opacity: 1;"/><path class="point" transform="translate(391.5,79.02)" d="M3,0A3,3 0 1,1 0,-3A3,3 0 0,1 3,0Z" style="opacity: 1; stroke-width: 0px; fill: rgb(63, 148, 222); fill-opacity: 1;"/><path class="point" transform="translate(418.5,123.61)" d="M3,0A3,3 0 1,1 0,-3A3,3 0 0,1 3,0Z" style="opacity: 1; stroke-width: 0px; fill: rgb(63, 148, 222); fill-opacity: 1;"/><path class="point" transform="translate(445.5,126.99)" d="M3,0A3,3 0 1,1 0,-3A3,3 0 0,1 3,0Z" style="opacity: 1; stroke-width: 0px; fill: rgb(63, 148, 222); fill-opacity: 1;"/><path class="point" transform="translate(472.5,101.05)" d="M3,0A3,3 0 1,1 0,-3A3,3 0 0,1 3,0Z" style="opacity: 1; stroke-width: 0px; fill: rgb(63, 148, 222); fill-opacity: 1;"/><path class="point" transform="translate(499.5,103.92)" d="M3,0A3,3 0 1,1 0,-3A3,3 0 0,1 3,0Z" style="opacity: 1; stroke-width: 0px; fill: rgb(63, 148, 222); fill-opacity: 1;"/><path class="point" transform="translate(526.5,123.66)" d="M3,0A3,3 0 1,1 0,-3A3,3 0 0,1 3,0Z" style="opacity: 1; stroke-width: 0px; fill: rgb(63, 148, 222); fill-opacity: 1;"/></g><g class="text"/></g></g></g><g class="overplot"/><path class="xlines-above crisp" d="M79,355.5H620" style="fill: none; stroke-width: 1px; stroke: rgb(36, 36, 36); stroke-opacity: 1;"/><path class="ylines-above crisp" d="M79.5,60V355" style="fill: none; stroke-width: 1px; stroke: rgb(36, 36, 36); stroke-opacity: 1;"/><g class="overlines-above"/><g class="xaxislayer-above"><path class="xtick ticks crisp" d="M0,356v5" transform="translate(93.5,0)" style="stroke: rgb(68, 68, 68); stroke-opacity: 1; stroke-width: 1px;"/><path class="xtick ticks crisp" d="M0,356v5" transform="translate(120.5,0)" style="stroke: rgb(68, 68, 68); stroke-opacity: 1; stroke-width: 1px;"/><path class="xtick ticks crisp" d="M0,356v5" transform="translate(147.5,0)" style="stroke: rgb(68, 68, 68); stroke-opacity: 1; stroke-width: 1px;"/><path class="xtick ticks crisp" d="M0,356v5" transform="translate(174.5,0)" style="stroke: rgb(68, 68, 68); stroke-opacity: 1; stroke-width: 1px;"/><path class="xtick ticks crisp" d="M0,356v5" transform="translate(201.5,0)" style="stroke: rgb(68, 68, 68); stroke-opacity: 1; stroke-width: 1px;"/><path class="xtick ticks crisp" d="M0,356v5" transform="translate(228.5,0)" style="stroke: rgb(68, 68, 68); stroke-opacity: 1; stroke-width: 1px;"/><path class="xtick ticks crisp" d="M0,356v5" transform="translate(255.5,0)" style="stroke: rgb(68, 68, 68); stroke-opacity: 1; stroke-width: 1px;"/><path class="xtick ticks crisp" d="M0,356v5" transform="translate(282.5,0)" style="stroke: rgb(68, 68, 68); stroke-opacity: 1; stroke-width: 1px;"/><path class="xtick ticks crisp" d="M0,356v5" transform="translate(309.5,0)" style="stroke: rgb(68, 68, 68); stroke-opacity: 1; stroke-width: 1px;"/><path class="xtick ticks crisp" d="M0,356v5" transform="translate(336.5,0)" style="stroke: rgb(68, 68, 68); stroke-opacity: 1; stroke-width: 1px;"/><path class="xtick ticks crisp" d="M0,356v5" transform="translate(363.5,0)" style="stroke: rgb(68, 68, 68); stroke-opacity: 1; stroke-width: 1px;"/><path class="xtick ticks crisp" d="M0,356v5" transform="translate(390.5,0)" style="stroke: rgb(68, 68, 68); stroke-opacity: 1; stroke-width: 1px;"/><path class="xtick ticks crisp" d="M0,356v5" transform="translate(417.5,0)" style="stroke: rgb(68, 68, 68); stroke-opacity: 1; stroke-width: 1px;"/><path class="xtick ticks crisp" d="M0,356v5" transform="translate(444.5,0)" style="stroke: rgb(68, 68, 68); stroke-opacity: 1; stroke-width: 1px;"/><path class="xtick ticks crisp" d="M0,356v5" transform="translate(471.5,0)" style="stroke: rgb(68, 68, 68); stroke-opacity: 1; stroke-width: 1px;"/><path class="xtick ticks crisp" d="M0,356v5" transform="translate(498.5,0)" style="stroke: rgb(68, 68, 68); stroke-opacity: 1; stroke-width: 1px;"/><path class="xtick ticks crisp" d="M0,356v5" transform="translate(525.5,0)" style="stroke: rgb(68, 68, 68); stroke-opacity: 1; stroke-width: 1px;"/><path class="xtick ticks crisp" d="M0,356v5" transform="translate(552.5,0)" style="stroke: rgb(68, 68, 68); stroke-opacity: 1; stroke-width: 1px;"/><path class="xtick ticks crisp" d="M0,356v5" transform="translate(579.5,0)" style="stroke: rgb(68, 68, 68); stroke-opacity: 1; stroke-width: 1px;"/><path class="xtick ticks crisp" d="M0,356v5" transform="translate(606.5,0)" style="stroke: rgb(68, 68, 68); stroke-opacity: 1; stroke-width: 1px;"/><g class="xtick"><text text-anchor="start" x="0" y="375.4" transform="translate(93.5,0) rotate(29.999999999999996,0,369.4)" style="font-family: 'Open Sans', verdana, arial, sans-serif; font-size: 12px; fill: rgb(36, 36, 36); fill-opacity: 1; white-space: pre; opacity: 1;">2001</text></g><g class="xtick"><text text-anchor="start" x="0" y="375.4" style="font-family: 'Open Sans', verdana, arial, sans-serif; font-size: 12px; fill: rgb(36, 36, 36); fill-opacity: 1; white-space: pre; opacity: 1;" transform="translate(120.5,0) rotate(29.999999999999996,0,369.4)">2002</text></g><g class="xtick"><text text-anchor="start" x="0" y="375.4" style="font-family: 'Open Sans', verdana, arial, sans-serif; font-size: 12px; fill: rgb(36, 36, 36); fill-opacity: 1; white-space: pre; opacity: 1;" transform="translate(147.5,0) rotate(29.999999999999996,0,369.4)">2003</text></g><g class="xtick"><text text-anchor="start" x="0" y="375.4" style="font-family: 'Open Sans', verdana, arial, sans-serif; font-size: 12px; fill: rgb(36, 36, 36); fill-opacity: 1; white-space: pre; opacity: 1;" transform="translate(174.5,0) rotate(29.999999999999996,0,369.4)">2004</text></g><g class="xtick"><text text-anchor="start" x="0" y="375.4" style="font-family: 'Open Sans', verdana, arial, sans-serif; font-size: 12px; fill: rgb(36, 36, 36); fill-opacity: 1; white-space: pre; opacity: 1;" transform="translate(201.5,0) rotate(29.999999999999996,0,369.4)">2005</text></g><g class="xtick"><text text-anchor="start" x="0" y="375.4" style="font-family: 'Open Sans', verdana, arial, sans-serif; font-size: 12px; fill: rgb(36, 36, 36); fill-opacity: 1; white-space: pre; opacity: 1;" transform="translate(228.5,0) rotate(29.999999999999996,0,369.4)">2006</text></g><g class="xtick"><text text-anchor="start" x="0" y="375.4" style="font-family: 'Open Sans', verdana, arial, sans-serif; font-size: 12px; fill: rgb(36, 36, 36); fill-opacity: 1; white-space: pre; opacity: 1;" transform="translate(255.5,0) rotate(29.999999999999996,0,369.4)">2007</text></g><g class="xtick"><text text-anchor="start" x="0" y="375.4" style="font-family: 'Open Sans', verdana, arial, sans-serif; font-size: 12px; fill: rgb(36, 36, 36); fill-opacity: 1; white-space: pre; opacity: 1;" transform="translate(282.5,0) rotate(29.999999999999996,0,369.4)">2008</text></g><g class="xtick"><text text-anchor="start" x="0" y="375.4" style="font-family: 'Open Sans', verdana, arial, sans-serif; font-size: 12px; fill: rgb(36, 36, 36); fill-opacity: 1; white-space: pre; opacity: 1;" transform="translate(309.5,0) rotate(29.999999999999996,0,369.4)">2009</text></g><g class="xtick"><text text-anchor="start" x="0" y="375.4" style="font-family: 'Open Sans', verdana, arial, sans-serif; font-size: 12px; fill: rgb(36, 36, 36); fill-opacity: 1; white-space: pre; opacity: 1;" transform="translate(336.5,0) rotate(29.999999999999996,0,369.4)">2010</text></g><g class="xtick"><text text-anchor="start" x="0" y="375.4" style="font-family: 'Open Sans', verdana, arial, sans-serif; font-size: 12px; fill: rgb(36, 36, 36); fill-opacity: 1; white-space: pre; opacity: 1;" transform="translate(363.5,0) rotate(29.999999999999996,0,369.4)">2011</text></g><g class="xtick"><text text-anchor="start" x="0" y="375.4" style="font-family: 'Open Sans', verdana, arial, sans-serif; font-size: 12px; fill: rgb(36, 36, 36); fill-opacity: 1; white-space: pre; opacity: 1;" transform="translate(390.5,0) rotate(29.999999999999996,0,369.4)">2012</text></g><g class="xtick"><text text-anchor="start" x="0" y="375.4" style="font-family: 'Open Sans', verdana, arial, sans-serif; font-size: 12px; fill: rgb(36, 36, 36); fill-opacity: 1; white-space: pre; opacity: 1;" transform="translate(417.5,0) rotate(29.999999999999996,0,369.4)">2013</text></g><g class="xtick"><text text-anchor="start" x="0" y="375.4" style="font-family: 'Open Sans', verdana, arial, sans-serif; font-size: 12px; fill: rgb(36, 36, 36); fill-opacity: 1; white-space: pre; opacity: 1;" transform="translate(444.5,0) rotate(29.999999999999996,0,369.4)">2014</text></g><g class="xtick"><text text-anchor="start" x="0" y="375.4" style="font-family: 'Open Sans', verdana, arial, sans-serif; font-size: 12px; fill: rgb(36, 36, 36); fill-opacity: 1; white-space: pre; opacity: 1;" transform="translate(471.5,0) rotate(29.999999999999996,0,369.4)">2015</text></g><g class="xtick"><text text-anchor="start" x="0" y="375.4" style="font-family: 'Open Sans', verdana, arial, sans-serif; font-size: 12px; fill: rgb(36, 36, 36); fill-opacity: 1; white-space: pre; opacity: 1;" transform="translate(498.5,0) rotate(29.999999999999996,0,369.4)">2016</text></g><g class="xtick"><text text-anchor="start" x="0" y="375.4" style="font-family: 'Open Sans', verdana, arial, sans-serif; font-size: 12px; fill: rgb(36, 36, 36); fill-opacity: 1; white-space: pre; opacity: 1;" transform="translate(525.5,0) rotate(29.999999999999996,0,369.4)">2017</text></g><g class="xtick"><text text-anchor="start" x="0" y="375.4" style="font-family: 'Open Sans', verdana, arial, sans-serif; font-size: 12px; fill: rgb(36, 36, 36); fill-opacity: 1; white-space: pre; opacity: 1;" transform="translate(552.5,0) rotate(29.999999999999996,0,369.4)">2018</text></g><g class="xtick"><text text-anchor="start" x="0" y="375.4" style="font-family: 'Open Sans', verdana, arial, sans-serif; font-size: 12px; fill: rgb(36, 36, 36); fill-opacity: 1; white-space: pre; opacity: 1;" transform="translate(579.5,0) rotate(29.999999999999996,0,369.4)">2019</text></g><g class="xtick"><text text-anchor="start" x="0" y="375.4" style="font-family: 'Open Sans', verdana, arial, sans-serif; font-size: 12px; fill: rgb(36, 36, 36); fill-opacity: 1; white-space: pre; opacity: 1;" transform="translate(606.5,0) rotate(29.999999999999996,0,369.4)">2020</text></g></g><g class="yaxislayer-above"><path class="ytick ticks crisp" d="M79,0h-5" transform="translate(0,355)" style="stroke: rgb(68, 68, 68); stroke-opacity: 1; stroke-width: 1px;"/><path class="ytick ticks crisp" d="M79,0h-5" transform="translate(0,325.84)" style="stroke: rgb(68, 68, 68); stroke-opacity: 1; stroke-width: 1px;"/><path class="ytick ticks crisp" d="M79,0h-5" transform="translate(0,296.69)" style="stroke: rgb(68, 68, 68); stroke-opacity: 1; stroke-width: 1px;"/><path class="ytick ticks crisp" d="M79,0h-5" transform="translate(0,267.53)" style="stroke: rgb(68, 68, 68); stroke-opacity: 1; stroke-width: 1px;"/><path class="ytick ticks crisp" d="M79,0h-5" transform="translate(0,238.37)" style="stroke: rgb(68, 68, 68); stroke-opacity: 1; stroke-width: 1px;"/><path class="ytick ticks crisp" d="M79,0h-5" transform="translate(0,209.21)" style="stroke: rgb(68, 68, 68); stroke-opacity: 1; stroke-width: 1px;"/><path class="ytick ticks crisp" d="M79,0h-5" transform="translate(0,180.06)" style="stroke: rgb(68, 68, 68); stroke-opacity: 1; stroke-width: 1px;"/><path class="ytick ticks crisp" d="M79,0h-5" transform="translate(0,150.9)" style="stroke: rgb(68, 68, 68); stroke-opacity: 1; stroke-width: 1px;"/><path class="ytick ticks crisp" d="M79,0h-5" transform="translate(0,121.74000000000001)" style="stroke: rgb(68, 68, 68); stroke-opacity: 1; stroke-width: 1px;"/><path class="ytick ticks crisp" d="M79,0h-5" transform="translate(0,92.59)" style="stroke: rgb(68, 68, 68); stroke-opacity: 1; stroke-width: 1px;"/><path class="ytick ticks crisp" d="M79,0h-5" transform="translate(0,63.43)" style="stroke: rgb(68, 68, 68); stroke-opacity: 1; stroke-width: 1px;"/><g class="ytick"><text text-anchor="end" x="71.6" y="4.199999999999999" transform="translate(0,355)" style="font-family: 'Open Sans', verdana, arial, sans-serif; font-size: 12px; fill: rgb(36, 36, 36); fill-opacity: 1; white-space: pre; opacity: 1;">0</text></g><g class="ytick"><text text-anchor="end" x="71.6" y="4.199999999999999" style="font-family: 'Open Sans', verdana, arial, sans-serif; font-size: 12px; fill: rgb(36, 36, 36); fill-opacity: 1; white-space: pre; opacity: 1;" transform="translate(0,325.84)">2</text></g><g class="ytick"><text text-anchor="end" x="71.6" y="4.199999999999999" style="font-family: 'Open Sans', verdana, arial, sans-serif; font-size: 12px; fill: rgb(36, 36, 36); fill-opacity: 1; white-space: pre; opacity: 1;" transform="translate(0,296.69)">4</text></g><g class="ytick"><text text-anchor="end" x="71.6" y="4.199999999999999" style="font-family: 'Open Sans', verdana, arial, sans-serif; font-size: 12px; fill: rgb(36, 36, 36); fill-opacity: 1; white-space: pre; opacity: 1;" transform="translate(0,267.53)">6</text></g><g class="ytick"><text text-anchor="end" x="71.6" y="4.199999999999999" style="font-family: 'Open Sans', verdana, arial, sans-serif; font-size: 12px; fill: rgb(36, 36, 36); fill-opacity: 1; white-space: pre; opacity: 1;" transform="translate(0,238.37)">8</text></g><g class="ytick"><text text-anchor="end" x="71.6" y="4.199999999999999" style="font-family: 'Open Sans', verdana, arial, sans-serif; font-size: 12px; fill: rgb(36, 36, 36); fill-opacity: 1; white-space: pre; opacity: 1;" transform="translate(0,209.21)">10</text></g><g class="ytick"><text text-anchor="end" x="71.6" y="4.199999999999999" style="font-family: 'Open Sans', verdana, arial, sans-serif; font-size: 12px; fill: rgb(36, 36, 36); fill-opacity: 1; white-space: pre; opacity: 1;" transform="translate(0,180.06)">12</text></g><g class="ytick"><text text-anchor="end" x="71.6" y="4.199999999999999" style="font-family: 'Open Sans', verdana, arial, sans-serif; font-size: 12px; fill: rgb(36, 36, 36); fill-opacity: 1; white-space: pre; opacity: 1;" transform="translate(0,150.9)">14</text></g><g class="ytick"><text text-anchor="end" x="71.6" y="4.199999999999999" style="font-family: 'Open Sans', verdana, arial, sans-serif; font-size: 12px; fill: rgb(36, 36, 36); fill-opacity: 1; white-space: pre; opacity: 1;" transform="translate(0,121.74000000000001)">16</text></g><g class="ytick"><text text-anchor="end" x="71.6" y="4.199999999999999" style="font-family: 'Open Sans', verdana, arial, sans-serif; font-size: 12px; fill: rgb(36, 36, 36); fill-opacity: 1; white-space: pre; opacity: 1;" transform="translate(0,92.59)">18</text></g><g class="ytick"><text text-anchor="end" x="71.6" y="4.199999999999999" style="font-family: 'Open Sans', verdana, arial, sans-serif; font-size: 12px; fill: rgb(36, 36, 36); fill-opacity: 1; white-space: pre; opacity: 1;" transform="translate(0,63.43)">20</text></g></g><g class="overaxes-above"/></g></g><g class="polarlayer"/><g class="smithlayer"/><g class="ternarylayer"/><g class="geolayer"/><g class="funnelarealayer"/><g class="pielayer"/><g class="iciclelayer"/><g class="treemaplayer"/><g class="sunburstlayer"/><g class="glimages"/><defs id="topdefs-f8beac"><g class="clips"/><clipPath id="legendf8beac"><rect width="508" height="29" x="0" y="0"/></clipPath></defs><g class="layer-above"><g class="imagelayer"/><g class="shapelayer"/></g><g class="infolayer"><g class="legend" pointer-events="all" transform="translate(96,458.75)"><rect class="bg" shape-rendering="crispEdges" width="508" height="29" x="0" y="0" style="stroke: rgb(68, 68, 68); stroke-opacity: 1; fill: rgb(255, 255, 255); fill-opacity: 1; stroke-width: 0px;"/><g class="scrollbox" transform="" clip-path="url(#legendf8beac)"><g class="groups" transform=""><g class="traces" transform="translate(0,14.5)" style="opacity: 1;"><text class="legendtext" text-anchor="start" x="40" y="4.680000000000001" style="font-family: 'Open Sans', verdana, arial, sans-serif; font-size: 12px; fill: rgb(36, 36, 36); fill-opacity: 1; white-space: pre;">Non-metallic mineral materials</text><g class="layers" style="opacity: 1;"><g class="legendfill"/><g class="legendlines"/><g class="legendsymbols"><g class="legendpoints"><path class="legendundefined" d="M6,6H-6V-6H6Z" transform="translate(20,0)" style="stroke-width: 0.5px; fill: rgb(18, 67, 109); fill-opacity: 1; stroke: rgb(255, 255, 255); stroke-opacity: 1;"/></g></g></g><rect class="legendtoggle" x="0" y="-9.5" width="228.09375" height="19" style="fill: rgb(0, 0, 0); fill-opacity: 0;"/></g></g><g class="groups" transform="translate(230.59375,0)"><g class="traces" transform="translate(0,14.5)" style="opacity: 1;"><text class="legendtext" text-anchor="start" x="40" y="4.680000000000001" style="font-family: 'Open Sans', verdana, arial, sans-serif; font-size: 12px; fill: rgb(36, 36, 36); fill-opacity: 1; white-space: pre;">Biomass</text><g class="layers" style="opacity: 1;"><g class="legendfill"/><g class="legendlines"/><g class="legendsymbols"><g class="legendpoints"><path class="legendundefined" d="M6,6H-6V-6H6Z" transform="translate(20,0)" style="stroke-width: 0.5px; fill: rgb(244, 106, 37); fill-opacity: 1; stroke: rgb(255, 255, 255); stroke-opacity: 1;"/></g></g></g><rect class="legendtoggle" x="0" y="-9.5" width="92.96875" height="19" style="fill: rgb(0, 0, 0); fill-opacity: 0;"/></g></g><g class="groups" transform="translate(326.0625,0)"><g class="traces" transform="translate(0,14.5)" style="opacity: 1;"><text class="legendtext" text-anchor="start" x="40" y="4.680000000000001" style="font-family: 'Open Sans', verdana, arial, sans-serif; font-size: 12px; fill: rgb(36, 36, 36); fill-opacity: 1; white-space: pre;">Metal ores</text><g class="layers" style="opacity: 1;"><g class="legendfill"/><g class="legendlines"/><g class="legendsymbols"><g class="legendpoints"><path class="legendundefined" d="M6,6H-6V-6H6Z" transform="translate(20,0)" style="stroke-width: 0.5px; fill: rgb(128, 22, 80); fill-opacity: 1; stroke: rgb(255, 255, 255); stroke-opacity: 1;"/></g></g></g><rect class="legendtoggle" x="0" y="-9.5" width="105.09375" height="19" style="fill: rgb(0, 0, 0); fill-opacity: 0;"/></g></g><g class="groups" transform="translate(433.65625,0)"><g class="traces" transform="translate(0,14.5)" style="opacity: 1;"><text class="legendtext" text-anchor="start" x="40" y="4.680000000000001" style="font-family: 'Open Sans', verdana, arial, sans-serif; font-size: 12px; fill: rgb(36, 36, 36); fill-opacity: 1; white-space: pre;">Total</text><g class="layers" style="opacity: 1;"><g class="legendfill"/><g class="legendlines"><path class="js-line" d="M5,0h30" style="fill: none; stroke: rgb(63, 148, 222); stroke-opacity: 1; stroke-width: 2px;"/></g><g class="legendsymbols"><g class="legendpoints"><path class="scatterpts" transform="translate(20,0)" d="M3,0A3,3 0 1,1 0,-3A3,3 0 0,1 3,0Z" style="opacity: 1; stroke-width: 0px; fill: rgb(63, 148, 222); fill-opacity: 1;"/></g></g></g><rect class="legendtoggle" x="0" y="-9.5" width="71.53125" height="19" style="fill: rgb(0, 0, 0); fill-opacity: 0;"/></g></g></g><rect class="scrollbar" rx="20" ry="3" width="0" height="0" x="0" y="0" style="fill: rgb(128, 139, 164); fill-opacity: 1;"/></g><g class="g-gtitle"/><g class="g-xtitle"/><g class="g-ytitle"><text class="ytitle" transform="rotate(-90,36.928125,207.5)" x="36.928125" y="207.5" text-anchor="middle" style="font-family: 'Open Sans', verdana, arial, sans-serif; font-size: 14px; fill: rgb(36, 36, 36); opacity: 1; white-space: pre;">Tonnes / capita</text></g></g></svg>