<svg class="main-svg" xmlns="http://www.w3.org/2000/svg" xmlns:xlink="http://www.w3.org/1999/xlink" width="700" height="500" style="" viewBox="0 0 700 500"><rect x="0" y="0" width="700" height="500" style="fill: rgb(255, 255, 255); fill-opacity: 1;"/><defs id="defs-d129db"><g class="clips"><clipPath id="clipd129dbxyplot" class="plotclip"><rect width="540" height="268"/></clipPath><clipPath class="axesclip" id="clipd129dbx"><rect x="80" y="0" width="540" height="500"/></clipPath><clipPath class="axesclip" id="clipd129dby"><rect x="0" y="100" width="700" height="268"/></clipPath><clipPath class="axesclip" id="clipd129dbxy"><rect x="80" y="100" width="540" height="268"/></clipPath></g><g class="gradients"/><g class="patterns"/></defs><g class="bglayer"/><g class="layer-below"><g class="imagelayer"/><g class="shapelayer"/></g><g class="cartesianlayer"><g class="subplot xy"><g class="layer-subplot"><g class="shapelayer"/><g class="imagelayer"/></g><g class="minor-gridlayer"><g class="x"/><g class="y"/></g><g class="gridlayer"><g class="x"/><g class="y"><path class="ygrid crisp" transform="translate(0,316.95)" d="M80,0h540" style="stroke: rgb(232, 232, 232); stroke-opacity: 1; stroke-width: 1px;"/><path class="ygrid crisp" transform="translate(0,265.9)" d="M80,0h540" style="stroke: rgb(232, 232, 232); stroke-opacity: 1; stroke-width: 1px;"/><path class="ygrid crisp" transform="translate(0,214.86)" d="M80,0h540" style="stroke: rgb(232, 232, 232); stroke-opacity: 1; stroke-width: 1px;"/><path class="ygrid crisp" transform="translate(0,163.81)" d="M80,0h540" style="stroke: rgb(232, 232, 232); stroke-opacity: 1; stroke-width: 1px;"/><path class="ygrid crisp" transform="translate(0,112.76)" d="M80,0h540" style="stroke: rgb(232, 232, 232); stroke-opacity: 1; stroke-width: 1px;"/></g></g><g class="zerolinelayer"/><g class="layer-between"><g class="shapelayer"/><g class="imagelayer"/></g><path class="xlines-below"/><path class="ylines-below"/><g class="overlines-below"/><g class="xaxislayer-below"/><g class="yaxislayer-below"/><g class="overaxes-below"/><g class="overplot"><g class="xy" transform="translate(80,100)" clip-path="url(#clipd129dbxyplot)"><g class="scatterlayer mlayer"><g class="trace scatter trace98b43a" style="stroke-miterlimit: 2;"><g class="fills"><g><path class="js-fill" d="M0,12.76L10.19,42.62L20.38,56.92L30.57,62.53L40.75,63.3L61.13,61.26L71.32,63.3L81.51,67.64L91.7,73L101.89,75.04L112.08,70.7L122.26,62.02L132.45,54.62L142.64,53.6L152.83,57.94L163.02,64.83L173.21,70.45L183.4,74.27L193.58,75.3L224.15,72.49L234.34,73.25L254.72,77.34L264.91,82.19L275.09,91.38L285.28,103.37L295.47,114.35L305.66,119.96L315.85,118.69L326.04,113.07L336.23,107.2L346.42,103.88L356.6,103.37L366.79,104.9L387.17,108.48L397.36,108.99L407.55,109.24L417.74,110.52L427.92,113.33L438.11,117.15L448.3,120.47L458.49,122L468.68,122L478.87,120.47L509.43,113.58L519.62,113.07L529.81,113.33L540,114.6L540,79.89L529.81,78.61L519.62,78.36L509.43,79.12L489.06,84.74L478.87,88.31L468.68,90.61L458.49,90.61L448.3,88.57L438.11,84.74L417.74,77.85L407.55,77.34L397.36,77.85L387.17,77.59L366.79,73.76L356.6,72.49L346.42,73.76L336.23,78.36L315.85,92.65L305.66,94.44L295.47,88.57L285.28,76.06L275.09,62.28L264.91,52.32L254.72,46.96L244.53,44.67L234.34,43.65L224.15,43.65L203.77,47.22L193.58,48.5L183.4,47.47L173.21,43.9L163.02,37.52L152.83,30.88L142.64,27.06L132.45,29.35L122.26,38.54L112.08,49.52L101.89,55.13L91.7,54.11L81.51,49.01L71.32,45.18L61.13,44.67L50.94,46.71L40.75,49.77L30.57,51.05L20.38,47.47L10.19,35.73L0,12.76Z" style="fill: rgb(244, 106, 37); fill-opacity: 0.4; stroke-width: 0;"/></g></g><g class="errorbars"/><g class="lines"><path class="js-line" d="M0,12.76L10.19,35.73L20.38,47.47L30.57,51.05L40.75,49.77L50.94,46.71L61.13,44.67L71.32,45.18L81.51,49.01L91.7,54.11L101.89,55.13L112.08,49.52L122.26,38.54L132.45,29.35L142.64,27.06L152.83,30.88L163.02,37.52L173.21,43.9L183.4,47.47L193.58,48.5L203.77,47.22L224.15,43.65L234.34,43.65L244.53,44.67L254.72,46.96L264.91,52.32L275.09,62.28L285.28,76.06L295.47,88.57L305.66,94.44L315.85,92.65L336.23,78.36L346.42,73.76L356.6,72.49L366.79,73.76L387.17,77.59L397.36,77.85L407.55,77.34L417.74,77.85L438.11,84.74L448.3,88.57L458.49,90.61L468.68,90.61L478.87,88.31L489.06,84.74L509.43,79.12L519.62,78.36L529.81,78.61L540,79.89" style="vector-effect: none; fill: none; stroke: rgb(244, 106, 37); stroke-opacity: 1; stroke-width: 0.001px; opacity: 1;"/></g><g class="points"/><g class="text"/></g><g class="trace scatter tracee3f0cd" style="stroke-miterlimit: 2;"><g class="fills"/><g class="errorbars"/><g class="lines"><path class="js-line" d="M0,12.76L10.19,42.62L20.38,56.92L30.57,62.53L40.75,63.3L61.13,61.26L71.32,63.3L81.51,67.64L91.7,73L101.89,75.04L112.08,70.7L122.26,62.02L132.45,54.62L142.64,53.6L152.83,57.94L163.02,64.83L173.21,70.45L183.4,74.27L193.58,75.3L224.15,72.49L234.34,73.25L254.72,77.34L264.91,82.19L275.09,91.38L285.28,103.37L295.47,114.35L305.66,119.96L315.85,118.69L326.04,113.07L336.23,107.2L346.42,103.88L356.6,103.37L366.79,104.9L387.17,108.48L397.36,108.99L407.55,109.24L417.74,110.52L427.92,113.33L438.11,117.15L448.3,120.47L458.49,122L468.68,122L478.87,120.47L509.43,113.58L519.62,113.07L529.81,113.33L540,114.6" style="vector-effect: none; fill: none; stroke: rgb(244, 106, 37); stroke-opacity: 1; stroke-width: 0.001px; opacity: 1;"/></g><g class="points"/><g class="text"/></g><g class="trace scatter trace492940" style="stroke-miterlimit: 2; opacity: 1;"><g class="fills"/><g class="errorbars"/><g class="lines"><path class="js-line" d="M0,12.76L10.19,39.05L20.38,52.07L30.57,56.66L40.75,56.66L61.13,52.83L71.32,54.11L91.7,63.55L101.89,65.09L112.08,60.24L122.26,50.79L132.45,42.62L142.64,40.58L152.83,44.92L163.02,51.81L173.21,57.68L183.4,61.51L193.58,62.53L203.77,61.51L213.96,59.47L224.15,58.45L234.34,58.96L244.53,60.24L254.72,62.79L264.91,67.89L275.09,77.59L285.28,90.61L295.47,102.1L305.66,107.71L315.85,106.18L326.04,99.8L336.23,93.42L346.42,89.59L356.6,88.82L366.79,90.1L376.98,92.4L387.17,93.67L397.36,94.18L407.55,93.93L417.74,94.95L427.92,98.01L448.3,105.41L458.49,107.2L468.68,107.2L478.87,105.16L499.25,99.29L509.43,97.25L519.62,96.48L529.81,96.99L540,98.01" style="vector-effect: none; fill: none; stroke: rgb(244, 106, 37); stroke-opacity: 1; stroke-width: 2px; opacity: 1;"/></g><g class="points"/><g class="text"/></g><g class="trace scatter tracec8f0ff" style="stroke-miterlimit: 2;"><g class="fills"><g><path class="js-fill" d="M0,12.76L10.19,32.67L20.38,47.22L30.57,57.17L40.75,64.06L50.94,68.4L61.13,70.7L71.32,71.21L81.51,70.96L101.89,67.89L112.08,66.11L132.45,62.79L142.64,61.77L152.83,61L163.02,61.26L183.4,63.81L193.58,66.11L213.96,72.23L224.15,76.06L285.28,99.29L295.47,102.35L315.85,107.2L326.04,108.99L336.23,110.52L346.42,111.28L376.98,112.56L387.17,112.56L438.11,113.07L448.3,113.33L489.06,114.86L499.25,115.11L519.62,114.6L529.81,113.58L540,112.56L540,77.59L529.81,79.12L519.62,80.14L509.43,80.4L499.25,80.91L468.68,81.42L458.49,81.17L397.36,81.93L387.17,82.44L346.42,82.95L336.23,82.19L315.85,79.12L305.66,76.57L285.28,70.45L275.09,67.13L244.53,55.39L234.34,51.05L213.96,43.9L203.77,40.58L183.4,36.24L173.21,35.22L163.02,35.22L152.83,35.73L142.64,37.52L132.45,39.31L112.08,45.43L101.89,48.5L81.51,53.6L71.32,55.13L61.13,55.39L50.94,54.37L40.75,51.56L30.57,46.45L20.38,38.54L10.19,27.57L0,12.76Z" style="fill: rgb(18, 67, 109); fill-opacity: 0.3; stroke-width: 0;"/></g></g><g class="errorbars"/><g class="lines"><path class="js-line" d="M0,12.76L10.19,27.57L20.38,38.54L30.57,46.45L40.75,51.56L50.94,54.37L61.13,55.39L71.32,55.13L81.51,53.6L101.89,48.5L112.08,45.43L132.45,39.31L142.64,37.52L152.83,35.73L163.02,35.22L173.21,35.22L183.4,36.24L203.77,40.58L213.96,43.9L234.34,51.05L244.53,55.39L275.09,67.13L285.28,70.45L305.66,76.57L315.85,79.12L336.23,82.19L346.42,82.95L387.17,82.44L397.36,81.93L458.49,81.17L468.68,81.42L499.25,80.91L509.43,80.4L519.62,80.14L529.81,79.12L540,77.59" style="vector-effect: none; fill: none; stroke: rgb(18, 67, 109); stroke-opacity: 1; stroke-width: 0.001px; opacity: 1;"/></g><g class="points"/><g class="text"/></g><g class="trace scatter trace05be09" style="stroke-miterlimit: 2;"><g class="fills"/><g class="errorbars"/><g class="lines"><path class="js-line" d="M0,12.76L10.19,32.67L20.38,47.22L30.57,57.17L40.75,64.06L50.94,68.4L61.13,70.7L71.32,71.21L81.51,70.96L101.89,67.89L112.08,66.11L132.45,62.79L142.64,61.77L152.83,61L163.02,61.26L183.4,63.81L193.58,66.11L213.96,72.23L224.15,76.06L285.28,99.29L295.47,102.35L315.85,107.2L326.04,108.99L336.23,110.52L346.42,111.28L376.98,112.56L387.17,112.56L438.11,113.07L448.3,113.33L489.06,114.86L499.25,115.11L519.62,114.6L529.81,113.58L540,112.56" style="vector-effect: none; fill: none; stroke: rgb(18, 67, 109); stroke-opacity: 1; stroke-width: 0.001px; opacity: 1;"/></g><g class="points"/><g class="text"/></g><g class="trace scatter trace6374fe" style="stroke-miterlimit: 2; opacity: 1;"><g class="fills"/><g class="errorbars"/><g class="lines"><path class="js-line" d="M0,12.76L10.19,30.37L20.38,43.14L30.57,52.07L40.75,57.94L50.94,61.77L61.13,63.55L71.32,63.81L81.51,62.79L91.7,61.26L101.89,58.96L132.45,51.81L142.64,50.03L152.83,49.01L163.02,48.75L173.21,49.26L183.4,50.54L203.77,55.13L213.96,58.45L244.53,69.94L254.72,74.02L285.28,85.76L295.47,88.82L315.85,93.93L326.04,95.71L346.42,98.01L356.6,98.27L387.17,98.27L397.36,98.01L448.3,98.27L458.49,98.52L509.43,98.27L519.62,97.76L540,95.71" style="vector-effect: none; fill: none; stroke: rgb(18, 67, 109); stroke-opacity: 1; stroke-width: 2px; opacity: 1;"/></g><g class="points"/><g class="text"/></g></g></g></g><path class="xlines-above crisp" d="M79,368.5H620" style="fill: none; stroke-width: 1px; stroke: rgb(36, 36, 36); stroke-opacity: 1;"/><path class="ylines-above crisp" d="M79.5,100V368" style="fill: none; stroke-width: 1px; stroke: rgb(36, 36, 36); stroke-opacity: 1;"/><g class="overlines-above"/><g class="xaxislayer-above"><path class="xtick ticks crisp" d="M0,369v5" transform="translate(100.38,0)" style="stroke: rgb(68, 68, 68); stroke-opacity: 1; stroke-width: 1px;"/><path class="xtick ticks crisp" d="M0,369v5" transform="translate(141.13,0)" style="stroke: rgb(68, 68, 68); stroke-opacity: 1; stroke-width: 1px;"/><path class="xtick ticks crisp" d="M0,369v5" transform="translate(181.89,0)" style="stroke: rgb(68, 68, 68); stroke-opacity: 1; stroke-width: 1px;"/><path class="xtick ticks crisp" d="M0,369v5" transform="translate(222.64,0)" style="stroke: rgb(68, 68, 68); stroke-opacity: 1; stroke-width: 1px;"/><path class="xtick ticks crisp" d="M0,369v5" transform="translate(263.4,0)" style="stroke: rgb(68, 68, 68); stroke-opacity: 1; stroke-width: 1px;"/><path class="xtick ticks crisp" d="M0,369v5" transform="translate(304.15,0)" style="stroke: rgb(68, 68, 68); stroke-opacity: 1; stroke-width: 1px;"/><path class="xtick ticks crisp" d="M0,369v5" transform="translate(344.91,0)" style="stroke: rgb(68, 68, 68); stroke-opacity: 1; stroke-width: 1px;"/><path class="xtick ticks crisp" d="M0,369v5" transform="translate(385.66,0)" style="stroke: rgb(68, 68, 68); stroke-opacity: 1; stroke-width: 1px;"/><path class="xtick ticks crisp" d="M0,369v5" transform="translate(426.42,0)" style="stroke: rgb(68, 68, 68); stroke-opacity: 1; stroke-width: 1px;"/><path class="xtick ticks crisp" d="M0,369v5" transform="translate(467.17,0)" style="stroke: rgb(68, 68, 68); stroke-opacity: 1; stroke-width: 1px;"/><path class="xtick ticks crisp" d="M0,369v5" transform="translate(507.92,0)" style="stroke: rgb(68, 68, 68); stroke-opacity: 1; stroke-width: 1px;"/><path class="xtick ticks crisp" d="M0,369v5" transform="translate(548.6800000000001,0)" style="stroke: rgb(68, 68, 68); stroke-opacity: 1; stroke-width: 1px;"/><path class="xtick ticks crisp" d="M0,369v5" transform="translate(589.4300000000001,0)" style="stroke: rgb(68, 68, 68); stroke-opacity: 1; stroke-width: 1px;"/><g class="xtick"><text text-anchor="middle" x="0" y="388.4" transform="translate(100.38,0)" style="font-family: 'Open Sans', verdana, arial, sans-serif; font-size: 12px; fill: rgb(36, 36, 36); fill-opacity: 1; white-space: pre; opacity: 1;">1972</text></g><g class="xtick"><text text-anchor="middle" x="0" y="388.4" style="font-family: 'Open Sans', verdana, arial, sans-serif; font-size: 12px; fill: rgb(36, 36, 36); fill-opacity: 1; white-space: pre; opacity: 1;" transform="translate(141.13,0)">1976</text></g><g class="xtick"><text text-anchor="middle" x="0" y="388.4" style="font-family: 'Open Sans', verdana, arial, sans-serif; font-size: 12px; fill: rgb(36, 36, 36); fill-opacity: 1; white-space: pre; opacity: 1;" transform="translate(181.89,0)">1980</text></g><g class="xtick"><text text-anchor="middle" x="0" y="388.4" style="font-family: 'Open Sans', verdana, arial, sans-serif; font-size: 12px; fill: rgb(36, 36, 36); fill-opacity: 1; white-space: pre; opacity: 1;" transform="translate(222.64,0)">1984</text></g><g class="xtick"><text text-anchor="middle" x="0" y="388.4" style="font-family: 'Open Sans', verdana, arial, sans-serif; font-size: 12px; fill: rgb(36, 36, 36); fill-opacity: 1; white-space: pre; opacity: 1;" transform="translate(263.4,0)">1988</text></g><g class="xtick"><text text-anchor="middle" x="0" y="388.4" style="font-family: 'Open Sans', verdana, arial, sans-serif; font-size: 12px; fill: rgb(36, 36, 36); fill-opacity: 1; white-space: pre; opacity: 1;" transform="translate(304.15,0)">1992</text></g><g class="xtick"><text text-anchor="middle" x="0" y="388.4" style="font-family: 'Open Sans', verdana, arial, sans-serif; font-size: 12px; fill: rgb(36, 36, 36); fill-opacity: 1; white-space: pre; opacity: 1;" transform="translate(344.91,0)">1996</text></g><g class="xtick"><text text-anchor="middle" x="0" y="388.4" style="font-family: 'Open Sans', verdana, arial, sans-serif; font-size: 12px; fill: rgb(36, 36, 36); fill-opacity: 1; white-space: pre; opacity: 1;" transform="translate(385.66,0)">2000</text></g><g class="xtick"><text text-anchor="middle" x="0" y="388.4" style="font-family: 'Open Sans', verdana, arial, sans-serif; font-size: 12px; fill: rgb(36, 36, 36); fill-opacity: 1; white-space: pre; opacity: 1;" transform="translate(426.42,0)">2004</text></g><g class="xtick"><text text-anchor="middle" x="0" y="388.4" style="font-family: 'Open Sans', verdana, arial, sans-serif; font-size: 12px; fill: rgb(36, 36, 36); fill-opacity: 1; white-space: pre; opacity: 1;" transform="translate(467.17,0)">2008</text></g><g class="xtick"><text text-anchor="middle" x="0" y="388.4" style="font-family: 'Open Sans', verdana, arial, sans-serif; font-size: 12px; fill: rgb(36, 36, 36); fill-opacity: 1; white-space: pre; opacity: 1;" transform="translate(507.92,0)">2012</text></g><g class="xtick"><text text-anchor="middle" x="0" y="388.4" style="font-family: 'Open Sans', verdana, arial, sans-serif; font-size: 12px; fill: rgb(36, 36, 36); fill-opacity: 1; white-space: pre; opacity: 1;" transform="translate(548.6800000000001,0)">2016</text></g><g class="xtick"><text text-anchor="middle" x="0" y="388.4" style="font-family: 'Open Sans', verdana, arial, sans-serif; font-size: 12px; fill: rgb(36, 36, 36); fill-opacity: 1; white-space: pre; opacity: 1;" transform="translate(589.4300000000001,0)">2020</text></g></g><g class="yaxislayer-above"><path class="ytick ticks crisp" d="M79,0h-5" transform="translate(0,368)" style="stroke: rgb(68, 68, 68); stroke-opacity: 1; stroke-width: 1px;"/><path class="ytick ticks crisp" d="M79,0h-5" transform="translate(0,316.95)" style="stroke: rgb(68, 68, 68); stroke-opacity: 1; stroke-width: 1px;"/><path class="ytick ticks crisp" d="M79,0h-5" transform="translate(0,265.9)" style="stroke: rgb(68, 68, 68); stroke-opacity: 1; stroke-width: 1px;"/><path class="ytick ticks crisp" d="M79,0h-5" transform="translate(0,214.86)" style="stroke: rgb(68, 68, 68); stroke-opacity: 1; stroke-width: 1px;"/><path class="ytick ticks crisp" d="M79,0h-5" transform="translate(0,163.81)" style="stroke: rgb(68, 68, 68); stroke-opacity: 1; stroke-width: 1px;"/><path class="ytick ticks crisp" d="M79,0h-5" transform="translate(0,112.76)" style="stroke: rgb(68, 68, 68); stroke-opacity: 1; stroke-width: 1px;"/><g class="ytick"><text text-anchor="end" x="71.6" y="4.199999999999999" transform="translate(0,368)" style="font-family: 'Open Sans', verdana, arial, sans-serif; font-size: 12px; fill: rgb(36, 36, 36); fill-opacity: 1; white-space: pre; opacity: 1;">0</text></g><g class="ytick"><text text-anchor="end" x="71.6" y="4.199999999999999" style="font-family: 'Open Sans', verdana, arial, sans-serif; font-size: 12px; fill: rgb(36, 36, 36); fill-opacity: 1; white-space: pre; opacity: 1;" transform="translate(0,316.95)">20</text></g><g class="ytick"><text text-anchor="end" x="71.6" y="4.199999999999999" style="font-family: 'Open Sans', verdana, arial, sans-serif; font-size: 12px; fill: rgb(36, 36, 36); fill-opacity: 1; white-space: pre; opacity: 1;" transform="translate(0,265.9)">40</text></g><g class="ytick"><text text-anchor="end" x="71.6" y="4.199999999999999" style="font-family: 'Open Sans', verdana, arial, sans-serif; font-size: 12px; fill: rgb(36, 36, 36); fill-opacity: 1; white-space: pre; opacity: 1;" transform="translate(0,214.86)">60</text></g><g class="ytick"><text text-anchor="end" x="71.6" y="4.199999999999999" style="font-family: 'Open Sans', verdana, arial, sans-serif; font-size: 12px; fill: rgb(36, 36, 36); fill-opacity: 1; white-space: pre; opacity: 1;" transform="translate(0,163.81)">80</text></g><g class="ytick"><text text-anchor="end" x="71.6" y="4.199999999999999" style="font-family: 'Open Sans', verdana, arial, sans-serif; font-size: 12px; fill: rgb(36, 36, 36); fill-opacity: 1; white-space: pre; opacity: 1;" transform="translate(0,112.76)">100</text></g></g><g class="overaxes-above"/></g></g><g class="polarlayer"/><g class="smithlayer"/><g class="ternarylayer"/><g class="geolayer"/><g class="funnelarealayer"/><g class="pielayer"/><g class="iciclelayer"/><g class="treemaplayer"/><g class="sunburstlayer"/><g class="glimages"/><defs id="topdefs-d129db"><g class="clips"/><clipPath id="legendd129db"><rect width="472" height="48" x="0" y="0"/></clipPath></defs><g class="layer-above"><g class="imagelayer"/><g class="shapelayer"><g class="shape-group" data-index="0" clip-path="url(#clipd129dby)"><path data-index="0" fill-rule="evenodd" d="M80,112.76L620,112.76" style="opacity: 1; stroke: rgb(143, 143, 143); stroke-opacity: 1; fill: rgb(0, 0, 0); fill-opacity: 1; stroke-dasharray: 9px, 9px; stroke-width: 2px;"/></g></g></g><g class="infolayer"><g class="legend" pointer-events="all" transform="translate(114,440.59999999999997)"><rect class="bg" shape-rendering="crispEdges" width="472" height="48" x="0" y="0" style="stroke: rgb(68, 68, 68); stroke-opacity: 1; fill: rgb(255, 255, 255); fill-opacity: 1; stroke-width: 0px;"/><g class="scrollbox" transform="" clip-path="url(#legendd129db)"><g class="groups"><g class="traces" transform="translate(0,14.5)" style="opacity: 1;"><text class="legendtext" text-anchor="start" x="40" y="4.680000000000001" style="font-family: 'Open Sans', verdana, arial, sans-serif; font-size: 12px; fill: rgb(36, 36, 36); fill-opacity: 1; white-space: pre;">Smoothed index (option 1)</text><g class="layers" style="opacity: 1;"><g class="legendfill"/><g class="legendlines"><path class="js-line" d="M5,0h30" style="fill: none; stroke: rgb(18, 67, 109); stroke-opacity: 1; stroke-width: 2px;"/></g><g class="legendsymbols"><g class="legendpoints"/></g></g><rect class="legendtoggle" x="0" y="-9.5" width="203.03125" height="19" style="fill: rgb(0, 0, 0); fill-opacity: 0;"/></g><g class="traces" transform="translate(235.5625,14.5)" style="opacity: 1;"><text class="legendtext" text-anchor="start" x="40" y="4.680000000000001" style="font-family: 'Open Sans', verdana, arial, sans-serif; font-size: 12px; fill: rgb(36, 36, 36); fill-opacity: 1; white-space: pre;">95% credible interval (option 1)</text><g class="layers"><g class="legendfill"><path class="js-fill" d="M5,-2h30v6h-30z" style="stroke-width: 0; fill: rgb(18, 67, 109); fill-opacity: 0.3;"/></g><g class="legendlines"><path class="js-line" d="M5,-2h30" style="fill: none; stroke: rgb(18, 67, 109); stroke-opacity: 1; stroke-width: 0.001px;"/></g><g class="legendsymbols"><g class="legendpoints"/></g></g><rect class="legendtoggle" x="0" y="-9.5" width="233.0625" height="19" style="fill: rgb(0, 0, 0); fill-opacity: 0;"/></g><g class="traces" transform="translate(0,33.5)" style="opacity: 1;"><text class="legendtext" text-anchor="start" x="40" y="4.680000000000001" style="font-family: 'Open Sans', verdana, arial, sans-serif; font-size: 12px; fill: rgb(36, 36, 36); fill-opacity: 1; white-space: pre;">Smoothed index (option 2)</text><g class="layers" style="opacity: 1;"><g class="legendfill"/><g class="legendlines"><path class="js-line" d="M5,0h30" style="fill: none; stroke: rgb(244, 106, 37); stroke-opacity: 1; stroke-width: 2px;"/></g><g class="legendsymbols"><g class="legendpoints"/></g></g><rect class="legendtoggle" x="0" y="-9.5" width="203.03125" height="19" style="fill: rgb(0, 0, 0); fill-opacity: 0;"/></g><g class="traces" transform="translate(235.5625,33.5)" style="opacity: 1;"><text class="legendtext" text-anchor="start" x="40" y="4.680000000000001" style="font-family: 'Open Sans', verdana, arial, sans-serif; font-size: 12px; fill: rgb(36, 36, 36); fill-opacity: 1; white-space: pre;">95% credible interval (option 2)</text><g class="layers"><g class="legendfill"><path class="js-fill" d="M5,-2h30v6h-30z" style="stroke-width: 0; fill: rgb(244, 106, 37); fill-opacity: 0.4;"/></g><g class="legendlines"><path class="js-line" d="M5,-2h30" style="fill: none; stroke: rgb(244, 106, 37); stroke-opacity: 1; stroke-width: 0.001px;"/></g><g class="legendsymbols"><g class="legendpoints"/></g></g><rect class="legendtoggle" x="0" y="-9.5" width="233.0625" height="19" style="fill: rgb(0, 0, 0); fill-opacity: 0;"/></g></g></g><rect class="scrollbar" rx="20" ry="3" width="0" height="0" x="0" y="0" style="fill: rgb(128, 139, 164); fill-opacity: 1;"/></g><g class="g-gtitle"/><g class="g-xtitle"/><g class="g-ytitle"><text class="ytitle" transform="rotate(-90,29.2875,234)" x="29.2875" y="234" text-anchor="middle" style="opacity: 1; font-family: 'Open Sans', verdana, arial, sans-serif; font-size: 14px; fill: rgb(36, 36, 36); fill-opacity: 1; white-space: pre;">Index (1970 = 100)</text></g><g class="annotation" data-index="0" style="opacity: 1;"><g class="annotation-text-g" transform="rotate(0,592.5,103.76)"><g class="cursor-pointer" transform="translate(565,95)"><rect class="bg" x="0.5" y="0.5" width="54" height="17" style="stroke-width: 1px; stroke: rgb(0, 0, 0); stroke-opacity: 0; fill: rgb(0, 0, 0); fill-opacity: 0;"/><text class="annotation-text" text-anchor="middle" x="27.453125" y="13" style="font-family: 'Open Sans', verdana, arial, sans-serif; font-size: 12px; fill: rgb(36, 36, 36); fill-opacity: 1; white-space: pre;">Baseline</text></g></g></g></g></svg>