<svg class="main-svg" xmlns="http://www.w3.org/2000/svg" xmlns:xlink="http://www.w3.org/1999/xlink" width="600" height="700" style="" viewBox="0 0 600 700"><rect x="0" y="0" width="600" height="700" style="fill: rgb(255, 255, 255); fill-opacity: 1;"/><defs id="defs-50c6b8"><g class="clips"><clipPath id="clip50c6b8xyplot" class="plotclip"><rect width="590" height="624"/></clipPath><clipPath class="axesclip" id="clip50c6b8x"><rect x="5" y="0" width="590" height="700"/></clipPath><clipPath class="axesclip" id="clip50c6b8y"><rect x="0" y="40" width="600" height="624"/></clipPath><clipPath class="axesclip" id="clip50c6b8xy"><rect x="5" y="40" width="590" height="624"/></clipPath></g><g class="gradients"/><g class="patterns"/></defs><g class="bglayer"/><g class="layer-below"><g class="imagelayer"/><g class="shapelayer"/></g><g class="cartesianlayer"><g class="subplot xy"><g class="layer-subplot"><g class="shapelayer"/><g class="imagelayer"/></g><g class="minor-gridlayer"><g class="x"/><g class="y"/></g><g class="gridlayer"><g class="x"/><g class="y"/></g><g class="zerolinelayer"/><path class="xlines-below"/><path class="ylines-below"/><g class="overlines-below"/><g class="xaxislayer-below"/><g class="yaxislayer-below"/><g class="overaxes-below"/><g class="plot" transform="translate(5,40)" clip-path="url(#clip50c6b8xyplot)"><g class="scatterlayer mlayer"><g class="trace scatter trace0be7e5" style="stroke-miterlimit: 2; opacity: 1;"><g class="fills"/><g class="errorbars"/><g class="lines"><path class="js-line" d="M541.75,312L240.49395312363347,67.59087590107788" style="vector-effect: none; fill: none; stroke: rgb(128, 22, 80); stroke-opacity: 1; stroke-width: 2px; opacity: 1;"/><path class="js-line" d="M494.62,150.04L123.38,150.04" style="vector-effect: none; fill: none; stroke: rgb(128, 22, 80); stroke-opacity: 1; stroke-width: 2px; opacity: 1;"/><path class="js-line" d="M494.62,150.04L74.57095820017112,302.44975605417096" style="vector-effect: none; fill: none; stroke: rgb(128, 22, 80); stroke-opacity: 1; stroke-width: 2px; opacity: 1;"/><path class="js-line" d="M494.62,150.04L117.12351440028712,456.3185833470068" style="vector-effect: none; fill: none; stroke: rgb(128, 22, 80); stroke-opacity: 1; stroke-width: 2px; opacity: 1;"/><path class="js-line" d="M494.62,150.04L234.01992559344873,550.580245583506" style="vector-effect: none; fill: none; stroke: rgb(128, 22, 80); stroke-opacity: 1; stroke-width: 2px; opacity: 1;"/><path class="js-line" d="M371.25,574.05L526.4797818291303,335.46956405675314" style="vector-effect: none; fill: none; stroke: rgb(128, 22, 80); stroke-opacity: 1; stroke-width: 2px; opacity: 1;"/><path class="js-line" d="M371.25,574.05L486.7975080155356,176.92510031881952" style="vector-effect: none; fill: none; stroke: rgb(128, 22, 80); stroke-opacity: 1; stroke-width: 2px; opacity: 1;"/></g><g class="points"><path class="point" transform="translate(541.75,312)" d="M0,0Z" style="opacity: 1; stroke-width: 0px; fill: rgb(128, 22, 80); fill-opacity: 1;"/><path class="point" transform="translate(218.75,49.95)" d="M7.765697544154815,6.300312821813523L18.64312458640871,23.0836849782201L26.430739513683747,13.484754920941574Z" style="opacity: 1; stroke-width: 0px; fill: rgb(128, 22, 80); fill-opacity: 1;"/><path class="point" transform="translate(494.62,150.04)" d="M0,0Z" style="opacity: 1; stroke-width: 0px; fill: rgb(128, 22, 80); fill-opacity: 1;"/><path class="point" transform="translate(95.38,150.04)" d="M10,-1.8369701987210296e-15L29.02113032590307,6.180339887498944L29.02113032590307,-6.180339887498954Z" style="opacity: 1; stroke-width: 0px; fill: rgb(128, 22, 80); fill-opacity: 1;"/><path class="point" transform="translate(494.62,150.04)" d="M0,0Z" style="opacity: 1; stroke-width: 0px; fill: rgb(128, 22, 80); fill-opacity: 1;"/><path class="point" transform="translate(48.25,312)" d="M9.40034221434683,-3.410801409224658L29.388846850841638,-4.088800226941473L25.172864451287886,-15.708262215635056Z" style="opacity: 1; stroke-width: 0px; fill: rgb(128, 22, 80); fill-opacity: 1;"/><path class="point" transform="translate(494.62,150.04)" d="M0,0Z" style="opacity: 1; stroke-width: 0px; fill: rgb(128, 22, 80); fill-opacity: 1;"/><path class="point" transform="translate(95.38,473.96)" d="M7.765540857245399,-6.300505947497582L26.430404148798743,-13.485412231341822L18.64255050505001,-23.084148612949125Z" style="opacity: 1; stroke-width: 0px; fill: rgb(128, 22, 80); fill-opacity: 1;"/><path class="point" transform="translate(494.62,150.04)" d="M0,0Z" style="opacity: 1; stroke-width: 0px; fill: rgb(128, 22, 80); fill-opacity: 1;"/><path class="point" transform="translate(218.75,574.05)" d="M5.453544854803118,-8.382055148747856L21.007198574442175,-20.9551954076314L10.646408619437711,-27.696147566512273Z" style="opacity: 1; stroke-width: 0px; fill: rgb(128, 22, 80); fill-opacity: 1;"/><path class="point" transform="translate(371.25,574.05)" d="M0,0Z" style="opacity: 1; stroke-width: 0px; fill: rgb(128, 22, 80); fill-opacity: 1;"/><path class="point" transform="translate(541.75,312)" d="M-5.453649346739191,8.381987163126128L-21.007459804426677,20.95493352610451L-10.646753884272162,27.69601484412147Z" style="opacity: 1; stroke-width: 0px; fill: rgb(128, 22, 80); fill-opacity: 1;"/><path class="point" transform="translate(371.25,574.05)" d="M0,0Z" style="opacity: 1; stroke-width: 0px; fill: rgb(128, 22, 80); fill-opacity: 1;"/><path class="point" transform="translate(494.62,150.04)" d="M-2.793747137308725,9.601821542435545L-14.042022044081623,26.138940748079044L-2.173517909809406,29.59220212173807Z" style="opacity: 1; stroke-width: 0px; fill: rgb(128, 22, 80); fill-opacity: 1;"/></g><g class="text"/></g><g class="trace scatter trace6c0b03" style="stroke-miterlimit: 2; opacity: 1;"><g class="fills"/><g class="errorbars"/><g class="lines"><path class="js-line" d="M541.75,312L502.4434253973399,176.924828715323" style="vector-effect: none; fill: none; stroke: rgb(18, 67, 109); stroke-opacity: 1; stroke-width: 2px; opacity: 1;"/><path class="js-line" d="M541.75,312L386.5202181708697,73.41956405675316" style="vector-effect: none; fill: none; stroke: rgb(18, 67, 109); stroke-opacity: 1; stroke-width: 2px; opacity: 1;"/><path class="js-line" d="M371.25,49.95L472.87603659786555,132.39913676809894" style="vector-effect: none; fill: none; stroke: rgb(18, 67, 109); stroke-opacity: 1; stroke-width: 2px; opacity: 1;"/><path class="js-line" d="M371.25,574.05L226.57286095489405,76.83499296039324" style="vector-effect: none; fill: none; stroke: rgb(18, 67, 109); stroke-opacity: 1; stroke-width: 2px; opacity: 1;"/><path class="js-line" d="M494.62,473.96L494.62,178.04" style="vector-effect: none; fill: none; stroke: rgb(18, 67, 109); stroke-opacity: 1; stroke-width: 2px; opacity: 1;"/></g><g class="points"><path class="point" transform="translate(541.75,312)" d="M0,0Z" style="opacity: 1; stroke-width: 0px; fill: rgb(18, 67, 109); fill-opacity: 1;"/><path class="point" transform="translate(494.62,150.04)" d="M2.7940804990499712,9.601724541186789L2.174545313331924,29.592126642036515L14.042929547466775,26.138453210604215Z" style="opacity: 1; stroke-width: 0px; fill: rgb(18, 67, 109); fill-opacity: 1;"/><path class="point" transform="translate(541.75,312)" d="M0,0Z" style="opacity: 1; stroke-width: 0px; fill: rgb(18, 67, 109); fill-opacity: 1;"/><path class="point" transform="translate(371.25,49.95)" d="M5.453649346739189,8.38198716312613L10.646753884272156,27.69601484412148L21.007459804426674,20.95493352610452Z" style="opacity: 1; stroke-width: 0px; fill: rgb(18, 67, 109); fill-opacity: 1;"/><path class="point" transform="translate(371.25,49.95)" d="M0,0Z" style="opacity: 1; stroke-width: 0px; fill: rgb(18, 67, 109); fill-opacity: 1;"/><path class="point" transform="translate(494.62,150.04)" d="M-7.765701215048009,-6.300308297107522L-18.64313803617779,-23.083674115748607L-26.43074737060863,-13.484739520996555Z" style="opacity: 1; stroke-width: 0px; fill: rgb(18, 67, 109); fill-opacity: 1;"/><path class="point" transform="translate(371.25,574.05)" d="M0,0Z" style="opacity: 1; stroke-width: 0px; fill: rgb(18, 67, 109); fill-opacity: 1;"/><path class="point" transform="translate(218.75,49.95)" d="M2.79387891246216,9.601783200140444L2.173924033041139,29.592172289587452L14.042380773630196,26.13874803288104Z" style="opacity: 1; stroke-width: 0px; fill: rgb(18, 67, 109); fill-opacity: 1;"/><path class="point" transform="translate(494.62,473.96)" d="M0,0Z" style="opacity: 1; stroke-width: 0px; fill: rgb(18, 67, 109); fill-opacity: 1;"/><path class="point" transform="translate(494.62,150.04)" d="M0,10L-6.180339887498949,29.02113032590307L6.180339887498949,29.02113032590307Z" style="opacity: 1; stroke-width: 0px; fill: rgb(18, 67, 109); fill-opacity: 1;"/></g><g class="text"/></g><g class="trace scatter trace301a12" style="stroke-miterlimit: 2; opacity: 0;"><g class="fills"/><g class="errorbars"/><g class="lines"><path class="js-line" d="M518.19,231.02L456.5,180.98L380.25,180.98L295,150.04L271.44,231.02L295,312L356.69,362.05L432.94,100L456.5,443.03L432.94,362.05L295,312L494.62,312" style="vector-effect: none; fill: none; stroke: rgb(128, 128, 128); stroke-opacity: 1; stroke-width: 2px; opacity: 1;"/></g><g class="points"><path class="point" transform="translate(518.19,231.02)" d="M10,0A10,10 0 1,1 0,-10A10,10 0 0,1 10,0Z" style="opacity: 1; stroke-width: 0px; fill: rgb(128, 128, 128); fill-opacity: 1;"/><path class="point" transform="translate(456.5,180.98)" d="M10,0A10,10 0 1,1 0,-10A10,10 0 0,1 10,0Z" style="opacity: 1; stroke-width: 0px; fill: rgb(128, 128, 128); fill-opacity: 1;"/><path class="point" transform="translate(380.25,180.98)" d="M10,0A10,10 0 1,1 0,-10A10,10 0 0,1 10,0Z" style="opacity: 1; stroke-width: 0px; fill: rgb(128, 128, 128); fill-opacity: 1;"/><path class="point" transform="translate(295,150.04)" d="M10,0A10,10 0 1,1 0,-10A10,10 0 0,1 10,0Z" style="opacity: 1; stroke-width: 0px; fill: rgb(128, 128, 128); fill-opacity: 1;"/><path class="point" transform="translate(271.44,231.02)" d="M10,0A10,10 0 1,1 0,-10A10,10 0 0,1 10,0Z" style="opacity: 1; stroke-width: 0px; fill: rgb(128, 128, 128); fill-opacity: 1;"/><path class="point" transform="translate(295,312)" d="M10,0A10,10 0 1,1 0,-10A10,10 0 0,1 10,0Z" style="opacity: 1; stroke-width: 0px; fill: rgb(128, 128, 128); fill-opacity: 1;"/><path class="point" transform="translate(356.69,362.05)" d="M10,0A10,10 0 1,1 0,-10A10,10 0 0,1 10,0Z" style="opacity: 1; stroke-width: 0px; fill: rgb(128, 128, 128); fill-opacity: 1;"/><path class="point" transform="translate(432.94,100)" d="M10,0A10,10 0 1,1 0,-10A10,10 0 0,1 10,0Z" style="opacity: 1; stroke-width: 0px; fill: rgb(128, 128, 128); fill-opacity: 1;"/><path class="point" transform="translate(456.5,443.03)" d="M10,0A10,10 0 1,1 0,-10A10,10 0 0,1 10,0Z" style="opacity: 1; stroke-width: 0px; fill: rgb(128, 128, 128); fill-opacity: 1;"/><path class="point" transform="translate(432.94,362.05)" d="M10,0A10,10 0 1,1 0,-10A10,10 0 0,1 10,0Z" style="opacity: 1; stroke-width: 0px; fill: rgb(128, 128, 128); fill-opacity: 1;"/><path class="point" transform="translate(295,312)" d="M10,0A10,10 0 1,1 0,-10A10,10 0 0,1 10,0Z" style="opacity: 1; stroke-width: 0px; fill: rgb(128, 128, 128); fill-opacity: 1;"/><path class="point" transform="translate(494.62,312)" d="M10,0A10,10 0 1,1 0,-10A10,10 0 0,1 10,0Z" style="opacity: 1; stroke-width: 0px; fill: rgb(128, 128, 128); fill-opacity: 1;"/></g><g class="text"/></g><g class="trace scatter tracefa9ef5" style="stroke-miterlimit: 2; opacity: 1;"><g class="fills"/><g class="errorbars"/><g class="lines"/><g class="points"><path class="point" transform="translate(541.75,312)" d="M15,0A15,15 0 1,1 0,-15A15,15 0 0,1 15,0Z" style="opacity: 1; stroke-width: 2px; fill: rgb(211, 211, 211); fill-opacity: 1; stroke: rgb(68, 68, 68); stroke-opacity: 1;"/><path class="point" transform="translate(494.62,150.04)" d="M15,0A15,15 0 1,1 0,-15A15,15 0 0,1 15,0Z" style="opacity: 1; stroke-width: 2px; fill: rgb(211, 211, 211); fill-opacity: 1; stroke: rgb(68, 68, 68); stroke-opacity: 1;"/><path class="point" transform="translate(371.25,49.95)" d="M15,0A15,15 0 1,1 0,-15A15,15 0 0,1 15,0Z" style="opacity: 1; stroke-width: 2px; fill: rgb(211, 211, 211); fill-opacity: 1; stroke: rgb(68, 68, 68); stroke-opacity: 1;"/><path class="point" transform="translate(218.75,49.95)" d="M15,0A15,15 0 1,1 0,-15A15,15 0 0,1 15,0Z" style="opacity: 1; stroke-width: 2px; fill: rgb(211, 211, 211); fill-opacity: 1; stroke: rgb(68, 68, 68); stroke-opacity: 1;"/><path class="point" transform="translate(95.38,150.04)" d="M15,0A15,15 0 1,1 0,-15A15,15 0 0,1 15,0Z" style="opacity: 1; stroke-width: 2px; fill: rgb(211, 211, 211); fill-opacity: 1; stroke: rgb(68, 68, 68); stroke-opacity: 1;"/><path class="point" transform="translate(48.25,312)" d="M15,0A15,15 0 1,1 0,-15A15,15 0 0,1 15,0Z" style="opacity: 1; stroke-width: 2px; fill: rgb(211, 211, 211); fill-opacity: 1; stroke: rgb(68, 68, 68); stroke-opacity: 1;"/><path class="point" transform="translate(95.38,473.96)" d="M15,0A15,15 0 1,1 0,-15A15,15 0 0,1 15,0Z" style="opacity: 1; stroke-width: 2px; fill: rgb(211, 211, 211); fill-opacity: 1; stroke: rgb(68, 68, 68); stroke-opacity: 1;"/><path class="point" transform="translate(218.75,574.05)" d="M15,0A15,15 0 1,1 0,-15A15,15 0 0,1 15,0Z" style="opacity: 1; stroke-width: 2px; fill: rgb(211, 211, 211); fill-opacity: 1; stroke: rgb(68, 68, 68); stroke-opacity: 1;"/><path class="point" transform="translate(371.25,574.05)" d="M15,0A15,15 0 1,1 0,-15A15,15 0 0,1 15,0Z" style="opacity: 1; stroke-width: 2px; fill: rgb(211, 211, 211); fill-opacity: 1; stroke: rgb(68, 68, 68); stroke-opacity: 1;"/><path class="point" transform="translate(494.62,473.96)" d="M15,0A15,15 0 1,1 0,-15A15,15 0 0,1 15,0Z" style="opacity: 1; stroke-width: 2px; fill: rgb(211, 211, 211); fill-opacity: 1; stroke: rgb(68, 68, 68); stroke-opacity: 1;"/></g><g class="text"><g class="textpoint" transform="translate(0,3)"><text x="541.75" y="312" text-anchor="middle" style="font-family: 'Open Sans', verdana, arial, sans-serif; font-size: 12px; fill: rgb(42, 63, 95); fill-opacity: 1; white-space: pre;">H3</text></g><g class="textpoint" transform="translate(0,3)"><text x="494.62" y="150.04" text-anchor="middle" style="font-family: 'Open Sans', verdana, arial, sans-serif; font-size: 12px; fill: rgb(42, 63, 95); fill-opacity: 1; white-space: pre;">H4</text></g><g class="textpoint" transform="translate(0,3)"><text x="371.25" y="49.95" text-anchor="middle" style="font-family: 'Open Sans', verdana, arial, sans-serif; font-size: 12px; fill: rgb(42, 63, 95); fill-opacity: 1; white-space: pre;">B1</text></g><g class="textpoint" transform="translate(0,3)"><text x="218.75" y="49.95" text-anchor="middle" style="font-family: 'Open Sans', verdana, arial, sans-serif; font-size: 12px; fill: rgb(42, 63, 95); fill-opacity: 1; white-space: pre;">G7</text></g><g class="textpoint" transform="translate(0,3)"><text x="95.38" y="150.04" text-anchor="middle" style="font-family: 'Open Sans', verdana, arial, sans-serif; font-size: 12px; fill: rgb(42, 63, 95); fill-opacity: 1; white-space: pre;">D4</text></g><g class="textpoint" transform="translate(0,3)"><text x="48.25" y="312" text-anchor="middle" style="font-family: 'Open Sans', verdana, arial, sans-serif; font-size: 12px; fill: rgb(42, 63, 95); fill-opacity: 1; white-space: pre;">D5</text></g><g class="textpoint" transform="translate(0,3)"><text x="95.38" y="473.96" text-anchor="middle" style="font-family: 'Open Sans', verdana, arial, sans-serif; font-size: 12px; fill: rgb(42, 63, 95); fill-opacity: 1; white-space: pre;">D6</text></g><g class="textpoint" transform="translate(0,3)"><text x="218.75" y="574.05" text-anchor="middle" style="font-family: 'Open Sans', verdana, arial, sans-serif; font-size: 12px; fill: rgb(42, 63, 95); fill-opacity: 1; white-space: pre;">D7</text></g><g class="textpoint" transform="translate(0,3)"><text x="371.25" y="574.05" text-anchor="middle" style="font-family: 'Open Sans', verdana, arial, sans-serif; font-size: 12px; fill: rgb(42, 63, 95); fill-opacity: 1; white-space: pre;">J5</text></g><g class="textpoint" transform="translate(0,3)"><text x="494.62" y="473.96" text-anchor="middle" style="font-family: 'Open Sans', verdana, arial, sans-serif; font-size: 12px; fill: rgb(42, 63, 95); fill-opacity: 1; white-space: pre;">B2</text></g></g></g><g class="trace scatter traced97b2d" style="stroke-miterlimit: 2; opacity: 0;"><g class="fills"/><g class="errorbars"/><g class="lines"><path class="js-line" d="M529.97,271.51L499.12,246.49L461,246.49L394.81,150.04L383.03,190.53L394.81,231.02L425.66,256.05L402.09,74.97L413.87,508.54L402.09,468.05L333.12,443.03L494.62,392.98" style="vector-effect: none; fill: none; stroke: rgb(128, 128, 128); stroke-opacity: 1; stroke-width: 2px; opacity: 1;"/></g><g class="points"><path class="point" transform="translate(529.97,271.51)" d="M10,0A10,10 0 1,1 0,-10A10,10 0 0,1 10,0Z" style="opacity: 1; stroke-width: 0px; fill: rgb(128, 128, 128); fill-opacity: 1;"/><path class="point" transform="translate(499.12,246.49)" d="M10,0A10,10 0 1,1 0,-10A10,10 0 0,1 10,0Z" style="opacity: 1; stroke-width: 0px; fill: rgb(128, 128, 128); fill-opacity: 1;"/><path class="point" transform="translate(461,246.49)" d="M10,0A10,10 0 1,1 0,-10A10,10 0 0,1 10,0Z" style="opacity: 1; stroke-width: 0px; fill: rgb(128, 128, 128); fill-opacity: 1;"/><path class="point" transform="translate(394.81,150.04)" d="M10,0A10,10 0 1,1 0,-10A10,10 0 0,1 10,0Z" style="opacity: 1; stroke-width: 0px; fill: rgb(128, 128, 128); fill-opacity: 1;"/><path class="point" transform="translate(383.03,190.53)" d="M10,0A10,10 0 1,1 0,-10A10,10 0 0,1 10,0Z" style="opacity: 1; stroke-width: 0px; fill: rgb(128, 128, 128); fill-opacity: 1;"/><path class="point" transform="translate(394.81,231.02)" d="M10,0A10,10 0 1,1 0,-10A10,10 0 0,1 10,0Z" style="opacity: 1; stroke-width: 0px; fill: rgb(128, 128, 128); fill-opacity: 1;"/><path class="point" transform="translate(425.66,256.05)" d="M10,0A10,10 0 1,1 0,-10A10,10 0 0,1 10,0Z" style="opacity: 1; stroke-width: 0px; fill: rgb(128, 128, 128); fill-opacity: 1;"/><path class="point" transform="translate(402.09,74.97)" d="M10,0A10,10 0 1,1 0,-10A10,10 0 0,1 10,0Z" style="opacity: 1; stroke-width: 0px; fill: rgb(128, 128, 128); fill-opacity: 1;"/><path class="point" transform="translate(413.87,508.54)" d="M10,0A10,10 0 1,1 0,-10A10,10 0 0,1 10,0Z" style="opacity: 1; stroke-width: 0px; fill: rgb(128, 128, 128); fill-opacity: 1;"/><path class="point" transform="translate(402.09,468.05)" d="M10,0A10,10 0 1,1 0,-10A10,10 0 0,1 10,0Z" style="opacity: 1; stroke-width: 0px; fill: rgb(128, 128, 128); fill-opacity: 1;"/><path class="point" transform="translate(333.12,443.03)" d="M10,0A10,10 0 1,1 0,-10A10,10 0 0,1 10,0Z" style="opacity: 1; stroke-width: 0px; fill: rgb(128, 128, 128); fill-opacity: 1;"/><path class="point" transform="translate(494.62,392.98)" d="M10,0A10,10 0 1,1 0,-10A10,10 0 0,1 10,0Z" style="opacity: 1; stroke-width: 0px; fill: rgb(128, 128, 128); fill-opacity: 1;"/></g><g class="text"/></g></g></g><g class="overplot"/><path class="xlines-above crisp" d="M0,0" style="fill: none;"/><path class="ylines-above crisp" d="M0,0" style="fill: none;"/><g class="overlines-above"/><g class="xaxislayer-above"/><g class="yaxislayer-above"/><g class="overaxes-above"/></g></g><g class="polarlayer"/><g class="smithlayer"/><g class="ternarylayer"/><g class="geolayer"/><g class="funnelarealayer"/><g class="pielayer"/><g class="iciclelayer"/><g class="treemaplayer"/><g class="sunburstlayer"/><g class="glimages"/><defs id="topdefs-50c6b8"><g class="clips"/><clipPath id="legend50c6b8"><rect width="191" height="29" x="0" y="0"/></clipPath></defs><g class="layer-above"><g class="imagelayer"/><g class="shapelayer"/></g><g class="infolayer"><g class="legend" pointer-events="all" transform="translate(204.5,666.2)"><rect class="bg" shape-rendering="crispEdges" width="191" height="29" x="0" y="0" style="stroke: rgb(68, 68, 68); stroke-opacity: 1; fill: rgb(255, 255, 255); fill-opacity: 1; stroke-width: 0px;"/><g class="scrollbox" transform="" clip-path="url(#legend50c6b8)"><g class="groups"><g class="traces" transform="translate(0,14.5)" style="opacity: 1;"><text class="legendtext" text-anchor="start" x="40" y="4.680000000000001" style="font-family: 'Open Sans', verdana, arial, sans-serif; font-size: 12px; fill: rgb(42, 63, 95); fill-opacity: 1; white-space: pre;">Negative</text><g class="layers" style="opacity: 1;"><g class="legendfill"/><g class="legendlines"><path class="js-line" d="M5,0h30" style="fill: none; stroke: rgb(128, 22, 80); stroke-opacity: 1; stroke-width: 2px;"/></g><g class="legendsymbols"><g class="legendpoints"><path class="scatterpts" transform="translate(20,0)" d="M10,-6.123233995736766e-16L-5.2169042607224565,-4.944271909999159L-5.2169042607224565,4.944271909999159Z" style="opacity: 1; stroke-width: 0px; fill: rgb(128, 22, 80); fill-opacity: 1;"/></g></g></g><rect class="legendtoggle" x="0" y="-9.5" width="96.359375" height="19" style="fill: rgb(0, 0, 0); fill-opacity: 0;"/></g><g class="traces" transform="translate(98.859375,14.5)" style="opacity: 1;"><text class="legendtext" text-anchor="start" x="40" y="4.680000000000001" style="font-family: 'Open Sans', verdana, arial, sans-serif; font-size: 12px; fill: rgb(42, 63, 95); fill-opacity: 1; white-space: pre;">Positive</text><g class="layers" style="opacity: 1;"><g class="legendfill"/><g class="legendlines"><path class="js-line" d="M5,0h30" style="fill: none; stroke: rgb(18, 67, 109); stroke-opacity: 1; stroke-width: 2px;"/></g><g class="legendsymbols"><g class="legendpoints"><path class="scatterpts" transform="translate(20,0)" d="M10,-6.123233995736766e-16L-5.2169042607224565,-4.944271909999159L-5.2169042607224565,4.944271909999159Z" style="opacity: 1; stroke-width: 0px; fill: rgb(18, 67, 109); fill-opacity: 1;"/></g></g></g><rect class="legendtoggle" x="0" y="-9.5" width="88.765625" height="19" style="fill: rgb(0, 0, 0); fill-opacity: 0;"/></g></g></g><rect class="scrollbar" rx="20" ry="3" width="0" height="0" x="0" y="0" style="fill: rgb(128, 139, 164); fill-opacity: 1;"/></g><g class="g-gtitle"/><g class="g-xtitle"/><g class="g-ytitle"/></g></svg>