<svg class="main-svg" xmlns="http://www.w3.org/2000/svg" xmlns:xlink="http://www.w3.org/1999/xlink" width="700" height="500" style="" viewBox="0 0 700 500"><rect x="0" y="0" width="700" height="500" style="fill: rgb(255, 255, 255); fill-opacity: 1;"/><defs id="defs-fc8af8"><g class="clips"><clipPath id="clipfc8af8xyplot" class="plotclip"><rect width="540" height="268"/></clipPath><clipPath class="axesclip" id="clipfc8af8x"><rect x="80" y="0" width="540" height="500"/></clipPath><clipPath class="axesclip" id="clipfc8af8y"><rect x="0" y="100" width="700" height="268"/></clipPath><clipPath class="axesclip" id="clipfc8af8xy"><rect x="80" y="100" width="540" height="268"/></clipPath></g><g class="gradients"/><g class="patterns"/></defs><g class="bglayer"/><g class="layer-below"><g class="imagelayer"/><g class="shapelayer"/></g><g class="cartesianlayer"><g class="subplot xy"><g class="layer-subplot"><g class="shapelayer"/><g class="imagelayer"/></g><g class="minor-gridlayer"><g class="x"/><g class="y"/></g><g class="gridlayer"><g class="x"/><g class="y"><path class="ygrid crisp" transform="translate(0,316.95)" d="M80,0h540" style="stroke: rgb(232, 232, 232); stroke-opacity: 1; stroke-width: 1px;"/><path class="ygrid crisp" transform="translate(0,265.9)" d="M80,0h540" style="stroke: rgb(232, 232, 232); stroke-opacity: 1; stroke-width: 1px;"/><path class="ygrid crisp" transform="translate(0,214.86)" d="M80,0h540" style="stroke: rgb(232, 232, 232); stroke-opacity: 1; stroke-width: 1px;"/><path class="ygrid crisp" transform="translate(0,163.81)" d="M80,0h540" style="stroke: rgb(232, 232, 232); stroke-opacity: 1; stroke-width: 1px;"/><path class="ygrid crisp" transform="translate(0,112.76)" d="M80,0h540" style="stroke: rgb(232, 232, 232); stroke-opacity: 1; stroke-width: 1px;"/></g></g><g class="zerolinelayer"/><g class="layer-between"><g class="shapelayer"/><g class="imagelayer"/></g><path class="xlines-below"/><path class="ylines-below"/><g class="overlines-below"/><g class="xaxislayer-below"/><g class="yaxislayer-below"/><g class="overaxes-below"/><g class="overplot"><g class="xy" transform="translate(80,100)" clip-path="url(#clipfc8af8xyplot)"><g class="scatterlayer mlayer"><g class="trace scatter trace6f5f75" style="stroke-miterlimit: 2;"><g class="fills"><g><path class="js-fill" d="M0,12.76L10.19,44.92L20.38,64.83L30.57,77.34L40.75,84.48L50.94,88.82L61.13,91.89L71.32,96.22L81.51,102.86L101.89,118.43L112.08,123.54L132.45,128.9L142.64,132.98L193.58,161.57L203.77,166.16L234.34,179.94L244.53,185.05L264.91,196.53L275.09,202.4L285.28,207.51L295.47,211.59L305.66,213.38L315.85,213.12L336.23,210.83L346.42,211.34L356.6,212.36L366.79,214.14L376.98,215.42L387.17,215.42L417.74,211.59L427.92,212.61L458.49,218.23L468.68,218.74L489.06,218.23L499.25,217.46L519.62,217.46L529.81,218.74L540,220.78L540,196.53L529.81,193.73L519.62,192.45L509.43,192.19L489.06,194.24L478.87,195.51L468.68,195.77L458.49,195L427.92,187.6L417.74,186.58L407.55,187.6L397.36,190.41L387.17,192.45L376.98,192.45L346.42,186.83L336.23,186.32L315.85,190.41L305.66,190.92L295.47,188.88L285.28,183.52L275.09,176.37L264.91,168.71L244.53,154.16L234.34,148.04L203.77,132.72L193.58,128.13L173.21,116.64L163.02,110.01L142.64,97.5L132.45,93.16L112.08,89.33L101.89,84.74L81.51,69.94L71.32,64.06L40.75,60.49L30.57,55.64L20.38,47.22L10.19,33.18L0,12.76Z" style="fill: rgb(244, 106, 37); fill-opacity: 0.4; stroke-width: 0;"/></g></g><g class="errorbars"/><g class="lines"><path class="js-line" d="M0,12.76L10.19,33.18L20.38,47.22L30.57,55.64L40.75,60.49L71.32,64.06L81.51,69.94L101.89,84.74L112.08,89.33L132.45,93.16L142.64,97.5L163.02,110.01L173.21,116.64L193.58,128.13L203.77,132.72L234.34,148.04L244.53,154.16L264.91,168.71L275.09,176.37L285.28,183.52L295.47,188.88L305.66,190.92L315.85,190.41L336.23,186.32L346.42,186.83L376.98,192.45L387.17,192.45L397.36,190.41L407.55,187.6L417.74,186.58L427.92,187.6L458.49,195L468.68,195.77L478.87,195.51L489.06,194.24L509.43,192.19L519.62,192.45L529.81,193.73L540,196.53" style="vector-effect: none; fill: none; stroke: rgb(244, 106, 37); stroke-opacity: 1; stroke-width: 0.001px; opacity: 1;"/></g><g class="points"/><g class="text"/></g><g class="trace scatter trace00e8c6" style="stroke-miterlimit: 2;"><g class="fills"/><g class="errorbars"/><g class="lines"><path class="js-line" d="M0,12.76L10.19,44.92L20.38,64.83L30.57,77.34L40.75,84.48L50.94,88.82L61.13,91.89L71.32,96.22L81.51,102.86L101.89,118.43L112.08,123.54L132.45,128.9L142.64,132.98L193.58,161.57L203.77,166.16L234.34,179.94L244.53,185.05L264.91,196.53L275.09,202.4L285.28,207.51L295.47,211.59L305.66,213.38L315.85,213.12L336.23,210.83L346.42,211.34L356.6,212.36L366.79,214.14L376.98,215.42L387.17,215.42L417.74,211.59L427.92,212.61L458.49,218.23L468.68,218.74L489.06,218.23L499.25,217.46L519.62,217.46L529.81,218.74L540,220.78" style="vector-effect: none; fill: none; stroke: rgb(244, 106, 37); stroke-opacity: 1; stroke-width: 0.001px; opacity: 1;"/></g><g class="points"/><g class="text"/></g><g class="trace scatter traced49c6f" style="stroke-miterlimit: 2; opacity: 1;"><g class="fills"/><g class="errorbars"/><g class="lines"><path class="js-line" d="M0,12.76L10.19,39.05L20.38,56.15L30.57,67.13L40.75,73.25L50.94,76.06L61.13,77.59L71.32,80.66L81.51,86.78L101.89,102.61L112.08,107.46L132.45,112.56L142.64,116.39L163.02,128.13L173.21,134.77L193.58,146L203.77,150.59L224.15,160.03L234.34,165.39L254.72,177.14L264.91,183.77L285.28,196.53L295.47,201.13L305.66,203.17L315.85,202.91L336.23,200.11L346.42,200.36L356.6,201.64L366.79,203.68L376.98,204.96L387.17,204.96L417.74,200.36L427.92,201.38L458.49,208.02L468.68,208.53L478.87,208.53L489.06,207.76L499.25,206.74L509.43,206.49L519.62,206.74L529.81,208.02L540,210.06" style="vector-effect: none; fill: none; stroke: rgb(244, 106, 37); stroke-opacity: 1; stroke-width: 2px; opacity: 1;"/></g><g class="points"/><g class="text"/></g><g class="trace scatter trace195dc5" style="stroke-miterlimit: 2;"><g class="fills"><g><path class="js-fill" d="M0,12.76L10.19,37.52L20.38,56.66L30.57,71.21L40.75,82.44L50.94,91.38L61.13,98.27L71.32,103.88L81.51,108.48L112.08,121.49L122.26,125.83L142.64,134.26L152.83,138.85L193.58,160.03L203.77,165.65L244.53,186.83L254.72,191.43L275.09,199.6L285.28,202.91L305.66,208.02L315.85,210.06L336.23,212.61L346.42,213.12L366.79,213.63L376.98,213.89L438.11,214.14L448.3,214.66L478.87,215.93L489.06,216.7L540,220.27L540,197.04L529.81,196.02L519.62,195L489.06,192.96L478.87,192.45L438.11,190.66L427.92,190.66L397.36,190.92L387.17,191.68L366.79,191.94L356.6,192.19L326.04,189.64L315.85,188.11L295.47,182.5L285.28,179.18L264.91,169.99L254.72,164.63L234.34,152.89L224.15,146.51L173.21,115.11L163.02,108.99L142.64,99.29L132.45,94.95L101.89,84.99L91.7,82.19L71.32,74.78L61.13,70.19L50.94,64.32L40.75,57.94L20.38,39.56L10.19,27.31L0,12.76Z" style="fill: rgb(18, 67, 109); fill-opacity: 0.3; stroke-width: 0;"/></g></g><g class="errorbars"/><g class="lines"><path class="js-line" d="M0,12.76L10.19,27.31L20.38,39.56L40.75,57.94L50.94,64.32L61.13,70.19L71.32,74.78L91.7,82.19L101.89,84.99L132.45,94.95L142.64,99.29L163.02,108.99L173.21,115.11L224.15,146.51L234.34,152.89L254.72,164.63L264.91,169.99L285.28,179.18L295.47,182.5L315.85,188.11L326.04,189.64L356.6,192.19L366.79,191.94L387.17,191.68L397.36,190.92L427.92,190.66L438.11,190.66L478.87,192.45L489.06,192.96L519.62,195L529.81,196.02L540,197.04" style="vector-effect: none; fill: none; stroke: rgb(18, 67, 109); stroke-opacity: 1; stroke-width: 0.001px; opacity: 1;"/></g><g class="points"/><g class="text"/></g><g class="trace scatter tracec11d0b" style="stroke-miterlimit: 2;"><g class="fills"/><g class="errorbars"/><g class="lines"><path class="js-line" d="M0,12.76L10.19,37.52L20.38,56.66L30.57,71.21L40.75,82.44L50.94,91.38L61.13,98.27L71.32,103.88L81.51,108.48L112.08,121.49L122.26,125.83L142.64,134.26L152.83,138.85L193.58,160.03L203.77,165.65L244.53,186.83L254.72,191.43L275.09,199.6L285.28,202.91L305.66,208.02L315.85,210.06L336.23,212.61L346.42,213.12L366.79,213.63L376.98,213.89L438.11,214.14L448.3,214.66L478.87,215.93L489.06,216.7L540,220.27" style="vector-effect: none; fill: none; stroke: rgb(18, 67, 109); stroke-opacity: 1; stroke-width: 0.001px; opacity: 1;"/></g><g class="points"/><g class="text"/></g><g class="trace scatter tracef93232" style="stroke-miterlimit: 2; opacity: 1;"><g class="fills"/><g class="errorbars"/><g class="lines"><path class="js-line" d="M0,12.76L10.19,32.67L20.38,48.24L30.57,60.49L40.75,70.19L50.94,78.1L61.13,84.48L81.51,94.18L91.7,98.01L142.64,117.66L152.83,122.26L183.4,138.85L193.58,144.72L234.34,168.71L244.53,174.07L264.91,184.03L275.09,188.37L295.47,195.26L305.66,198.06L326.04,201.64L336.23,202.91L356.6,203.94L366.79,204.19L427.92,203.42L438.11,203.42L478.87,205.21L489.06,205.98L540,209.55" style="vector-effect: none; fill: none; stroke: rgb(18, 67, 109); stroke-opacity: 1; stroke-width: 2px; opacity: 1;"/></g><g class="points"/><g class="text"/></g></g></g></g><path class="xlines-above crisp" d="M79,368.5H620" style="fill: none; stroke-width: 1px; stroke: rgb(36, 36, 36); stroke-opacity: 1;"/><path class="ylines-above crisp" d="M79.5,100V368" style="fill: none; stroke-width: 1px; stroke: rgb(36, 36, 36); stroke-opacity: 1;"/><g class="overlines-above"/><g class="xaxislayer-above"><path class="xtick ticks crisp" d="M0,369v5" transform="translate(100.38,0)" style="stroke: rgb(68, 68, 68); stroke-opacity: 1; stroke-width: 1px;"/><path class="xtick ticks crisp" d="M0,369v5" transform="translate(141.13,0)" style="stroke: rgb(68, 68, 68); stroke-opacity: 1; stroke-width: 1px;"/><path class="xtick ticks crisp" d="M0,369v5" transform="translate(181.89,0)" style="stroke: rgb(68, 68, 68); stroke-opacity: 1; stroke-width: 1px;"/><path class="xtick ticks crisp" d="M0,369v5" transform="translate(222.64,0)" style="stroke: rgb(68, 68, 68); stroke-opacity: 1; stroke-width: 1px;"/><path class="xtick ticks crisp" d="M0,369v5" transform="translate(263.4,0)" style="stroke: rgb(68, 68, 68); stroke-opacity: 1; stroke-width: 1px;"/><path class="xtick ticks crisp" d="M0,369v5" transform="translate(304.15,0)" style="stroke: rgb(68, 68, 68); stroke-opacity: 1; stroke-width: 1px;"/><path class="xtick ticks crisp" d="M0,369v5" transform="translate(344.91,0)" style="stroke: rgb(68, 68, 68); stroke-opacity: 1; stroke-width: 1px;"/><path class="xtick ticks crisp" d="M0,369v5" transform="translate(385.66,0)" style="stroke: rgb(68, 68, 68); stroke-opacity: 1; stroke-width: 1px;"/><path class="xtick ticks crisp" d="M0,369v5" transform="translate(426.42,0)" style="stroke: rgb(68, 68, 68); stroke-opacity: 1; stroke-width: 1px;"/><path class="xtick ticks crisp" d="M0,369v5" transform="translate(467.17,0)" style="stroke: rgb(68, 68, 68); stroke-opacity: 1; stroke-width: 1px;"/><path class="xtick ticks crisp" d="M0,369v5" transform="translate(507.92,0)" style="stroke: rgb(68, 68, 68); stroke-opacity: 1; stroke-width: 1px;"/><path class="xtick ticks crisp" d="M0,369v5" transform="translate(548.6800000000001,0)" style="stroke: rgb(68, 68, 68); stroke-opacity: 1; stroke-width: 1px;"/><path class="xtick ticks crisp" d="M0,369v5" transform="translate(589.4300000000001,0)" style="stroke: rgb(68, 68, 68); stroke-opacity: 1; stroke-width: 1px;"/><g class="xtick"><text text-anchor="middle" x="0" y="388.4" transform="translate(100.38,0)" style="font-family: 'Open Sans', verdana, arial, sans-serif; font-size: 12px; fill: rgb(36, 36, 36); fill-opacity: 1; white-space: pre; opacity: 1;">1972</text></g><g class="xtick"><text text-anchor="middle" x="0" y="388.4" style="font-family: 'Open Sans', verdana, arial, sans-serif; font-size: 12px; fill: rgb(36, 36, 36); fill-opacity: 1; white-space: pre; opacity: 1;" transform="translate(141.13,0)">1976</text></g><g class="xtick"><text text-anchor="middle" x="0" y="388.4" style="font-family: 'Open Sans', verdana, arial, sans-serif; font-size: 12px; fill: rgb(36, 36, 36); fill-opacity: 1; white-space: pre; opacity: 1;" transform="translate(181.89,0)">1980</text></g><g class="xtick"><text text-anchor="middle" x="0" y="388.4" style="font-family: 'Open Sans', verdana, arial, sans-serif; font-size: 12px; fill: rgb(36, 36, 36); fill-opacity: 1; white-space: pre; opacity: 1;" transform="translate(222.64,0)">1984</text></g><g class="xtick"><text text-anchor="middle" x="0" y="388.4" style="font-family: 'Open Sans', verdana, arial, sans-serif; font-size: 12px; fill: rgb(36, 36, 36); fill-opacity: 1; white-space: pre; opacity: 1;" transform="translate(263.4,0)">1988</text></g><g class="xtick"><text text-anchor="middle" x="0" y="388.4" style="font-family: 'Open Sans', verdana, arial, sans-serif; font-size: 12px; fill: rgb(36, 36, 36); fill-opacity: 1; white-space: pre; opacity: 1;" transform="translate(304.15,0)">1992</text></g><g class="xtick"><text text-anchor="middle" x="0" y="388.4" style="font-family: 'Open Sans', verdana, arial, sans-serif; font-size: 12px; fill: rgb(36, 36, 36); fill-opacity: 1; white-space: pre; opacity: 1;" transform="translate(344.91,0)">1996</text></g><g class="xtick"><text text-anchor="middle" x="0" y="388.4" style="font-family: 'Open Sans', verdana, arial, sans-serif; font-size: 12px; fill: rgb(36, 36, 36); fill-opacity: 1; white-space: pre; opacity: 1;" transform="translate(385.66,0)">2000</text></g><g class="xtick"><text text-anchor="middle" x="0" y="388.4" style="font-family: 'Open Sans', verdana, arial, sans-serif; font-size: 12px; fill: rgb(36, 36, 36); fill-opacity: 1; white-space: pre; opacity: 1;" transform="translate(426.42,0)">2004</text></g><g class="xtick"><text text-anchor="middle" x="0" y="388.4" style="font-family: 'Open Sans', verdana, arial, sans-serif; font-size: 12px; fill: rgb(36, 36, 36); fill-opacity: 1; white-space: pre; opacity: 1;" transform="translate(467.17,0)">2008</text></g><g class="xtick"><text text-anchor="middle" x="0" y="388.4" style="font-family: 'Open Sans', verdana, arial, sans-serif; font-size: 12px; fill: rgb(36, 36, 36); fill-opacity: 1; white-space: pre; opacity: 1;" transform="translate(507.92,0)">2012</text></g><g class="xtick"><text text-anchor="middle" x="0" y="388.4" style="font-family: 'Open Sans', verdana, arial, sans-serif; font-size: 12px; fill: rgb(36, 36, 36); fill-opacity: 1; white-space: pre; opacity: 1;" transform="translate(548.6800000000001,0)">2016</text></g><g class="xtick"><text text-anchor="middle" x="0" y="388.4" style="font-family: 'Open Sans', verdana, arial, sans-serif; font-size: 12px; fill: rgb(36, 36, 36); fill-opacity: 1; white-space: pre; opacity: 1;" transform="translate(589.4300000000001,0)">2020</text></g></g><g class="yaxislayer-above"><path class="ytick ticks crisp" d="M79,0h-5" transform="translate(0,368)" style="stroke: rgb(68, 68, 68); stroke-opacity: 1; stroke-width: 1px;"/><path class="ytick ticks crisp" d="M79,0h-5" transform="translate(0,316.95)" style="stroke: rgb(68, 68, 68); stroke-opacity: 1; stroke-width: 1px;"/><path class="ytick ticks crisp" d="M79,0h-5" transform="translate(0,265.9)" style="stroke: rgb(68, 68, 68); stroke-opacity: 1; stroke-width: 1px;"/><path class="ytick ticks crisp" d="M79,0h-5" transform="translate(0,214.86)" style="stroke: rgb(68, 68, 68); stroke-opacity: 1; stroke-width: 1px;"/><path class="ytick ticks crisp" d="M79,0h-5" transform="translate(0,163.81)" style="stroke: rgb(68, 68, 68); stroke-opacity: 1; stroke-width: 1px;"/><path class="ytick ticks crisp" d="M79,0h-5" transform="translate(0,112.76)" style="stroke: rgb(68, 68, 68); stroke-opacity: 1; stroke-width: 1px;"/><g class="ytick"><text text-anchor="end" x="71.6" y="4.199999999999999" transform="translate(0,368)" style="font-family: 'Open Sans', verdana, arial, sans-serif; font-size: 12px; fill: rgb(36, 36, 36); fill-opacity: 1; white-space: pre; opacity: 1;">0</text></g><g class="ytick"><text text-anchor="end" x="71.6" y="4.199999999999999" style="font-family: 'Open Sans', verdana, arial, sans-serif; font-size: 12px; fill: rgb(36, 36, 36); fill-opacity: 1; white-space: pre; opacity: 1;" transform="translate(0,316.95)">20</text></g><g class="ytick"><text text-anchor="end" x="71.6" y="4.199999999999999" style="font-family: 'Open Sans', verdana, arial, sans-serif; font-size: 12px; fill: rgb(36, 36, 36); fill-opacity: 1; white-space: pre; opacity: 1;" transform="translate(0,265.9)">40</text></g><g class="ytick"><text text-anchor="end" x="71.6" y="4.199999999999999" style="font-family: 'Open Sans', verdana, arial, sans-serif; font-size: 12px; fill: rgb(36, 36, 36); fill-opacity: 1; white-space: pre; opacity: 1;" transform="translate(0,214.86)">60</text></g><g class="ytick"><text text-anchor="end" x="71.6" y="4.199999999999999" style="font-family: 'Open Sans', verdana, arial, sans-serif; font-size: 12px; fill: rgb(36, 36, 36); fill-opacity: 1; white-space: pre; opacity: 1;" transform="translate(0,163.81)">80</text></g><g class="ytick"><text text-anchor="end" x="71.6" y="4.199999999999999" style="font-family: 'Open Sans', verdana, arial, sans-serif; font-size: 12px; fill: rgb(36, 36, 36); fill-opacity: 1; white-space: pre; opacity: 1;" transform="translate(0,112.76)">100</text></g></g><g class="overaxes-above"/></g></g><g class="polarlayer"/><g class="smithlayer"/><g class="ternarylayer"/><g class="geolayer"/><g class="funnelarealayer"/><g class="pielayer"/><g class="iciclelayer"/><g class="treemaplayer"/><g class="sunburstlayer"/><g class="glimages"/><defs id="topdefs-fc8af8"><g class="clips"/><clipPath id="legendfc8af8"><rect width="472" height="48" x="0" y="0"/></clipPath></defs><g class="layer-above"><g class="imagelayer"/><g class="shapelayer"><g class="shape-group" data-index="0" clip-path="url(#clipfc8af8y)"><path data-index="0" fill-rule="evenodd" d="M80,112.76L620,112.76" style="opacity: 1; stroke: rgb(143, 143, 143); stroke-opacity: 1; fill: rgb(0, 0, 0); fill-opacity: 1; stroke-dasharray: 9px, 9px; stroke-width: 2px;"/></g></g></g><g class="infolayer"><g class="legend" pointer-events="all" transform="translate(114,440.59999999999997)"><rect class="bg" shape-rendering="crispEdges" width="472" height="48" x="0" y="0" style="stroke: rgb(68, 68, 68); stroke-opacity: 1; fill: rgb(255, 255, 255); fill-opacity: 1; stroke-width: 0px;"/><g class="scrollbox" transform="" clip-path="url(#legendfc8af8)"><g class="groups"><g class="traces" transform="translate(0,14.5)" style="opacity: 1;"><text class="legendtext" text-anchor="start" x="40" y="4.680000000000001" style="font-family: 'Open Sans', verdana, arial, sans-serif; font-size: 12px; fill: rgb(36, 36, 36); fill-opacity: 1; white-space: pre;">Smoothed index (option 1)</text><g class="layers" style="opacity: 1;"><g class="legendfill"/><g class="legendlines"><path class="js-line" d="M5,0h30" style="fill: none; stroke: rgb(18, 67, 109); stroke-opacity: 1; stroke-width: 2px;"/></g><g class="legendsymbols"><g class="legendpoints"/></g></g><rect class="legendtoggle" x="0" y="-9.5" width="203.03125" height="19" style="fill: rgb(0, 0, 0); fill-opacity: 0;"/></g><g class="traces" transform="translate(235.5625,14.5)" style="opacity: 1;"><text class="legendtext" text-anchor="start" x="40" y="4.680000000000001" style="font-family: 'Open Sans', verdana, arial, sans-serif; font-size: 12px; fill: rgb(36, 36, 36); fill-opacity: 1; white-space: pre;">95% credible interval (option 1)</text><g class="layers"><g class="legendfill"><path class="js-fill" d="M5,-2h30v6h-30z" style="stroke-width: 0; fill: rgb(18, 67, 109); fill-opacity: 0.3;"/></g><g class="legendlines"><path class="js-line" d="M5,-2h30" style="fill: none; stroke: rgb(18, 67, 109); stroke-opacity: 1; stroke-width: 0.001px;"/></g><g class="legendsymbols"><g class="legendpoints"/></g></g><rect class="legendtoggle" x="0" y="-9.5" width="233.0625" height="19" style="fill: rgb(0, 0, 0); fill-opacity: 0;"/></g><g class="traces" transform="translate(0,33.5)" style="opacity: 1;"><text class="legendtext" text-anchor="start" x="40" y="4.680000000000001" style="font-family: 'Open Sans', verdana, arial, sans-serif; font-size: 12px; fill: rgb(36, 36, 36); fill-opacity: 1; white-space: pre;">Smoothed index (option 2)</text><g class="layers" style="opacity: 1;"><g class="legendfill"/><g class="legendlines"><path class="js-line" d="M5,0h30" style="fill: none; stroke: rgb(244, 106, 37); stroke-opacity: 1; stroke-width: 2px;"/></g><g class="legendsymbols"><g class="legendpoints"/></g></g><rect class="legendtoggle" x="0" y="-9.5" width="203.03125" height="19" style="fill: rgb(0, 0, 0); fill-opacity: 0;"/></g><g class="traces" transform="translate(235.5625,33.5)" style="opacity: 1;"><text class="legendtext" text-anchor="start" x="40" y="4.680000000000001" style="font-family: 'Open Sans', verdana, arial, sans-serif; font-size: 12px; fill: rgb(36, 36, 36); fill-opacity: 1; white-space: pre;">95% credible interval (option 2)</text><g class="layers"><g class="legendfill"><path class="js-fill" d="M5,-2h30v6h-30z" style="stroke-width: 0; fill: rgb(244, 106, 37); fill-opacity: 0.4;"/></g><g class="legendlines"><path class="js-line" d="M5,-2h30" style="fill: none; stroke: rgb(244, 106, 37); stroke-opacity: 1; stroke-width: 0.001px;"/></g><g class="legendsymbols"><g class="legendpoints"/></g></g><rect class="legendtoggle" x="0" y="-9.5" width="233.0625" height="19" style="fill: rgb(0, 0, 0); fill-opacity: 0;"/></g></g></g><rect class="scrollbar" rx="20" ry="3" width="0" height="0" x="0" y="0" style="fill: rgb(128, 139, 164); fill-opacity: 1;"/></g><g class="g-gtitle"/><g class="g-xtitle"/><g class="g-ytitle"><text class="ytitle" transform="rotate(-90,29.2875,234)" x="29.2875" y="234" text-anchor="middle" style="opacity: 1; font-family: 'Open Sans', verdana, arial, sans-serif; font-size: 14px; fill: rgb(36, 36, 36); fill-opacity: 1; white-space: pre;">Index (1970 = 100)</text></g><g class="annotation" data-index="0" style="opacity: 1;"><g class="annotation-text-g" transform="rotate(0,592.5,103.76)"><g class="cursor-pointer" transform="translate(565,95)"><rect class="bg" x="0.5" y="0.5" width="54" height="17" style="stroke-width: 1px; stroke: rgb(0, 0, 0); stroke-opacity: 0; fill: rgb(0, 0, 0); fill-opacity: 0;"/><text class="annotation-text" text-anchor="middle" x="27.453125" y="13" style="font-family: 'Open Sans', verdana, arial, sans-serif; font-size: 12px; fill: rgb(36, 36, 36); fill-opacity: 1; white-space: pre;">Baseline</text></g></g></g></g></svg>