<svg class="main-svg" xmlns="http://www.w3.org/2000/svg" xmlns:xlink="http://www.w3.org/1999/xlink" width="700" height="500" style="" viewBox="0 0 700 500"><rect x="0" y="0" width="700" height="500" style="fill: rgb(255, 255, 255); fill-opacity: 1;"/><defs id="defs-f8bd0e"><g class="clips"><clipPath id="clipf8bd0exyplot" class="plotclip"><rect width="540" height="268"/></clipPath><clipPath class="axesclip" id="clipf8bd0ex"><rect x="80" y="0" width="540" height="500"/></clipPath><clipPath class="axesclip" id="clipf8bd0ey"><rect x="0" y="100" width="700" height="268"/></clipPath><clipPath class="axesclip" id="clipf8bd0exy"><rect x="80" y="100" width="540" height="268"/></clipPath></g><g class="gradients"/><g class="patterns"/></defs><g class="bglayer"/><g class="layer-below"><g class="imagelayer"/><g class="shapelayer"/></g><g class="cartesianlayer"><g class="subplot xy"><g class="layer-subplot"><g class="shapelayer"/><g class="imagelayer"/></g><g class="minor-gridlayer"><g class="x"/><g class="y"/></g><g class="gridlayer"><g class="x"/><g class="y"><path class="ygrid crisp" transform="translate(0,323.33000000000004)" d="M80,0h540" style="stroke: rgb(232, 232, 232); stroke-opacity: 1; stroke-width: 1px;"/><path class="ygrid crisp" transform="translate(0,278.66999999999996)" d="M80,0h540" style="stroke: rgb(232, 232, 232); stroke-opacity: 1; stroke-width: 1px;"/><path class="ygrid crisp" transform="translate(0,234)" d="M80,0h540" style="stroke: rgb(232, 232, 232); stroke-opacity: 1; stroke-width: 1px;"/><path class="ygrid crisp" transform="translate(0,189.32999999999998)" d="M80,0h540" style="stroke: rgb(232, 232, 232); stroke-opacity: 1; stroke-width: 1px;"/><path class="ygrid crisp" transform="translate(0,144.67000000000002)" d="M80,0h540" style="stroke: rgb(232, 232, 232); stroke-opacity: 1; stroke-width: 1px;"/></g></g><g class="zerolinelayer"/><path class="xlines-below"/><path class="ylines-below"/><g class="overlines-below"/><g class="xaxislayer-below"/><g class="yaxislayer-below"/><g class="overaxes-below"/><g class="plot" transform="translate(80,100)" clip-path="url(#clipf8bd0exyplot)"><g class="scatterlayer mlayer"><g class="trace scatter traceadfb28" style="stroke-miterlimit: 2;"><g class="fills"><g><path class="js-fill" d="M0,44.67L13.85,47.91L27.69,48.61L41.54,48.06L55.38,45.99L83.08,40.7L96.92,38.76L110.77,40.74L124.62,44.39L138.46,48.39L152.31,50.19L166.15,49.53L180,47.94L193.85,46.32L207.69,46.79L221.54,48.51L235.38,51.43L249.23,54.18L263.08,56.06L290.77,59.45L304.62,59.86L346.15,60.11L360,60.36L387.69,63.28L401.54,66.08L443.08,78.42L456.92,81.45L484.62,85.86L498.46,88.12L540,95.65L540,87.84L526.15,87.02L484.62,80.82L470.77,78.95L456.92,76.19L443.08,73.06L401.54,60.43L387.69,57.81L373.85,56.03L360,54.59L304.62,54.13L290.77,53.72L263.08,50.19L249.23,48.11L235.38,45.07L221.54,42.08L207.69,40.15L193.85,39.9L180,41.89L166.15,43.09L152.31,43.07L138.46,41.52L110.77,34L96.92,32.08L69.23,37.26L55.38,39.94L41.54,41.85L27.69,42.7L0,44.67Z" style="fill: rgb(63, 148, 222); fill-opacity: 1; stroke-width: 0;"/></g></g><g class="errorbars"/><g class="lines"><path class="js-line" d="M0,44.67L27.69,42.7L41.54,41.85L55.38,39.94L69.23,37.26L96.92,32.08L110.77,34L138.46,41.52L152.31,43.07L166.15,43.09L180,41.89L193.85,39.9L207.69,40.15L221.54,42.08L235.38,45.07L249.23,48.11L263.08,50.19L290.77,53.72L304.62,54.13L360,54.59L373.85,56.03L387.69,57.81L401.54,60.43L443.08,73.06L456.92,76.19L470.77,78.95L484.62,80.82L526.15,87.02L540,87.84" style="vector-effect: non-scaling-stroke; fill: none; stroke: rgb(31, 119, 180); stroke-opacity: 1; stroke-width: 0px; opacity: 1;"/></g><g class="points"/><g class="text"/></g><g class="trace scatter tracea5126c" style="stroke-miterlimit: 2;"><g class="fills"/><g class="errorbars"/><g class="lines"><path class="js-line" d="M0,44.67L13.85,47.91L27.69,48.61L41.54,48.06L55.38,45.99L83.08,40.7L96.92,38.76L110.77,40.74L124.62,44.39L138.46,48.39L152.31,50.19L166.15,49.53L180,47.94L193.85,46.32L207.69,46.79L221.54,48.51L235.38,51.43L249.23,54.18L263.08,56.06L290.77,59.45L304.62,59.86L346.15,60.11L360,60.36L387.69,63.28L401.54,66.08L443.08,78.42L456.92,81.45L484.62,85.86L498.46,88.12L540,95.65" style="vector-effect: non-scaling-stroke; fill: none; stroke: rgb(255, 127, 14); stroke-opacity: 1; stroke-width: 0px; opacity: 1;"/></g><g class="points"/><g class="text"/></g><g class="trace scatter trace016ccd" style="stroke-miterlimit: 2; opacity: 1;"><g class="fills"/><g class="errorbars"/><g class="lines"><path class="js-line" d="M0,44.67L13.85,45.64L27.69,45.7L41.54,45.02L55.38,43.01L96.92,35.46L110.77,37.36L138.46,44.98L152.31,46.71L166.15,46.35L180,44.88L193.85,43.16L207.69,43.39L221.54,45.41L235.38,48.36L249.23,51.27L263.08,53.26L290.77,56.59L304.62,57.02L346.15,57.35L360,57.49L387.69,60.6L401.54,63.3L443.08,75.74L456.92,78.82L484.62,83.4L498.46,85.54L540,91.86" style="vector-effect: non-scaling-stroke; fill: none; stroke: rgb(18, 67, 109); stroke-opacity: 1; stroke-width: 2px; opacity: 1;"/></g><g class="points"><path class="point" transform="translate(0,44.67)" d="M3,0A3,3 0 1,1 0,-3A3,3 0 0,1 3,0Z" style="opacity: 1; stroke-width: 0px; fill: rgb(18, 67, 109); fill-opacity: 1;"/><path class="point" transform="translate(13.85,45.64)" d="M3,0A3,3 0 1,1 0,-3A3,3 0 0,1 3,0Z" style="opacity: 1; stroke-width: 0px; fill: rgb(18, 67, 109); fill-opacity: 1;"/><path class="point" transform="translate(27.69,45.7)" d="M3,0A3,3 0 1,1 0,-3A3,3 0 0,1 3,0Z" style="opacity: 1; stroke-width: 0px; fill: rgb(18, 67, 109); fill-opacity: 1;"/><path class="point" transform="translate(41.54,45.02)" d="M3,0A3,3 0 1,1 0,-3A3,3 0 0,1 3,0Z" style="opacity: 1; stroke-width: 0px; fill: rgb(18, 67, 109); fill-opacity: 1;"/><path class="point" transform="translate(55.38,43.01)" d="M3,0A3,3 0 1,1 0,-3A3,3 0 0,1 3,0Z" style="opacity: 1; stroke-width: 0px; fill: rgb(18, 67, 109); fill-opacity: 1;"/><path class="point" transform="translate(69.23,40.27)" d="M3,0A3,3 0 1,1 0,-3A3,3 0 0,1 3,0Z" style="opacity: 1; stroke-width: 0px; fill: rgb(18, 67, 109); fill-opacity: 1;"/><path class="point" transform="translate(83.08,37.61)" d="M3,0A3,3 0 1,1 0,-3A3,3 0 0,1 3,0Z" style="opacity: 1; stroke-width: 0px; fill: rgb(18, 67, 109); fill-opacity: 1;"/><path class="point" transform="translate(96.92,35.46)" d="M3,0A3,3 0 1,1 0,-3A3,3 0 0,1 3,0Z" style="opacity: 1; stroke-width: 0px; fill: rgb(18, 67, 109); fill-opacity: 1;"/><path class="point" transform="translate(110.77,37.36)" d="M3,0A3,3 0 1,1 0,-3A3,3 0 0,1 3,0Z" style="opacity: 1; stroke-width: 0px; fill: rgb(18, 67, 109); fill-opacity: 1;"/><path class="point" transform="translate(124.62,41.21)" d="M3,0A3,3 0 1,1 0,-3A3,3 0 0,1 3,0Z" style="opacity: 1; stroke-width: 0px; fill: rgb(18, 67, 109); fill-opacity: 1;"/><path class="point" transform="translate(138.46,44.98)" d="M3,0A3,3 0 1,1 0,-3A3,3 0 0,1 3,0Z" style="opacity: 1; stroke-width: 0px; fill: rgb(18, 67, 109); fill-opacity: 1;"/><path class="point" transform="translate(152.31,46.71)" d="M3,0A3,3 0 1,1 0,-3A3,3 0 0,1 3,0Z" style="opacity: 1; stroke-width: 0px; fill: rgb(18, 67, 109); fill-opacity: 1;"/><path class="point" transform="translate(166.15,46.35)" d="M3,0A3,3 0 1,1 0,-3A3,3 0 0,1 3,0Z" style="opacity: 1; stroke-width: 0px; fill: rgb(18, 67, 109); fill-opacity: 1;"/><path class="point" transform="translate(180,44.88)" d="M3,0A3,3 0 1,1 0,-3A3,3 0 0,1 3,0Z" style="opacity: 1; stroke-width: 0px; fill: rgb(18, 67, 109); fill-opacity: 1;"/><path class="point" transform="translate(193.85,43.16)" d="M3,0A3,3 0 1,1 0,-3A3,3 0 0,1 3,0Z" style="opacity: 1; stroke-width: 0px; fill: rgb(18, 67, 109); fill-opacity: 1;"/><path class="point" transform="translate(207.69,43.39)" d="M3,0A3,3 0 1,1 0,-3A3,3 0 0,1 3,0Z" style="opacity: 1; stroke-width: 0px; fill: rgb(18, 67, 109); fill-opacity: 1;"/><path class="point" transform="translate(221.54,45.41)" d="M3,0A3,3 0 1,1 0,-3A3,3 0 0,1 3,0Z" style="opacity: 1; stroke-width: 0px; fill: rgb(18, 67, 109); fill-opacity: 1;"/><path class="point" transform="translate(235.38,48.36)" d="M3,0A3,3 0 1,1 0,-3A3,3 0 0,1 3,0Z" style="opacity: 1; stroke-width: 0px; fill: rgb(18, 67, 109); fill-opacity: 1;"/><path class="point" transform="translate(249.23,51.27)" d="M3,0A3,3 0 1,1 0,-3A3,3 0 0,1 3,0Z" style="opacity: 1; stroke-width: 0px; fill: rgb(18, 67, 109); fill-opacity: 1;"/><path class="point" transform="translate(263.08,53.26)" d="M3,0A3,3 0 1,1 0,-3A3,3 0 0,1 3,0Z" style="opacity: 1; stroke-width: 0px; fill: rgb(18, 67, 109); fill-opacity: 1;"/><path class="point" transform="translate(276.92,55.06)" d="M3,0A3,3 0 1,1 0,-3A3,3 0 0,1 3,0Z" style="opacity: 1; stroke-width: 0px; fill: rgb(18, 67, 109); fill-opacity: 1;"/><path class="point" transform="translate(290.77,56.59)" d="M3,0A3,3 0 1,1 0,-3A3,3 0 0,1 3,0Z" style="opacity: 1; stroke-width: 0px; fill: rgb(18, 67, 109); fill-opacity: 1;"/><path class="point" transform="translate(304.62,57.02)" d="M3,0A3,3 0 1,1 0,-3A3,3 0 0,1 3,0Z" style="opacity: 1; stroke-width: 0px; fill: rgb(18, 67, 109); fill-opacity: 1;"/><path class="point" transform="translate(318.46,56.91)" d="M3,0A3,3 0 1,1 0,-3A3,3 0 0,1 3,0Z" style="opacity: 1; stroke-width: 0px; fill: rgb(18, 67, 109); fill-opacity: 1;"/><path class="point" transform="translate(332.31,57.33)" d="M3,0A3,3 0 1,1 0,-3A3,3 0 0,1 3,0Z" style="opacity: 1; stroke-width: 0px; fill: rgb(18, 67, 109); fill-opacity: 1;"/><path class="point" transform="translate(346.15,57.35)" d="M3,0A3,3 0 1,1 0,-3A3,3 0 0,1 3,0Z" style="opacity: 1; stroke-width: 0px; fill: rgb(18, 67, 109); fill-opacity: 1;"/><path class="point" transform="translate(360,57.49)" d="M3,0A3,3 0 1,1 0,-3A3,3 0 0,1 3,0Z" style="opacity: 1; stroke-width: 0px; fill: rgb(18, 67, 109); fill-opacity: 1;"/><path class="point" transform="translate(373.85,58.84)" d="M3,0A3,3 0 1,1 0,-3A3,3 0 0,1 3,0Z" style="opacity: 1; stroke-width: 0px; fill: rgb(18, 67, 109); fill-opacity: 1;"/><path class="point" transform="translate(387.69,60.6)" d="M3,0A3,3 0 1,1 0,-3A3,3 0 0,1 3,0Z" style="opacity: 1; stroke-width: 0px; fill: rgb(18, 67, 109); fill-opacity: 1;"/><path class="point" transform="translate(401.54,63.3)" d="M3,0A3,3 0 1,1 0,-3A3,3 0 0,1 3,0Z" style="opacity: 1; stroke-width: 0px; fill: rgb(18, 67, 109); fill-opacity: 1;"/><path class="point" transform="translate(415.38,67.25)" d="M3,0A3,3 0 1,1 0,-3A3,3 0 0,1 3,0Z" style="opacity: 1; stroke-width: 0px; fill: rgb(18, 67, 109); fill-opacity: 1;"/><path class="point" transform="translate(429.23,71.75)" d="M3,0A3,3 0 1,1 0,-3A3,3 0 0,1 3,0Z" style="opacity: 1; stroke-width: 0px; fill: rgb(18, 67, 109); fill-opacity: 1;"/><path class="point" transform="translate(443.08,75.74)" d="M3,0A3,3 0 1,1 0,-3A3,3 0 0,1 3,0Z" style="opacity: 1; stroke-width: 0px; fill: rgb(18, 67, 109); fill-opacity: 1;"/><path class="point" transform="translate(456.92,78.82)" d="M3,0A3,3 0 1,1 0,-3A3,3 0 0,1 3,0Z" style="opacity: 1; stroke-width: 0px; fill: rgb(18, 67, 109); fill-opacity: 1;"/><path class="point" transform="translate(470.77,81.41)" d="M3,0A3,3 0 1,1 0,-3A3,3 0 0,1 3,0Z" style="opacity: 1; stroke-width: 0px; fill: rgb(18, 67, 109); fill-opacity: 1;"/><path class="point" transform="translate(484.62,83.4)" d="M3,0A3,3 0 1,1 0,-3A3,3 0 0,1 3,0Z" style="opacity: 1; stroke-width: 0px; fill: rgb(18, 67, 109); fill-opacity: 1;"/><path class="point" transform="translate(498.46,85.54)" d="M3,0A3,3 0 1,1 0,-3A3,3 0 0,1 3,0Z" style="opacity: 1; stroke-width: 0px; fill: rgb(18, 67, 109); fill-opacity: 1;"/><path class="point" transform="translate(512.31,87.9)" d="M3,0A3,3 0 1,1 0,-3A3,3 0 0,1 3,0Z" style="opacity: 1; stroke-width: 0px; fill: rgb(18, 67, 109); fill-opacity: 1;"/><path class="point" transform="translate(526.15,90.02)" d="M3,0A3,3 0 1,1 0,-3A3,3 0 0,1 3,0Z" style="opacity: 1; stroke-width: 0px; fill: rgb(18, 67, 109); fill-opacity: 1;"/><path class="point" transform="translate(540,91.86)" d="M3,0A3,3 0 1,1 0,-3A3,3 0 0,1 3,0Z" style="opacity: 1; stroke-width: 0px; fill: rgb(18, 67, 109); fill-opacity: 1;"/></g><g class="text"/></g></g></g><g class="overplot"/><path class="xlines-above crisp" d="M79,368.5H620" style="fill: none; stroke-width: 1px; stroke: rgb(36, 36, 36); stroke-opacity: 1;"/><path class="ylines-above crisp" d="M79.5,100V368" style="fill: none; stroke-width: 1px; stroke: rgb(36, 36, 36); stroke-opacity: 1;"/><g class="overlines-above"/><g class="xaxislayer-above"><path class="xtick ticks crisp" d="M0,369v5" transform="translate(80,0)" style="stroke: rgb(68, 68, 68); stroke-opacity: 1; stroke-width: 1px;"/><path class="xtick ticks crisp" d="M0,369v5" transform="translate(107.69,0)" style="stroke: rgb(68, 68, 68); stroke-opacity: 1; stroke-width: 1px;"/><path class="xtick ticks crisp" d="M0,369v5" transform="translate(135.38,0)" style="stroke: rgb(68, 68, 68); stroke-opacity: 1; stroke-width: 1px;"/><path class="xtick ticks crisp" d="M0,369v5" transform="translate(163.07999999999998,0)" style="stroke: rgb(68, 68, 68); stroke-opacity: 1; stroke-width: 1px;"/><path class="xtick ticks crisp" d="M0,369v5" transform="translate(190.76999999999998,0)" style="stroke: rgb(68, 68, 68); stroke-opacity: 1; stroke-width: 1px;"/><path class="xtick ticks crisp" d="M0,369v5" transform="translate(218.46,0)" style="stroke: rgb(68, 68, 68); stroke-opacity: 1; stroke-width: 1px;"/><path class="xtick ticks crisp" d="M0,369v5" transform="translate(246.15,0)" style="stroke: rgb(68, 68, 68); stroke-opacity: 1; stroke-width: 1px;"/><path class="xtick ticks crisp" d="M0,369v5" transform="translate(273.85,0)" style="stroke: rgb(68, 68, 68); stroke-opacity: 1; stroke-width: 1px;"/><path class="xtick ticks crisp" d="M0,369v5" transform="translate(301.53999999999996,0)" style="stroke: rgb(68, 68, 68); stroke-opacity: 1; stroke-width: 1px;"/><path class="xtick ticks crisp" d="M0,369v5" transform="translate(329.23,0)" style="stroke: rgb(68, 68, 68); stroke-opacity: 1; stroke-width: 1px;"/><path class="xtick ticks crisp" d="M0,369v5" transform="translate(356.92,0)" style="stroke: rgb(68, 68, 68); stroke-opacity: 1; stroke-width: 1px;"/><path class="xtick ticks crisp" d="M0,369v5" transform="translate(384.62,0)" style="stroke: rgb(68, 68, 68); stroke-opacity: 1; stroke-width: 1px;"/><path class="xtick ticks crisp" d="M0,369v5" transform="translate(412.31,0)" style="stroke: rgb(68, 68, 68); stroke-opacity: 1; stroke-width: 1px;"/><path class="xtick ticks crisp" d="M0,369v5" transform="translate(440,0)" style="stroke: rgb(68, 68, 68); stroke-opacity: 1; stroke-width: 1px;"/><path class="xtick ticks crisp" d="M0,369v5" transform="translate(467.69,0)" style="stroke: rgb(68, 68, 68); stroke-opacity: 1; stroke-width: 1px;"/><path class="xtick ticks crisp" d="M0,369v5" transform="translate(495.38,0)" style="stroke: rgb(68, 68, 68); stroke-opacity: 1; stroke-width: 1px;"/><path class="xtick ticks crisp" d="M0,369v5" transform="translate(523.0799999999999,0)" style="stroke: rgb(68, 68, 68); stroke-opacity: 1; stroke-width: 1px;"/><path class="xtick ticks crisp" d="M0,369v5" transform="translate(550.77,0)" style="stroke: rgb(68, 68, 68); stroke-opacity: 1; stroke-width: 1px;"/><path class="xtick ticks crisp" d="M0,369v5" transform="translate(578.46,0)" style="stroke: rgb(68, 68, 68); stroke-opacity: 1; stroke-width: 1px;"/><path class="xtick ticks crisp" d="M0,369v5" transform="translate(606.15,0)" style="stroke: rgb(68, 68, 68); stroke-opacity: 1; stroke-width: 1px;"/><g class="xtick"><text text-anchor="start" x="0" y="388.4" transform="translate(80,0) rotate(90,0,382.4)" style="font-family: 'Open Sans', verdana, arial, sans-serif; font-size: 12px; fill: rgb(36, 36, 36); fill-opacity: 1; white-space: pre; opacity: 1;">1980</text></g><g class="xtick"><text text-anchor="start" x="0" y="388.4" style="font-family: 'Open Sans', verdana, arial, sans-serif; font-size: 12px; fill: rgb(36, 36, 36); fill-opacity: 1; white-space: pre; opacity: 1;" transform="translate(107.69,0) rotate(90,0,382.4)">1982</text></g><g class="xtick"><text text-anchor="start" x="0" y="388.4" style="font-family: 'Open Sans', verdana, arial, sans-serif; font-size: 12px; fill: rgb(36, 36, 36); fill-opacity: 1; white-space: pre; opacity: 1;" transform="translate(135.38,0) rotate(90,0,382.4)">1984</text></g><g class="xtick"><text text-anchor="start" x="0" y="388.4" style="font-family: 'Open Sans', verdana, arial, sans-serif; font-size: 12px; fill: rgb(36, 36, 36); fill-opacity: 1; white-space: pre; opacity: 1;" transform="translate(163.07999999999998,0) rotate(90,0,382.4)">1986</text></g><g class="xtick"><text text-anchor="start" x="0" y="388.4" style="font-family: 'Open Sans', verdana, arial, sans-serif; font-size: 12px; fill: rgb(36, 36, 36); fill-opacity: 1; white-space: pre; opacity: 1;" transform="translate(190.76999999999998,0) rotate(90,0,382.4)">1988</text></g><g class="xtick"><text text-anchor="start" x="0" y="388.4" style="font-family: 'Open Sans', verdana, arial, sans-serif; font-size: 12px; fill: rgb(36, 36, 36); fill-opacity: 1; white-space: pre; opacity: 1;" transform="translate(218.46,0) rotate(90,0,382.4)">1990</text></g><g class="xtick"><text text-anchor="start" x="0" y="388.4" style="font-family: 'Open Sans', verdana, arial, sans-serif; font-size: 12px; fill: rgb(36, 36, 36); fill-opacity: 1; white-space: pre; opacity: 1;" transform="translate(246.15,0) rotate(90,0,382.4)">1992</text></g><g class="xtick"><text text-anchor="start" x="0" y="388.4" style="font-family: 'Open Sans', verdana, arial, sans-serif; font-size: 12px; fill: rgb(36, 36, 36); fill-opacity: 1; white-space: pre; opacity: 1;" transform="translate(273.85,0) rotate(90,0,382.4)">1994</text></g><g class="xtick"><text text-anchor="start" x="0" y="388.4" style="font-family: 'Open Sans', verdana, arial, sans-serif; font-size: 12px; fill: rgb(36, 36, 36); fill-opacity: 1; white-space: pre; opacity: 1;" transform="translate(301.53999999999996,0) rotate(90,0,382.4)">1996</text></g><g class="xtick"><text text-anchor="start" x="0" y="388.4" style="font-family: 'Open Sans', verdana, arial, sans-serif; font-size: 12px; fill: rgb(36, 36, 36); fill-opacity: 1; white-space: pre; opacity: 1;" transform="translate(329.23,0) rotate(90,0,382.4)">1998</text></g><g class="xtick"><text text-anchor="start" x="0" y="388.4" style="font-family: 'Open Sans', verdana, arial, sans-serif; font-size: 12px; fill: rgb(36, 36, 36); fill-opacity: 1; white-space: pre; opacity: 1;" transform="translate(356.92,0) rotate(90,0,382.4)">2000</text></g><g class="xtick"><text text-anchor="start" x="0" y="388.4" style="font-family: 'Open Sans', verdana, arial, sans-serif; font-size: 12px; fill: rgb(36, 36, 36); fill-opacity: 1; white-space: pre; opacity: 1;" transform="translate(384.62,0) rotate(90,0,382.4)">2002</text></g><g class="xtick"><text text-anchor="start" x="0" y="388.4" style="font-family: 'Open Sans', verdana, arial, sans-serif; font-size: 12px; fill: rgb(36, 36, 36); fill-opacity: 1; white-space: pre; opacity: 1;" transform="translate(412.31,0) rotate(90,0,382.4)">2004</text></g><g class="xtick"><text text-anchor="start" x="0" y="388.4" style="font-family: 'Open Sans', verdana, arial, sans-serif; font-size: 12px; fill: rgb(36, 36, 36); fill-opacity: 1; white-space: pre; opacity: 1;" transform="translate(440,0) rotate(90,0,382.4)">2006</text></g><g class="xtick"><text text-anchor="start" x="0" y="388.4" style="font-family: 'Open Sans', verdana, arial, sans-serif; font-size: 12px; fill: rgb(36, 36, 36); fill-opacity: 1; white-space: pre; opacity: 1;" transform="translate(467.69,0) rotate(90,0,382.4)">2008</text></g><g class="xtick"><text text-anchor="start" x="0" y="388.4" style="font-family: 'Open Sans', verdana, arial, sans-serif; font-size: 12px; fill: rgb(36, 36, 36); fill-opacity: 1; white-space: pre; opacity: 1;" transform="translate(495.38,0) rotate(90,0,382.4)">2010</text></g><g class="xtick"><text text-anchor="start" x="0" y="388.4" style="font-family: 'Open Sans', verdana, arial, sans-serif; font-size: 12px; fill: rgb(36, 36, 36); fill-opacity: 1; white-space: pre; opacity: 1;" transform="translate(523.0799999999999,0) rotate(90,0,382.4)">2012</text></g><g class="xtick"><text text-anchor="start" x="0" y="388.4" style="font-family: 'Open Sans', verdana, arial, sans-serif; font-size: 12px; fill: rgb(36, 36, 36); fill-opacity: 1; white-space: pre; opacity: 1;" transform="translate(550.77,0) rotate(90,0,382.4)">2014</text></g><g class="xtick"><text text-anchor="start" x="0" y="388.4" style="font-family: 'Open Sans', verdana, arial, sans-serif; font-size: 12px; fill: rgb(36, 36, 36); fill-opacity: 1; white-space: pre; opacity: 1;" transform="translate(578.46,0) rotate(90,0,382.4)">2016</text></g><g class="xtick"><text text-anchor="start" x="0" y="388.4" style="font-family: 'Open Sans', verdana, arial, sans-serif; font-size: 12px; fill: rgb(36, 36, 36); fill-opacity: 1; white-space: pre; opacity: 1;" transform="translate(606.15,0) rotate(90,0,382.4)">2018</text></g></g><g class="yaxislayer-above"><path class="ytick ticks crisp" d="M79,0h-5" transform="translate(0,368)" style="stroke: rgb(68, 68, 68); stroke-opacity: 1; stroke-width: 1px;"/><path class="ytick ticks crisp" d="M79,0h-5" transform="translate(0,323.33000000000004)" style="stroke: rgb(68, 68, 68); stroke-opacity: 1; stroke-width: 1px;"/><path class="ytick ticks crisp" d="M79,0h-5" transform="translate(0,278.66999999999996)" style="stroke: rgb(68, 68, 68); stroke-opacity: 1; stroke-width: 1px;"/><path class="ytick ticks crisp" d="M79,0h-5" transform="translate(0,234)" style="stroke: rgb(68, 68, 68); stroke-opacity: 1; stroke-width: 1px;"/><path class="ytick ticks crisp" d="M79,0h-5" transform="translate(0,189.32999999999998)" style="stroke: rgb(68, 68, 68); stroke-opacity: 1; stroke-width: 1px;"/><path class="ytick ticks crisp" d="M79,0h-5" transform="translate(0,144.67000000000002)" style="stroke: rgb(68, 68, 68); stroke-opacity: 1; stroke-width: 1px;"/><path class="ytick ticks crisp" d="M79,0h-5" transform="translate(0,100)" style="stroke: rgb(68, 68, 68); stroke-opacity: 1; stroke-width: 1px;"/><g class="ytick"><text text-anchor="end" x="71.6" y="4.199999999999999" transform="translate(0,368)" style="font-family: 'Open Sans', verdana, arial, sans-serif; font-size: 12px; fill: rgb(36, 36, 36); fill-opacity: 1; white-space: pre; opacity: 1;">0</text></g><g class="ytick"><text text-anchor="end" x="71.6" y="4.199999999999999" style="font-family: 'Open Sans', verdana, arial, sans-serif; font-size: 12px; fill: rgb(36, 36, 36); fill-opacity: 1; white-space: pre; opacity: 1;" transform="translate(0,323.33000000000004)">20</text></g><g class="ytick"><text text-anchor="end" x="71.6" y="4.199999999999999" style="font-family: 'Open Sans', verdana, arial, sans-serif; font-size: 12px; fill: rgb(36, 36, 36); fill-opacity: 1; white-space: pre; opacity: 1;" transform="translate(0,278.66999999999996)">40</text></g><g class="ytick"><text text-anchor="end" x="71.6" y="4.199999999999999" style="font-family: 'Open Sans', verdana, arial, sans-serif; font-size: 12px; fill: rgb(36, 36, 36); fill-opacity: 1; white-space: pre; opacity: 1;" transform="translate(0,234)">60</text></g><g class="ytick"><text text-anchor="end" x="71.6" y="4.199999999999999" style="font-family: 'Open Sans', verdana, arial, sans-serif; font-size: 12px; fill: rgb(36, 36, 36); fill-opacity: 1; white-space: pre; opacity: 1;" transform="translate(0,189.32999999999998)">80</text></g><g class="ytick"><text text-anchor="end" x="71.6" y="4.199999999999999" style="font-family: 'Open Sans', verdana, arial, sans-serif; font-size: 12px; fill: rgb(36, 36, 36); fill-opacity: 1; white-space: pre; opacity: 1;" transform="translate(0,144.67000000000002)">100</text></g><g class="ytick"><text text-anchor="end" x="71.6" y="4.199999999999999" style="font-family: 'Open Sans', verdana, arial, sans-serif; font-size: 12px; fill: rgb(36, 36, 36); fill-opacity: 1; white-space: pre; opacity: 1;" transform="translate(0,100)">120</text></g></g><g class="overaxes-above"/></g></g><g class="polarlayer"/><g class="smithlayer"/><g class="ternarylayer"/><g class="geolayer"/><g class="funnelarealayer"/><g class="pielayer"/><g class="iciclelayer"/><g class="treemaplayer"/><g class="sunburstlayer"/><g class="glimages"/><defs id="topdefs-f8bd0e"><g class="clips"/><clipPath id="legendf8bd0e"><rect width="505" height="48" x="0" y="0"/></clipPath></defs><g class="layer-above"><g class="imagelayer"/><g class="shapelayer"><path data-index="0" fill-rule="evenodd" d="M80,144.67000000000002L620,144.67000000000002" clip-path="url(#clipf8bd0ey)" style="opacity: 1; stroke: rgb(143, 143, 143); stroke-opacity: 1; fill: rgb(0, 0, 0); fill-opacity: 1; stroke-dasharray: 9px, 9px; stroke-width: 2px;"/></g></g><g class="infolayer"><g class="legend" pointer-events="all" transform="translate(97.5,440.59999999999997)"><rect class="bg" shape-rendering="crispEdges" style="stroke: rgb(68, 68, 68); stroke-opacity: 1; fill: rgb(255, 255, 255); fill-opacity: 1; stroke-width: 0px;" width="505" height="48" x="0" y="0"/><g class="scrollbox" transform="" clip-path="url(#legendf8bd0e)"><g class="groups"><g class="traces" transform="translate(0,14.5)" style="opacity: 1;"><text class="legendtext" text-anchor="start" x="40" y="4.680000000000001" style="font-family: 'Open Sans', verdana, arial, sans-serif; font-size: 12px; fill: rgb(36, 36, 36); fill-opacity: 1; white-space: pre;">Unsmoothed index</text><g class="layers" style="opacity: 1;"><g class="legendfill"/><g class="legendlines"><path class="js-line" d="M5,0h30" style="fill: none; stroke: rgb(18, 67, 109); stroke-opacity: 1; stroke-width: 2px;"/></g><g class="legendsymbols"><g class="legendpoints"><path class="scatterpts" transform="translate(20,0)" d="M3,0A3,3 0 1,1 0,-3A3,3 0 0,1 3,0Z" style="opacity: 1; stroke-width: 0px; fill: rgb(18, 67, 109); fill-opacity: 1;"/></g></g></g><rect class="legendtoggle" x="0" y="-9.5" width="155.46875" height="19" style="fill: rgb(0, 0, 0); fill-opacity: 0;"/></g><g class="traces" transform="translate(253.5625,14.5)" style="opacity: 1;"><text class="legendtext" text-anchor="start" x="40" y="4.680000000000001" style="font-family: 'Open Sans', verdana, arial, sans-serif; font-size: 12px; fill: rgb(36, 36, 36); fill-opacity: 1; white-space: pre;">90% credible interval lower bound</text><g class="layers"><g class="legendfill"><path class="js-fill" d="M5,-2h30v6h-30z" style="stroke-width: 0; fill: rgb(63, 148, 222); fill-opacity: 1;"/></g><g class="legendlines"><path class="js-line" d="M5,-2h30" style="fill: none; stroke: rgb(255, 127, 14); stroke-opacity: 1; stroke-width: 0px;"/></g><g class="legendsymbols"><g class="legendpoints"/></g></g><rect class="legendtoggle" x="0" y="-9.5" width="248.71875" height="19" style="fill: rgb(0, 0, 0); fill-opacity: 0;"/></g><g class="traces" transform="translate(0,33.5)" style="opacity: 1;"><text class="legendtext" text-anchor="start" x="40" y="4.680000000000001" style="font-family: 'Open Sans', verdana, arial, sans-serif; font-size: 12px; fill: rgb(36, 36, 36); fill-opacity: 1; white-space: pre;">90% credible interval upper bound</text><g class="layers"><g class="legendfill"/><g class="legendlines"><path class="js-line" d="M5,0h30" style="fill: none; stroke: rgb(31, 119, 180); stroke-opacity: 1; stroke-width: 0px;"/></g><g class="legendsymbols"><g class="legendpoints"/></g></g><rect class="legendtoggle" x="0" y="-9.5" width="251.0625" height="19" style="fill: rgb(0, 0, 0); fill-opacity: 0;"/></g></g></g><rect class="scrollbar" rx="20" ry="3" width="0" height="0" style="fill: rgb(128, 139, 164); fill-opacity: 1;" x="0" y="0"/></g><g class="g-gtitle"/><g class="g-xtitle"/><g class="g-ytitle"><text class="ytitle" transform="rotate(-90,23.887500000000003,234)" x="23.887500000000003" y="234" text-anchor="middle" style="font-family: 'Open Sans', verdana, arial, sans-serif; font-size: 14px; fill: rgb(36, 36, 36); opacity: 1; font-weight: normal; white-space: pre;">Index (1980=100)</text></g><g class="annotation" data-index="0" style="opacity: 1;"><g class="annotation-text-g" transform="rotate(0,592.5,135.67000000000002)"><g class="cursor-pointer" transform="translate(565,127)"><rect class="bg" x="0.5" y="0.5" width="54" height="17" style="stroke-width: 1px; stroke: rgb(0, 0, 0); stroke-opacity: 0; fill: rgb(0, 0, 0); fill-opacity: 0;"/><text class="annotation-text" text-anchor="middle" x="27.453125" y="13" style="font-family: 'Open Sans', verdana, arial, sans-serif; font-size: 12px; fill: rgb(36, 36, 36); fill-opacity: 1; white-space: pre;">Baseline</text></g></g></g></g></svg>